<!--?xml version="1.0" encoding="utf-8"?-->
<!-- Generator: Adobe Illustrator 23.0.1, SVG Export Plug-In . SVG Version: 6.00 Build 0)  -->
<svg version="1.1" id="Layer_1"
	xmlns="http://www.w3.org/2000/svg"
	xmlns:xlink="http://www.w3.org/1999/xlink" x="0px" y="0px" viewBox="0 0 340.4 340.4" style="" xml:space="preserve">
	<style type="text/css">
		.st0{fill:#C1C1C1;stroke:#848484;stroke-width:3;stroke-miterlimit:10;}
		.st1{fill:none;stroke:#5f6c7b;stroke-width:4;stroke-miterlimit:10;}
		.st2{fill:#FFFFFE;}
		.st3{fill:#6B3C00;stroke:#848484;stroke-width:2.5;stroke-miterlimit:10;}
	</style>
	<g>
		<g>
			<path class="st0" d="M256.1,174.3c4.5,0.5,9,0.9,13.5,1.5c10.2,1.4,20.2,10.9,23,21.2c1.9,7.1,1.8,13,1.5,15.9
				c-0.5,3.8-1.6,13.2-9.5,20.8c-1.9,1.8-8.7,7.9-19.3,8.5c-13.1,0.8-21.9-7.3-23.4-8.7c-1.6,2.6-3.9,6.4-6.8,10.9
				c-4.6,7-9.2,14-14.3,19.9c-3,3.5-10.9,12.4-23.7,18.9c-15.6,7.9-30,8-36.8,7.9c-16.9-0.1-29.5-5.2-34.6-7.5
				c-11.5-5.2-18.8-11.7-23.3-15.7c-12.4-11.1-19-22.3-22.3-28.1c-1.5-2.5-8-14.3-12.5-31.1c-2.5-9.5-3.4-17.1-3.8-21.1
				c-0.3-3.2-1.1-12.7,0.2-25.2c1.2-11.7,1.8-17.7,5.9-22c3.6-3.8,8.1-4.8,14.5-6.3c11.7-2.7,23.7-4.2,35.7-5.2
				c28.6-2.4,34.5-2,47.7-1.9c18.4,0.1,30,0.2,45.6,3c33,5.8,38,15.1,39.2,17.8c1.1,2.5,2.7,7.9,3.4,14.1
				C256.7,166.9,256.4,171.2,256.1,174.3z M254.3,190.9c-2,7.8-3.9,14.8-5.6,21.8c-0.2,0.9,0.2,2.3,0.9,3c7.6,7.6,20,4.7,22.2-5.6
				c0.8-3.8,0.3-8.1-0.8-11.8c-0.7-2.3-3.3-4.8-5.6-5.7C262,191.3,258.1,191.4,254.3,190.9z"></path>
			<path class="st1 GzfSghDy_1" d="M190.3,111.8L190.3,111.8c5.3-6.9,10.2-12.6,14.5-18.8c5.3-7.6,3.5-10.9-5.8-11.7c-4.5-0.4-8.9-1.1-13.3-2.1
				c-7.7-1.7-11.3-8.4-8.5-17.6c0.8-2.7,4.1-8.2,5.7-11.4l2.5-4.7"></path>
			<path class="st2 GzfSghDy_2" d="M174.6,175.1c-6.5,0.2-14.6,0.5-25.1-0.8c-13-1.6-23.5-4.7-30.9-7.5c4,0.4,9.7,0.9,16.6,1.3
				c10.7,0.7,23.6,1.4,39.8,0.9c14.4-0.5,25.2-0.9,39.2-4.3c8.5-2,15.3-4.5,20.1-6.3c-9.8,6.5-18.7,9.9-24.8,11.9
				C196.6,174.3,186.1,174.7,174.6,175.1z"></path>
			<path class="st2 GzfSghDy_3" d="M95.2,243.3c-4.9-8.4-7.9-15.9-9.8-21.6c-6.1-18-6.2-32.5-6.2-36.1c0-6.2,0.6-11.4,1.2-15
				c2.8-0.2,5.6-0.4,8.4-0.6c-1.3,9.7-2.1,22.1-0.8,36.5c1.3,14.2,4.2,26.2,7.1,35.5C95.1,242.5,95.2,242.9,95.2,243.3z"></path>
			<path class="st2 GzfSghDy_4" d="M236.7,155.8c0.1,0.1,0.3,0.5,0.3,0.5c0,0-0.6,0.9-0.6,0.9l-0.1-0.7C236.4,156.3,236.5,156,236.7,155.8z"></path>
		</g>
	</g>
	<path class="st1 GzfSghDy_5" d="M151.9,122.7L151.9,122.7c5.3-6.9,10.2-12.6,14.5-18.8c5.3-7.6,3.5-10.9-5.8-11.7c-4.5-0.4-8.9-1.1-13.3-2.1
		c-7.7-1.7-11.3-8.4-8.5-17.6c0.8-2.7,4.1-8.2,5.7-11.4l2.5-4.7"></path>
	<path class="st1 GzfSghDy_6" d="M110.6,105.2L110.6,105.2c5.3-6.9,10.2-12.6,14.5-18.8c5.3-7.6,3.5-10.9-5.8-11.7c-4.5-0.4-8.9-1.1-13.3-2.1
		c-7.7-1.7-11.3-8.4-8.5-17.6c0.8-2.7,4.1-8.2,5.7-11.4l2.5-4.7"></path>
	<path class="st3" d="M237.8,144.3c0,5.9-35,10.7-78.1,10.7s-78.1-4.8-78.1-10.7c0-5.9,35.5-11.9,78.6-11.9S237.8,138.4,237.8,144.3z
		">	</path>
	<style data-made-with="vivus-instant">.GzfSghDy_1{stroke-dasharray:97 99;stroke-dashoffset:98;animation:GzfSghDy_draw_1 2600ms linear 0ms infinite,GzfSghDy_fade 2600ms linear 0ms infinite;}.GzfSghDy_2{stroke-dasharray:238 240;stroke-dashoffset:239;animation:GzfSghDy_draw_2 2600ms linear 0ms infinite,GzfSghDy_fade 2600ms linear 0ms infinite;}.GzfSghDy_3{stroke-dasharray:159 161;stroke-dashoffset:160;animation:GzfSghDy_draw_3 2600ms linear 0ms infinite,GzfSghDy_fade 2600ms linear 0ms infinite;}.GzfSghDy_4{stroke-dasharray:4 6;stroke-dashoffset:5;animation:GzfSghDy_draw_4 2600ms linear 0ms infinite,GzfSghDy_fade 2600ms linear 0ms infinite;}.GzfSghDy_5{stroke-dasharray:97 99;stroke-dashoffset:98;animation:GzfSghDy_draw_5 2600ms linear 0ms infinite,GzfSghDy_fade 2600ms linear 0ms infinite;}.GzfSghDy_6{stroke-dasharray:97 99;stroke-dashoffset:98;animation:GzfSghDy_draw_6 2600ms linear 0ms infinite,GzfSghDy_fade 2600ms linear 0ms infinite;}@keyframes GzfSghDy_draw{100%{stroke-dashoffset:0;}}@keyframes GzfSghDy_fade{0%{stroke-opacity:1;}92.3076923076923%{stroke-opacity:1;}100%{stroke-opacity:0;}}@keyframes GzfSghDy_draw_0{0%{stroke-dashoffset: 746}38.46153846153847%{ stroke-dashoffset: 0;}100%{ stroke-dashoffset: 0;}}@keyframes GzfSghDy_draw_1{5.4945054945054945%{stroke-dashoffset: 98}43.956043956043956%{ stroke-dashoffset: 0;}100%{ stroke-dashoffset: 0;}}@keyframes GzfSghDy_draw_2{10.989010989010989%{stroke-dashoffset: 239}49.45054945054945%{ stroke-dashoffset: 0;}100%{ stroke-dashoffset: 0;}}@keyframes GzfSghDy_draw_3{16.483516483516482%{stroke-dashoffset: 160}54.94505494505494%{ stroke-dashoffset: 0;}100%{ stroke-dashoffset: 0;}}@keyframes GzfSghDy_draw_4{21.978021978021978%{stroke-dashoffset: 5}60.439560439560445%{ stroke-dashoffset: 0;}100%{ stroke-dashoffset: 0;}}@keyframes GzfSghDy_draw_5{27.472527472527474%{stroke-dashoffset: 98}65.93406593406593%{ stroke-dashoffset: 0;}100%{ stroke-dashoffset: 0;}}@keyframes GzfSghDy_draw_6{32.967032967032964%{stroke-dashoffset: 98}71.42857142857143%{ stroke-dashoffset: 0;}100%{ stroke-dashoffset: 0;}}@keyframes GzfSghDy_draw_7{38.46153846153847%{stroke-dashoffset: 323}76.92307692307693%{ stroke-dashoffset: 0;}100%{ stroke-dashoffset: 0;}}</style>
</svg>
	