<!--?xml version="1.0" encoding="utf-8"?-->
<!-- Generator: Adobe Illustrator 23.0.1, SVG Export Plug-In . SVG Version: 6.00 Build 0)  -->
<svg version="1.1" xmlns="http://www.w3.org/2000/svg" xmlns:xlink="http://www.w3.org/1999/xlink" x="0px" y="0px" viewBox="0 0 2061.5 1286.3" style="" xml:space="preserve">
<style type="text/css">
	.st0{fill:#131118;}
	.st1{fill:none;stroke:#007BF7;stroke-width:3;stroke-miterlimit:10;}
	.st2{fill:none;stroke:#007BF7;stroke-width:3;}
</style>
<g id="Layer_2">
	<path class="st0 TmyDGpuG_0" width="2061.5" height="1286.3" d="M0 0 L2061.5 0 L2061.5 1286.3 L0 1286.3 Z"></path>
</g>
<g id="Layer_1">
	<g>
		<g>
			<path class="st1 TmyDGpuG_1" d="M336.8,765c-2.1,23-10,55.7-16.9,77.5c-10.4,33.4-18.7,67.3-24.5,101.9c-0.2,1.3-0.5,3.6-0.6,6.1
				 M513.4,936.2c0,0-27.7,94.4-35.3,102c-2.6,2.5-4,3.3-7.3,1.5c-16.9-9.5-33.7-19.5-51.3-28c-35.2-17.1-70.8-33.5-106.3-50
				c-2.9-1.2-6.4-1.1-9.6-1.1c-6.4-0.1-12.6,0-18.9,0.4c-3.1,0.2-6.7,0.3-9.2,2c-19.4,13-38,27.2-54.1,44.1
				c-6.3,6.5-12.4,6.5-19.9,4.5c-3.4-0.9-4.4-2.7-3.3-5.9c1.6-4.9,3.1-9.9,4.6-14.8c1.3-4.2,2.4-8.5,3.9-13.7
				c-2.5,0.7-5.1,1.8-5.1,1.8c-10,3.9-20.2,2.8-29.9-0.9c-2.6-1-5.5-3.4-6.8-5.9c-5.9-11.1-11.4-22.2-16.8-33.5
				c-1.1-2.4-1.5-5.4-1.1-8c2-11.3,4.7-22.6,6.9-33.8c7.8-39.8,12.5-79.9,6.4-120.6c-0.6-4.5-1-9.1-1.7-14.4
				c1.2,0.3,2.6,0.6,4.2,1.8c17.9,13.9,38.1,15.3,58.5,9c16.8-5.3,32.5-13.4,48.9-20.1c5.8-2.2,11.8-4.8,17.9-5.6
				c19.1-2.4,34.3,5.1,47.1,19.9c1.2-1.3,2.2-2.3,3-3.5c15.7-25,39.3-37.5,67.2-43.9c28.2-6.5,56.7-7.3,85.5-6.7
				c21.9,0.4,43.6,0.3,65.1-4.9c9.2-2.3,18.4-4.5,27.6-7.1c3.7-1.1,5-0.2,4.3,3.7c-0.7,3.8-1.3,7.6-2,11.3
				c-10.5,53.3-18.3,107.1-21.4,161.4c-0.7,11.9-3.9,21.3-12.8,28.8c-8.8,7.3-20.3,21.7-26.8,26.4l-11.2,3.7
				c-4.5,1.8-34.2-12.4-49.5-14.6c-33.7-5.1-66.8,0-99,9.9c-16.8,5.3-32.6,11.2-49.2,17.1c-3.3,1.2-13.5,3.9-15,4.6 M558.8,897.5
				c-1.3-0.6-5.7-0.4-8.3,0.4c-17.3,5.9-32.7,4.6-50.5,2.4c-17.4-2.2-34.7-4.1-52.2-5.3c-37.1-2.5-71.7,6.8-104,24.9
				c-13.9,7.9-27.3,16.8-40.7,25.4c-2.5,1.6-8.1,5.6-8.1,5.6 M292.8,949.9c-0.8-2.4-21-11.1-31.5-12.9c-12.7-2-24.8-0.3-37,2.8
				c-7.8,2-15.4,4.1-23.2,6c-14.6,3.7-28.9,1.3-42.5-5c0,0-7.3-3.7-10.2-3.8 M482,1031l-5.8-3.4c-12.7-6.9-25.4-13.7-38.4-20.2
				c-33-16.3-66.5-31.2-101.4-43.3c-7.1-2.5-13.6-6.1-21-6.7c-7.1-0.5-11.7,0.6-11.7,0.6 M254.6,908c0.8,1.3,2.1,5.9,2.1,5.9
				s1.9-2.5,2.3-3.1c13.4-19,23.1-39.5,25-63.3c0.8-11,1.7-22.1,4-32.7c2-9.2,5.4-18.6,9.9-27c6.6-12.3,22.4-17.5,37.5-18.8
				c-2.5-4.5-11.1-6.1-16.4-4.2c-5.6,1.7-16,6.4-21.6,13.6c-10.5,13.7-15,29.6-17.5,46.2c-1.9,12-3.7,24.1-6.1,36
				c-3.4,17-11.5,31.8-23,44.8l-3.2,4.1l0,0C248.9,909.2,252.2,908.9,254.6,908z M279.7,954.8c-14.1-2.9-29-1.4-41.3,5.6
				c-7,4-9.6,5.3-16.3,9.6c-6.9,4.1-15,7-15,7 M284.3,959.5c-19-0.4-83.6,43.3-84.6,50.1 M279.2,955.2c4.2,4.5,19.4,5.4,26.4,1.4
				C301,950.1,287.2,949.4,279.2,955.2z"></path>
			<path class="st1 TmyDGpuG_2" d="M162.9,133.2c9.1,12.6,18.4,24.9,27.3,37.6c26.1,37,52.1,73.8,77.7,111c9.7,14,19.5,28.1,27.1,43.1
				c10.1,20.1,18.3,41.1,27.1,61.7c0.7,1.3-0.1,3.3-0.1,4.9c-1.6-0.5-3.6-0.6-4.7-1.6c-3.8-3.5-7.4-7.2-11-10.9
				c-7.9-8.4-15.7-16.8-23.7-25c-9.2-9.3-20-16.9-27.8-27.8c-20.4-28.3-41.4-56-62.1-84c-29.2-39.4-83-121.7-83-121.7
				c-0.8-1.8,0.3-6.6,0.3-6.6s1.4-4.2,0.6-5.8c-1.4-3.1-5.8-5.5-3-9.4c0.4-0.5-0.4-2.7-1.1-3.7c-1.4-2.1-3-4.1-4.3-6.2
				c-1.6-2.9-1.1-3.6,1.5-5.7c3.1-2.6,4.3-2.4,7.5,1.7c0,0,5.8,6.7,8.4,5.9c0.4-0.2,3.3-0.8,4.7,0.5c4.6,4.4,5.7,7.8,12.1,6.7
				c0.3-0.1,17.5,6.4,25.6,9.9c3.3,1.4,6.5,3.9,8.8,6.7c4.9,6.1,9.2,12.7,13.7,19.1c12.1,16.9,24.2,33.9,36.1,50.9
				c0.8,1.1,1,2.9,0.4,4c-1,1.6-3.1,1.7-4.5,1.2c-3.4-1.2-6.8-2.9-10-4.6c-4-2.2-5.9-5.4-5.4-10.3c0.3-1.7-0.3-4.1-1.3-5.5
				c-9.4-13-18.9-25.9-28.4-38.7c0,0-13.1-15.5-20-12.9L162.9,133.2z M128.2,96.1l-17.1,11.7 M123.6,141.3
				c7.2-11.5,20-18.6,30.6-19.9 M228,225.6c-8.3,4.6-23.9,15.3-29.1,23.6 M211.9,267.9c4.3-6,22.2-19.8,30-23.7 M268.9,341.3
				c6,0.4,23-12.5,25-18.7 M305.5,347.1c-2.1,5.3-11.7,11.5-17.8,12.1 M308.3,381c2.4,2.2,9.8-3.6,8.8-6.6 M191.3,239.7
				c-0.3-3,14.3-15.2,14.3-15.2s12.3-9.7,14.1-10.3 M217.1,274.8c3.5-5.1,23.2-20.8,29.7-23.3"></path>
		</g>
		<path class="st1 TmyDGpuG_3" d="M116.7,90.5L106.9,97.2"></path>
	</g>
	<path class="st2 TmyDGpuG_4" d="M1772.1,232.5c-17.8,2.4-33.3,2.6-54.2-5.1c-22.5-8.1-35.9-23.3-43.6-42.7c-9-22.9-8.2-45.2,6.1-66.5
		c12.7-18.9,32.5-29.8,57.1-33c27.5-3.7,53.1,0.9,74.5,17.3c15.9,12.2,25.1,28.2,27.5,46.2c4.2,30.5-11.2,57.8-40,76.1
		 M1814.7,284.9l-0.8,0.9c-1.3-0.5-2.4-0.9-3.7-1.4c-10.6-4.2-21.1-6.7-32.8-4.4c-10.3,2.1-19.8,5.3-24.6,14.5
		c-4.2,8.3-0.3,14.8,10,15.7c7.1,0.7,14.5,0.5,21.9,0.7c15.3,0.7,30.9,1.6,44.1,9.7c7.1,4.4,13.2,9.9,19.6,15
		c5.8,4.8,12.2,8.3,20.1,9.5c15.6,2.1,30.9,0.7,45.7-4.2c9.8-3.2,19-7.4,25.1-15c9.8-12.2,10-25.6,3.2-38.8
		c-5-9.5-11.4-18.5-17.4-27.7c-5-7.6-10.3-15.2-16.4-22.2c-7.1-8.1-22.3-6.5-29.5,0.7c5.8,7.8,12.8,14.8,18.6,22.6l0,0
		c-1.1-1.2-1.8-2.3-2.9-3.5c-7.4-9-14.5-18-22.2-26.8c-5-5.8-11.1-6.9-21.1-2.3c-4.8,2.3-7.6,5.9-4.2,9.9c6.3,7.8,13.4,16,20,24.1
		c0.8,1.2,2.1,2.3,2.9,3.5l0,0c-1.1-1.2-1.8-2.3-2.9-3.5c-8.5-10.2-16.6-20.3-25.4-30.2c-4.8-5.3-14-5.5-20.9-0.7
		c-4.5,3.2-6.8,10.9-2.6,16.2c7.4,8.8,14.2,16.6,21.4,25.6l3.4,4.2l0,0c-1.1-1.4-2.4-2.8-3.4-4.2c-15.1-18-29.9-36-45.5-53.8
		c-7.1-8.1-15.3-15.5-23.8-22.6c-6.1-5.1-13.2-3-14.8,4.4c-0.8,3.2,0,7.2,1.1,10.4s3.2,6,5.3,8.8c12.4,15.9,25.1,32.1,37.8,47.8
		C1804.6,273.5,1809.9,279.1,1814.7,284.9z"></path>
	<path class="st2 TmyDGpuG_5" d="M1787.2,135.7l-0.8,2.1c-8.5,16.4-16.6,32.5-25.1,48.9c-2.6,5.3-6.3,5.5-10.3,0.9
		c-12.7-14.8-25.1-29.3-37.8-44.1c-3.2-3.7-2.4-5.8,2.9-6.5c10.8-1.6,21.9-2.5,32.8-3.9c9.5-1.2,19-2.1,28.8-3
		C1783.2,129.5,1787.2,132.7,1787.2,135.7z"></path>
	<path class="st2 TmyDGpuG_6" d="M2060.4,1058.2c-9.3-11.2-20.8-21.9-30-33.1c-22.2-27-44.5-53.9-66.7-80.9c-2.5-3-5.1-5.9-7.4-9.1
		c-1.5-1.9-3-2.1-5.3-1.7c-19.6,4.4-39.5,6.8-59.5,3.8c-34.6-5.1-62.1-22.6-81.1-51.5c-20.7-31.3-28.3-65.9-19.8-102.7
		c9.9-42.5,36.5-71.4,76.6-87.5c50.5-20.1,106.6-6.5,142.1,34.4c23.2,26.8,32.9,58.5,30,94c-2.5,31.5-17.1,57.5-38.8,79.8
		c-2.3,3-4.9,3.8-2.1,7.2c18.8,23.2,43.6,51.8,62.1,75.5"></path>
	<path class="st2 TmyDGpuG_7" d="M1907.1,715.9c32.7,1.5,60.8,12.3,83.6,35.5c14.6,14.8,21.7,32.7,23.2,53.2c4.2,60.4-43.1,102.7-92.5,107.9
		c-51.5,5.7-97.7-28.7-106.4-83.7c-4.6-28.9,4-54.5,21.5-77.1C1854.5,728.5,1878.4,716.9,1907.1,715.9z"></path>
	<path class="st2 TmyDGpuG_8" d="M1907.9,742.9c26.8,0.8,50.2,9.9,66.5,32.3c18.6,25.6,16.9,61.5-3.2,87.5c-20.3,26.2-56.2,35.1-87.6,21.5
		c-31-13.3-48.1-43.5-44.8-77.1c1.7-16.1,8-29.8,17.9-41.8C1870.1,749.2,1887.7,742.7,1907.9,742.9z"></path>
</g>
<style data-made-with="vivus-instant">.TmyDGpuG_0{stroke-dasharray:6696 6698;stroke-dashoffset:6697;animation:TmyDGpuG_draw_0 7500ms ease-in 0ms infinite,TmyDGpuG_fade 7500ms linear 0ms infinite;}.TmyDGpuG_1{stroke-dasharray:3090 3092;stroke-dashoffset:3091;animation:TmyDGpuG_draw_1 7500ms ease-in 0ms infinite,TmyDGpuG_fade 7500ms linear 0ms infinite;}.TmyDGpuG_2{stroke-dasharray:1266 1268;stroke-dashoffset:1267;animation:TmyDGpuG_draw_2 7500ms ease-in 0ms infinite,TmyDGpuG_fade 7500ms linear 0ms infinite;}.TmyDGpuG_3{stroke-dasharray:12 14;stroke-dashoffset:13;animation:TmyDGpuG_draw_3 7500ms ease-in 0ms infinite,TmyDGpuG_fade 7500ms linear 0ms infinite;}.TmyDGpuG_4{stroke-dasharray:1395 1397;stroke-dashoffset:1396;animation:TmyDGpuG_draw_4 7500ms ease-in 0ms infinite,TmyDGpuG_fade 7500ms linear 0ms infinite;}.TmyDGpuG_5{stroke-dasharray:214 216;stroke-dashoffset:215;animation:TmyDGpuG_draw_5 7500ms ease-in 0ms infinite,TmyDGpuG_fade 7500ms linear 0ms infinite;}.TmyDGpuG_6{stroke-dasharray:1010 1012;stroke-dashoffset:1011;animation:TmyDGpuG_draw_6 7500ms ease-in 0ms infinite,TmyDGpuG_fade 7500ms linear 0ms infinite;}.TmyDGpuG_7{stroke-dasharray:625 627;stroke-dashoffset:626;animation:TmyDGpuG_draw_7 7500ms ease-in 0ms infinite,TmyDGpuG_fade 7500ms linear 0ms infinite;}.TmyDGpuG_8{stroke-dasharray:468 470;stroke-dashoffset:469;animation:TmyDGpuG_draw_8 7500ms ease-in 0ms infinite,TmyDGpuG_fade 7500ms linear 0ms infinite;}@keyframes TmyDGpuG_draw{100%{stroke-dashoffset:0;}}@keyframes TmyDGpuG_fade{0%{stroke-opacity:1;}86.66666666666667%{stroke-opacity:1;}100%{stroke-opacity:0;}}@keyframes TmyDGpuG_draw_0{0%{stroke-dashoffset: 6697}60%{ stroke-dashoffset: 0;}100%{ stroke-dashoffset: 0;}}@keyframes TmyDGpuG_draw_1{0%{stroke-dashoffset: 3091}60%{ stroke-dashoffset: 0;}100%{ stroke-dashoffset: 0;}}@keyframes TmyDGpuG_draw_2{0%{stroke-dashoffset: 1267}60%{ stroke-dashoffset: 0;}100%{ stroke-dashoffset: 0;}}@keyframes TmyDGpuG_draw_3{0%{stroke-dashoffset: 13}60%{ stroke-dashoffset: 0;}100%{ stroke-dashoffset: 0;}}@keyframes TmyDGpuG_draw_4{0%{stroke-dashoffset: 1396}60%{ stroke-dashoffset: 0;}100%{ stroke-dashoffset: 0;}}@keyframes TmyDGpuG_draw_5{0%{stroke-dashoffset: 215}60%{ stroke-dashoffset: 0;}100%{ stroke-dashoffset: 0;}}@keyframes TmyDGpuG_draw_6{0%{stroke-dashoffset: 1011}60%{ stroke-dashoffset: 0;}100%{ stroke-dashoffset: 0;}}@keyframes TmyDGpuG_draw_7{0%{stroke-dashoffset: 626}60%{ stroke-dashoffset: 0;}100%{ stroke-dashoffset: 0;}}@keyframes TmyDGpuG_draw_8{0%{stroke-dashoffset: 469}60%{ stroke-dashoffset: 0;}100%{ stroke-dashoffset: 0;}}</style></svg>
