<!--?xml version="1.0" encoding="utf-8"?-->
<!-- Generator: Adobe Illustrator 23.0.1, SVG Export Plug-In . SVG Version: 6.00 Build 0)  -->
<svg version="1.1" id="Layer_1" xmlns="http://www.w3.org/2000/svg" xmlns:xlink="http://www.w3.org/1999/xlink" x="0px" y="0px" viewBox="0 0 838.6 588" style="" xml:space="preserve">
<style type="text/css">
	.st0{fill:none;stroke:#007BF7;}
</style>
<g>
	<g>
		<path class="st0 eKKeooAd_0" d="M840.2,487.4c-3-3.7-6-7.3-8.9-11c-7-8.8-13.9-17.5-20.7-26.1c3.2-4,6.7-7.8,9.6-11.9
			c15.2-22.3,14-50.8-3.2-71.5c-10.1-12.2-23.4-19-39.1-20.5c-19.3-1.9-35.9,4.3-49.4,18.2c-12.2,12.5-17.1,27.9-15.4,45.3
			c1.2,12.6,5.6,24.1,13.8,33.8c10.1,11.9,22.9,18.9,38.7,19.8c8,0.5,15.9-0.3,23.7-2.2c1.4-0.3,2.2-0.1,3.1,1
			c7,8.6,14.1,17.1,21.2,25.7c8.7,10.5,17.3,21,26,31.5c0.2,0.2,0.5,0.3,0.7,0.5c0,0.5,0,1,0,1.4c-4.4-5.3-8.8-10.6-13.2-15.9
			c-10.5-12.8-21.1-25.5-31.6-38.3c-1.2-1.4-2.4-2.8-3.5-4.3c-0.7-0.9-1.4-1-2.5-0.8c-9.3,2.1-18.7,3.2-28.2,1.8
			c-16.4-2.4-29.4-10.7-38.4-24.4c-9.8-14.8-13.4-31.2-9.4-48.6c4.7-20.1,17.3-33.8,36.3-41.4c23.9-9.5,50.5-3.1,67.3,16.3
			c11,12.7,15.6,27.7,14.2,44.5c-1.2,14.9-8.1,27.2-18.4,37.8c-1.1,1.4-2.3,1.8-1,3.4c8.9,11,18.7,22.7,27.5,33.9
			c0.2,0.3,0.5,0.4,0.8,0.6C840.2,486.5,840.2,486.9,840.2,487.4z"></path>
		<path class="st0 eKKeooAd_1" d="M364.2,300.7 M364.2,300.7 M365.5,287.2 M367.1,285.8 M341.2,263.2l0.5,1c1.3,2.5,3.6,6,5,8.5l1.7-1.3l0,0
			c-1.3-2.7-3.2-5.7-5.9-7.4l-0.7-0.5l0,0L341.2,263.2z M145.2,268.4l0.6,1.3c3.7,6.5,6.9,10.2,11.1,15
			c10.5,12.6,22.7,23.1,37.6,30.1c16.6,7.9,34,13.8,51.6,19.1c0.4,0.1,0.8,0,1.8,0c-5.8-5-10.4-10.3-13.6-16.8
			c8.5,6.9,17.1,13.3,27,18.1c8.4,4,28.1,10.2,31.2,9.3c-11.2-10-21.9-20.3-31.5-31.7c0.1-0.1,0.3-0.3,0.4-0.4
			c3.1,3.4,6.5,6.7,9.6,10.1l0,0c0-0.5-0.3-1.3-0.6-1.8c-5.9-10.8-13.8-20.3-20.9-30.3c-0.3-0.4-1.2-0.7-1.8-0.6
			c-4.6,0.6-9.3,1.3-13.9,1.9c-2.2,0.3-4.5,0.5-6.9,0.7c0.8,1.7,1.5,3.2,2.1,4.7c1.3,3.4,2.8,6.7,3.6,10.1c1.2,4.9-4.3,9.5-6.6,9.4
			c-1.1,0-4.2-0.8-5.3-2.1c-0.1-0.1,0,2.2-0.7,3.4c-1.2,2.3-1.6,2.9-4.9,3c-3.3,0.1-5.3-1.8-6.3-4.7c-0.9-2.6-1.4-6.5-1.7-9.2
			c-0.6-4.1-1.1-8.2-1.8-12.3l-0.5-3.5c-8.3-0.6-17.3-2.2-26.5-5.5c-1-0.3-2-0.7-2.9-1.1c-3.3-1.5-6.7-2.9-10-4.4
			c-3.3-1.6-6.8-3.4-10.4-5.5C151.5,272.5,148.2,270.4,145.2,268.4z M348.4,255c0.1,0,0.2,0.1,0.3,0.1c0-0.1,0-0.3,0-0.4
			c-0.8-1.6-2.1-4.2-3-5.7l0,0c-2.6,1.1-7.5,3.4-10,4.4C339.4,253.6,344.7,254.3,348.4,255z M331.3,242.5c1.7-0.9,6.3-3.5,8.1-4.4
			c-1.6-2.8-3.4-6.4-4.9-8.9l0,0c-2.7,1.3-6.4,3.1-9.2,4.5c1.1,2.1,2.4,4.6,3.5,6.6 M328.6,239.8 M263.8,308.4l-0.5-0.3l0.2,0.4
			c2.6,4.3,5.5,8.5,8.2,12.8c0.3,0.5,0.9,1,1.4,1.4c7.6,5.3,15.4,10.2,23.8,14.1c7,3.3,14.2,6.3,20.3,11.1c1.6,1.3,3.2,2.6,4.9,4.1
			c2.1-3.7,4.1-7.2,6.2-10.9c-0.8-0.3-1.4-0.6-2-0.8c-17.8-6.5-35-14.2-50.9-24.6C271.5,313.1,267.6,310.9,263.8,308.4z M72.2,395.4
			c2.8-1.2,5.5-2.6,8.4-3.7c12.9-5.1,26.3-7.2,40.2-6.2c12.2,0.8,23.9,3.7,34.8,9.4c7.4,3.9,13.9,9,19.8,14.8
			c5.5,5.4,10.8,11,16.5,16c10.4,9.1,22.6,13,36.4,10c19.7-4.3,34.2-15.7,43.5-33.3c10.1-18.9,7.3-37.7-1.8-56
			c-2.3-4.6-5.7-8.5-10.3-11c-7-3.7-13.6-8.3-19.8-13.2l-4.2-3.5l1.4,2.7c1.2,2.5,6.3,7,9.1,9.9c3.3,3.3,6.8,6.3,10.2,9.6
			c1.3,1.3,2.4,2.9,3.3,4.5c4.4,8.1,7,16.8,7.3,26.1c0.3,9.4-1.5,18.3-6.9,26.1c-7,10.2-17,16.1-28.8,19.4
			c-6.9,1.9-13.8,2.3-20.6-0.8c-3.9-1.7-7.4-4.1-10.2-7.3c-6.3-7.2-12.6-14.5-18.5-22c-7.5-9.5-16.3-17.3-27.6-21.8
			c-21.1-8.4-43-11.6-65.6-9.6c-3.4,0.3-6.8,1.2-10.1,1.9c0,0.2,0,0.4-0.1,0.6c9.2,2.8,15.8,8.9,21.3,16.4c-0.2,0.3-0.3,0.4-0.4,0.5
			c-1.5,0.5-2.9,1-4.4,1.6c-9.8,3.6-17.6,9.9-23.1,18.8c0,0.1-0.1,0.3-0.1,0.4C71.9,395.5,72,395.5,72.2,395.4z M232.4,140.4
			c-0.5,1.6-0.9,3.2-1.5,4.8c-4.8,13.7-13.9,24.1-25.6,32.3c-14.9,10.3-31.5,14.4-49.4,13.1c-9.5-0.7-18.4-3.4-26.4-8.6
			c-2.7-1.7-5.3-3.7-7.9-5.5c-3.5,5.7-7,17.6-7.4,25.3c-1.1,21.7,6.5,40.1,20.8,55.9c13.9,15.3,31.5,24.7,51.4,29.8
			c17.5,4.4,35.3,5.1,53.2,2.6c18.6-2.6,36.2-8.4,52.4-18c8.1-4.8,15.9-10,23.1-16.2c5.7-4.9,11.3-9.8,16.9-14.7
			c0.6-0.6,1.1-1.3,1.6-1.9c-0.1-0.2-0.2-0.3-0.3-0.5c-2.2,1-4.4,1.9-6.6,2.9c-10.1,4.6-20.4,8.9-31,12.5
			c-15.4,5.1-31.3,7.7-47.6,7.7c-15.3,0-30.5-1.4-45.7-3.6c-0.5-0.1-0.9-0.3-1.3-0.4c0-0.2,0.1-0.3,0.1-0.5c27.4,3.5,56.3,7,83.6,0
			c-12.9-1.5-27.1-4.6-39.3-8.8c-12.5-4.2-23.8-10.4-33.9-18.8c-10.8-9-25.7-25.5-25.9-28.7c7.5,9.6,15.1,18.6,24.1,26.2
			c2.6-1.8,4.3-1.4,5.6,1.2c0.4,0.8,0.5,1.8,0.7,2.7c0.1,0.4,0.1,1.1,0.3,1.3c3,2.1,6.1,4.2,9.1,6.2c0.1-0.1,0.3-0.2,0.4-0.4
			c-3.1-21.8-7.5-43.4-6.4-65.6c0.3,0.6,0.4,1.2,0.4,1.8c-0.1,1,0.3,1.6,1.3,2c4.8,2.3,9.7,4.5,14.4,7.1c15,8.1,26.9,19.4,35,34.5
			c0.3,0.4,0.7,0.8,1,1.2l0.5-0.2c-0.7-3.8-1.4-7.6-2.1-11.3c-4.6-23.2-16.9-41.2-37-53.9c0.7,0,1.2,0.1,1.6,0.4
			c4.1,3.1,8.3,6.1,12.2,9.5c10.6,9.3,17.5,21,21.7,34.4c0.3,0.8,0.9,1.7,1.5,2.3c2.8,2.7,5.8,5.2,8.4,8.1c2.6,2.8,4.9,5.8,7.3,8.8
			c0,0,0.8,0.9,1.6,1.8c0.2-11.5-2.7-33.7-14.1-48.8C262.4,156.5,249.8,145.2,232.4,140.4z M331.3,474.4c-0.3-0.9-0.4-1.3-0.6-1.8
			c-1.6-4.6-3.3-9.2-4.8-13.9c-4.9-16.2-6-32.7-3.5-49.5c2.1-14.2,6.4-27.8,12-40.9c4-9.3,8.3-18.5,12.8-27.5
			c4.9-9.8,9.5-19.6,12.9-30c3.7-11.3,5.7-22.9,4.2-34.9c-1.4-10.4-6.9-17.1-16.9-20.3c-4.9-1.6-10-1.7-15.1-1.3
			c-6.7,0.6-13.1,2.3-19.3,4.8c-1.3,0.7-4.9,3.2-6.5,4.2c5.1-3.2,13.7-3.3,19.1-3.8c5.2-0.5,10.5,0.2,15.2,2.7
			c7.8,4.3,10,11.7,10.2,19.9c0.2,9.2-2.5,17.9-5.9,26.3c-6.8,16.7-15.6,32.3-24.8,47.8c-9.5,15.8-18.7,31.7-26,48.6
			c-5.4,12.6-8.4,25.7-7.7,39.5c0.6,11.6,2.6,22.8,5.9,33.9c0.4,1.4,0.9,2.8,1.3,4.1c0.5-12.6,4.7-23.8,11.2-34.8
			C311.9,458.7,319.8,468.1,331.3,474.4z M459.7,511.7c0.1-0.1,0.2-0.3,0.2-0.4c-0.3-0.2-0.6-0.4-1-0.7c-7.5-4.7-15.1-9.3-22.5-14.3
			c-15.6-10.5-29.8-22.6-41.9-37c-16.9-20.2-29.1-42.8-35.1-68.5c-3.1-13.2-7.6-25.7-15.5-36.9c-0.4-0.5-0.8-1-1.4-1.9
			c-2.6,6.1-5.2,11.8-7.6,17.5c-0.2,0.6,0.1,1.4,0.3,2.1c0.8,2.6,2,5.1,2.5,7.7c1.8,9.3,3.8,18.7,5,28.1
			c2.6,20.3,9.8,38.8,21.3,55.8c11.4,16.8,25.1,31.6,40.6,44.8c2.1,1.8,4.2,3.4,6.4,5.2c0.1-0.4,0.2-0.5,0.2-0.6
			c-0.2-0.6-0.4-1.2-0.7-1.8c-2-4.5-3.1-9.2-3.5-14.1c-0.1-1.2-1-1.9-1.9-2.5c-1-0.7-1.6-2.6-1.6-2.6l0,0
			C422,503,438.9,510.2,459.7,511.7z M61.2,107.9c-0.9-0.4,0,0-0.9-0.4c4.6,6.3,8,14,10,21.6c-10.4-7.3-21.8-10.7-34.8-9.6
			c1,0.6,1.6,1,2.2,1.3c6.1,3.5,11.9,7.4,17.1,12.2c9,8.3,16.5,18,22.6,28.5c7,12.2,13.6,24.7,20.1,37.2
			c5.7,10.9,10.2,19.2,17.1,29.3c0,0,3.5,2.8,3.9,3.3l0,0c-0.2-0.6-0.6-1.7-0.8-2.3c-3.2-9.3-4.3-17.9-3.5-27.8l0.3-2.5
			c-6-15-14.2-29.7-19.9-44.8c-5.9-15.7-14.7-29.3-27.1-40.6C65.5,111.6,63.3,109.8,61.2,107.9z M293,226.6c1.2-0.6,2.2-1,3.1-1.5
			c11.4-5.7,22.9-11.4,34.3-17.1c2.2-1.1,2.1-1.1,3.4,1c12,20.1,24,40.3,36.1,60.4c1,1.6,1.9,3.3,3,5.1c-2.2,1.1-4.3,2-6.3,3
			c-0.5,0.3-1.3,0.7-1.3,1.2c0,2,0.1,4.8,0.3,7.1c4.9-2.4,10.3-4.9,15-7.4c2.5-1.4,2.7-4.5,1.2-7c-0.3-0.5-0.9-1.5-1.2-2
			c-14.7-23.4-28.9-46.1-43.6-69.5c-0.5-0.8-0.8-1.5-1.3-2.3c-1.8,0.8-3.6,1.7-5.3,2.5c-14.2,7.2-28.5,14.4-42.7,21.6
			c-1.9,1-2.5,2.4-2,4.4c0.1,0.5,0.3,1,0.5,1.5c3.7,7.9,7.6,17.6,11.3,25.5l0,0c1.9-0.8,5-2.2,7.1-3
			C300.6,242.2,296.8,234.5,293,226.6z M85,129.2c1.5,1.4,2.9,2.6,4.1,4c1.8,2.1,3.6,4.3,5.3,6.6c1.6,2.1,2.5,3.6,5.1,3.6l1.2,0
			l1.4,0.3c-2.6,0.9-5.7,0.9-7.3,3.2c1.6,1.5,3.2,2.7,4.5,4.2c1.4,1.6,2.9,1.9,4.8,1.2c4.4-1.6,8.4-3.8,12.1-6.7
			c0.9-0.7,1.8-1.3,2.7-2c-1.9-2.1-3.3-3.5-4.5-5.1c-3.2-4.3-6.4-8.7-9.6-13.1c-3.8-5.1-8.6-8.6-14.9-9.9c-2.1-0.5-4.1-1.8-6.1-2.8
			c-0.5-0.2-0.9-0.7-1.4-1c0.6,2.8,1.6,5.3,2.6,7.8s2.6,4.2,4.9,5.4c0.7,0.4,1.6,0.7,2.5,0.7l1.1,0c0,0,2.8-1,2.9-0.8
			C92.6,126.4,88.8,127.8,85,129.2z M383.1,273.9c0.2,0,0.2-2.4,0.2-2.4s0-2.2,0-2.7c0.2-6.5,0.2-13.1,0.4-19.6
			c0.1-4.3,0.4-8.5,0.4-12.9c0-4.1-0.7-7.8-2.8-11.4c-12.4-21.8-24.2-43.7-36.5-65.6c-2.6-4.6-5.2-9.3-7.8-13.9l-1.4-0.6l-1,1.2
			c-0.1,0.6-0.2,1.3-0.2,2c0.1,4.7,0.3,9.5,0.4,14.2c0.3,10.6,0.5,21.2,0.9,31.8c0.1,1.6,0.3,3.4,1.1,4.8
			c13.3,21.3,26.7,42.6,40,63.9C378.7,265.3,381.9,271.3,383.1,273.9z M215.9,300.9l0.5-0.1c0.1,0.4,1,5.5,1.1,5.9
			c0.8,3.1,1.6,4.8,1.6,4.8c1.3,3.2,5.4,4.7,8.3,4c3.4-0.7,5.5-4.3,4.5-7.9c-1.4-4.7-4-11.3-5.7-15.9l-1.9,0c-4.6,0-9,0.6-13.6,0.5
			c-1.8,0-3.5-0.2-5.4-0.4c0,0.5,0,0.7,0,0.9c0.7,5.2,1.4,10.4,2.1,15.6c0.4,3,0.5,6.1,2.1,8.9c1.3,2.3,3.2,3.4,5.9,3.2
			c2.6-0.2,4.2-1.7,5-4c0.2-0.6-0.3-2.4-0.7-3C216.6,309.5,216.7,305.5,215.9,300.9z M114.5,199c1.2-7.3,3.5-15.3,6-22l0.4-1.1
			c-1.7-1.6-4.5-4.3-6.2-5.8c-4.4-4.2-8-9.7-11-17.4 M93.1,147.9 M350.4,285.1c-0.8,0.3-1.2,0.5-1.6,0.7c-6.6,3.1-13.2,6.1-19.7,9.2
			c-1.6,0.8-2.2,0.4-3-1.1c-4.8-9.9-10.2-22-15.1-31.9l0,0c-1.2,0.2-5.8,2.3-6.7,3.3l0.3,0.8c5.4,10.4,10.9,20.9,16.2,31.3
			c2,4,3.8,4.8,8.1,3.7c0.7-0.2,1.4-0.4,2.1-0.7c5.7-2.4,12.5-5.3,18.1-7.7c0-0.1,0.1-0.5,0.3-1.1
			C349.8,289.6,350,287.5,350.4,285.1z M234,244l1.8,0.6c2.7,1.1,5.3,2.1,8,2.7c0.9,0.2,1.8,0.2,2.9,0.1c12.2-3.1,20-10.8,23.5-22.8
			c0.7-2.4,0.7-5.7-0.7-8.3c-0.5,8.6-5.6,15.9-11.8,20.9C251.3,242.4,242,244,234,244z M330.6,243.4c1.8,3.3,3.4,6.3,5.1,9.4
			c3.2-1.5,6.3-2.9,9.5-4.4c-1.7-3-3.7-6.8-5.4-9.6l0,0C337,240.2,333.5,241.9,330.6,243.4z M337.2,278.2c-3,1.4-5.8,2.8-8.8,4.1
			c1.7,3.4,3.2,6.5,4.9,9.8c3-1.4,5.9-2.8,9-4.2C340.5,284.5,338.9,281.4,337.2,278.2z M325,233.1c3.1-1.5,6-3,9-4.5
			c-1.8-3.2-3.5-6.1-5.2-9.3c-3,1.5-5.9,2.9-8.9,4.4C321.6,226.9,323.3,229.9,325,233.1z M328.1,281.6c3-1.4,5.8-2.7,8.8-4.1
			c-1.8-3.4-3.4-6.5-5.2-9.8c-2.9,1.3-5.7,2.6-8.6,3.9C324.8,275,326.4,278.2,328.1,281.6z M340.7,263.6c-2.8,1.3-5.5,2.4-8.3,3.7
			c1.8,3.4,3.4,6.5,5.1,9.8c2.9-1.3,5.5-2.6,8.4-3.9C344.1,269.9,342.5,266.8,340.7,263.6z M337.9,277.8c1.6,3.1,3.4,7.1,4.9,9.8
			l0,0c1.4-0.5,6.3-2.3,7.7-3l0.4-1.2l0-0.6c-0.7-1.4-3.9-8.4-4.4-9.1l0,0C344,274.9,340.7,276.6,337.9,277.8z M340.5,238.5
			c1.7,3,3.7,7.1,5.3,9.9l0,0c2.4-1.1,5.7-2.9,8.1-4c-1.8-3-4-6.9-5.8-9.7l0,0C346,235.7,342.9,237.3,340.5,238.5z M346.3,248.7
			c1.1,2.5,2.1,4.6,3,6.6l4.9,2.6l5.7-3.7c-1.9-3.2-3.9-6.3-5.7-9.4C351.5,246.2,349.1,247.4,346.3,248.7z M316,237.6
			c-1.6-3-3.4-6.7-4.9-9.4l0,0c-2.3,1.1-5.3,2.7-7.6,3.9c1.6,3.2,3.1,6.3,4.7,9.5C310.9,240.3,313.4,239.1,316,237.6z M316.7,237.2
			c2.6-1.3,5-2.5,7.6-3.8c-1.8-3.2-3.4-6.2-5.1-9.4c-2.6,1.3-5,2.5-7.5,3.8C313.5,231.1,315,234.1,316.7,237.2z M342.2,224.6
			c-1.9-3.1-3.7-6.1-5.5-9.2c-2.5,1.2-4.7,2.4-7.2,3.6c1.7,3,3.6,6.6,5.2,9.4l0,0C337,227.4,340,225.9,342.2,224.6z M322.7,270.8
			c3-1.3,5.7-2.6,8.6-3.9c-1.1-2.1-2-4.7-3.1-6.6l0,0c-3.1,0-7.4,0-10.3,0.8C319.4,264,321.2,267.7,322.7,270.8z M347.8,234
			c-1.8-3.1-3.5-5.9-5.3-8.8c-2.5,1.3-4.9,2.5-7.4,3.7c1.7,3.1,3.3,5.9,5,8.9C342.7,236.5,345.1,235.3,347.8,234z M319.5,223.1
			c3.1-1.5,5.9-3,8.9-4.5c-1.4-2.4-2.6-4.5-3.9-6.8c-3,1.5-5.8,2.9-8.7,4.4C317.1,218.6,318.3,220.7,319.5,223.1z M307,220.5
			c-2.6,1.3-5,2.5-7.5,3.8c1.2,2.5,2.3,4.7,3.5,7c2.6-1.3,5.1-2.5,7.6-3.8C309.4,225.1,308.3,222.9,307,220.5z M330.1,243.7
			L330.1,243.7c-1.4,1.2-5.9,4.9-7.2,6l0,0l2.5,5.1c1.9-0.3,5.6-1.1,7.5-1.3c0.6,0,1.5-0.1,2.3-0.2
			C333.6,250.3,331.7,246.6,330.1,243.7z M307.7,220.2c1.1,2.1,2.6,4.9,3.7,6.8l0,0c2.2-1,5.2-2.4,7.5-3.5c-1.3-2.4-2.5-4.6-3.8-6.9
			C312.5,217.8,310.3,218.9,307.7,220.2z M322.3,271.7c-1.8,0.8-3.4,1.6-5.1,2.4c1.6,3.3,3.4,7.4,5,10.5l0,0
			c1.4-0.7,3.7-1.9,5.2-2.7C325.7,278.4,324.1,275.2,322.3,271.7z M332.7,292.4c-1.7-3.3-3.3-6.5-5-9.8c-1.8,0.8-3.4,1.6-5.1,2.4
			c1.7,3.4,3.2,6.6,4.8,9.9C329.2,294.1,330.9,293.3,332.7,292.4z M329.1,218.3c2.5-1.2,4.7-2.4,7.1-3.6c-1.4-2.3-2.6-4.5-4-6.7
			c-2.4,1.2-4.6,2.3-7,3.5C326.6,213.8,327.8,215.9,329.1,218.3z M317,237.9c1.1,2.1,2.1,4,3.1,5.9c2.7-1.2,5.2-2.4,7.9-3.6
			c-1.2-2.1-2.2-4.1-3.4-6.2C322,235.4,319.6,236.6,317,237.9z M362.3,266.7c1.3,3.6,2.4,7.2,2.7,11l6.9-3.5
			c-1.4-2.4-4.4-7.9-5.6-10L362.3,266.7z M297.9,234.8c1.6,3.3,3.1,6.3,4.6,9.5c1.8-0.9,3.2-1.6,4.9-2.5c-1.6-3.3-3.1-6.3-4.7-9.5
			C301,233.2,299.5,234,297.9,234.8z M316.9,273.4c1.8-0.8,3.4-1.6,5.1-2.3c-0.8-1.7-3.9-8.6-4.7-10.1l0,0c0,0-5.6,0.6-5.8,0.8
			C312.9,264.6,315.3,270.3,316.9,273.4z M319.4,244.2c-1.1-2.1-2-3.9-3.1-5.9c-2.6,1.3-5.2,2.6-7.8,4c0.8,1.7,2.1,4,2.9,5.4l0,0
			C314,246.7,316.9,245.5,319.4,244.2z M354.2,258.3c3,2.1,5.5,4.9,7.7,8.1c0.7-0.4,2.7-1.7,3.8-2.4c-0.2-0.4-0.4-0.7-0.6-1.1
			c-1.4-2.4-3-5.7-4.5-8l0,0C358.9,255.5,355.7,257.6,354.2,258.3z M302.3,231.7c-0.6-1.2-3-6.3-3.4-7.2l0,0l-5.2,2.3
			c1.1,2.2,2.6,4.9,3.8,7.3C299.2,233.3,300.6,232.5,302.3,231.7z M328.7,260.3c1.1,2.1,2.2,4.7,3.3,6.4l0,0c2.4-1,5.7-2.5,8.5-3.8
			C336.6,261.1,333,260.3,328.7,260.3z M302.9,245c0.9,1.7,1.6,3.3,2.5,5c1.8-0.7,3.4-1.4,5.1-2.1c-0.9-1.9-1.8-3.6-2.7-5.4
			C306.1,243.4,304.6,244.1,302.9,245z M322.5,250c-2.4,2.2-7.7,6.6-9.9,8.6l0.5-0.1c2.9-0.8,8.7-3,11.7-3.9
			C324.2,253.2,323.2,251.4,322.5,250z M348.6,271.9l-1.7,1.4l0.1,0.1c0.6,1.4,2.7,5.7,3.3,7.2c0.2-0.1,0.2-0.1,0.4-0.2
			C350.3,278.6,349.6,273.3,348.6,271.9z"></path>
		<path class="st0 eKKeooAd_2" d="M635.4,130.6l-0.1-2.4c0-0.7,0-1.4,0-2.4c-1.3,0.6-2.3,1.2-3.3,1.6c-1,0.5-2.9,0.7-2.9,0.7l0,0
			c0,0,0.6-1.2,1-1.8c7.4-9,11.8-20.1,12.4-31.7c0.4-7.4,0.9-14.8,2.2-22c1.4-8,5.1-15.1,11.8-20.2c1.6-1.3,5.5-3,7.7-2.4
			c-4.1-2.4-11-4.7-16-4.3c-4,0.4-7.6,1.8-11.1,3.8c-6.6,3.8-13.2,7.6-20,10.9c-3.4,1.6-7.3,2.2-11,3.2c0-0.2,0-0.4,0-0.6
			c10.7-1.9,19.6-7.5,28.7-13c4.8-2.9,9.8-5.3,15.6-5.1s10.7,2.4,15.3,5.7c1.1,0.8,1.7,2.3,2.7,3.6c0.8-1.5,1.7-3,2.6-4.6
			c5.7-10.3,14.5-16.7,25.3-20.7c10.4-3.9,21.2-6.1,32.2-7.2c8.9-0.9,17.9-1.5,26.9-2.4c10.5-1.1,20.4-4.5,30.1-8.3
			c0.6-0.3,1.3-0.5,2.3-0.9c-0.1,1.5-0.2,2.6-0.3,3.8c-1.2,15.4-2.8,30.8-3.5,46.3c-0.6,14-0.3,28.1-0.5,42.1c0,1.2-0.4,2.5-1,3.5
			c-4.1,5.7-8.3,11.4-13.7,15.9c-0.6,0.5-1.3,1.1-2.1,1.3c-2.1,0.6-2.8,2.1-3.4,4.1c-4.5,14.7-8.4,29.5-11,44.7
			c-0.2,1.1-0.9,2.2-1.5,3.2c-0.9,1.6-2,3.1-3.1,4.8c-2.4-1.1-4.9-2.2-7.4-3.3c-24.2-11.1-49-21-74.4-29.1c-1.4-0.5-2.7-0.9-3.9-0.6
			c-3.7,1-6.9,2-10.7,1.3c-0.6-0.1-1.8,0.7-2.3,1.1c-9.9,8-19,16.9-27.3,26.6c-0.5,0.6-1.4,1.1-2.1,1.1c-2.4,0-4.7-1.2-7.1-1.3
			c1.3-5.9,2.2-10.4,3.5-16.2c-1.6,0.8-2.9,1.4-4.2,2c-4.9,2.1-9.9,1.6-14.8,0c-0.5-0.2-1-0.8-1.4-1.3c-3.5-5.5-6.9-11.1-10.3-16.7
			c-0.1-0.1-0.5-2.5-0.5-2.5s0,0,0-0.1c0.6-11,1.5-14.9,2.5-24.6c0.4-3.5,1.6-15.3,1.1-22.2c0-0.5-0.2-2.8-0.1-2.9
			c0-0.1,0.3,1.9,0.6,3.6c0.2,15.2-1.6,30.2-3.4,45.2c-0.2,1.4,0.3,1.9,1.4,2.4c8.7,4.1,17.5,4.5,26.5,1c5.9-2.3,12-4.2,18.1-5.9
			c7.3-2,14.1-0.6,20.3,4c0.8,0.6,1.8,1,2.9,1.6c0.4-4.3,0.8-8.1,1.2-12c1.4-14.5,4-28.7,6.9-42.9c1.8-8.7,4.4-17.8,4.8-26.4
			c0.2-3.6,0.3-3.9,0.1-6.1c-0.2-1.5-2.4-2.2-3.9-1.9c-3.9,0.9-6.6,3.5-9,6.5c-4.1,5.3-6,11.5-6.5,18c-0.4,5.1-0.5,10.3-0.4,15.5
			C648.1,107.1,635.4,130.6,635.4,130.6 M780.7,105.6l-1.5,1c-6.8,3.2-17.1,4-26,3.8c-9.3-0.3-18.7-0.5-28-0.2
			c-11.4,0.3-22.1,3.5-32.4,8.2c-10.3,4.7-19.3,11.3-28,18.4c-2.3,1.9-5.3,4.3-7.6,6.2c0.1,0.2,0.2,0.4,0.3,0.6
			c3.4,0.6,3.2,0.1,4.9-0.7c13.9-7.6,28.2-14,43.5-18.2c9.7-2.6,19.5-4.1,29.5-3.5c7.9,0.4,15.8,1.4,23.6,2.1c3.7,0.2,5.6,0,9.3-1.6
			c5.3-4.1,7.9-8.7,11.7-13.6c0.9-1.3,2.1-3.5,2.1-3.5L780.7,105.6z M655.4,143.1c0.2,0.1,0.6,0.2,0.8,0.3c0.7-0.6,1.4-1.8,2.1-2.4
			c5-4,9.9-8.2,15-12c20-15.1,42.5-20.7,67.5-19.3c6.3,0.4,12.8,0.1,19.2,0.2c7.4,0.1,15.2-2.2,21.9-5.2l0.6-0.6
			c0.2-16.5,0.9-34.8,1.5-51.2c0.5-12.5,2.1-25.1,3.1-37.6c0.1-1.3,0.1-2.8,0.3-4.4c-0.9,0.3-2.1,0.7-2.7,0.9
			c-9.2,3.6-18.6,6.8-28.5,7.9c-8.6,1-17.2,1.5-25.8,2.3c-10.4,1-20.8,2.5-30.6,6.2c-5.2,2-10.4,4.4-15.2,7.2
			c-6.9,4.1-11.2,10.7-14.9,17.6c-0.5,1-1.2,2-1.2,3.1c-0.1,8.4-1.4,16.7-3.2,24.9c-3.9,17.6-7.3,35.3-8.8,53.4
			C656.1,137.3,655.6,140.5,655.4,143.1z M751.2,173.4c2.8-16.8,8-34.8,13.4-50.1c-5.5,0-12.3,0.2-17.5-0.4
			c-12.9-1.5-25.7-1.2-38.4,1.9c-15.6,3.9-30.3,10.3-44.4,17.8c-0.4,0.2-1.8,1-2.6,1.5C692.4,150.7,722.7,160.9,751.2,173.4z
			 M585.9,142.4c0,0.3-0.1,0.7,0,0.9c3.2,5.3,7.1,11.1,10.3,16.4c0.3,0.4,0.9,1.3,1.4,1.4c3.4,1,6.5,2,10,1.3
			c4.5-0.8,8.7-3.8,11.9-6.5c3.8-2.8,7.3-6.3,11.5-8.5c5.2-2.8,11.7-2.5,17.5-2.5c1.5,0,3.6-1.1,5.2-1.5l-1.4-0.8l-0.4-0.3
			c-5.7-4.3-12.2-6-19.2-4.2c-6,1.5-11.8,3.5-17.6,5.6c-6.8,2.4-13.5,4.2-20.7,2.1C591.7,145,588.7,143.3,585.9,142.4z M750.7,174
			c-28.1-12.3-57.8-22.8-87.8-29c0.8,0.8,1.6,1.3,2.9,1.7c24.4,7.9,48.3,16.9,71.6,27.6c3.2,1.4,7,3.5,10.2,4.9
			C748.7,177.6,749.7,175.8,750.7,174z M668.2,55.2c-1.7-4.3-4.4-5.4-6.5-4.6s-4.2,1.9-5.9,3.3c-6,5.1-9.4,11.9-10.6,19.5
			c-1.2,7.5-1.6,15.1-2.2,22.7c-0.8,10.1-3.8,19.3-10,27.5c-0.9,1.1-2.9,3.1-3.7,4.3l0,0c1.6-0.9,4.4-1.7,6.2-2.7
			c0.1,1.2,0,2.4,0.2,3.9c5.6-9.5,10.6-19.7,11.1-30.5c0.4-7.2,0.2-14.4,0.8-21.5c0.7-7.8,3.4-14.8,9.3-20.3
			C659.6,54.4,665.3,50.1,668.2,55.2z M647.6,145.5c-8.5-0.5-16.4,1.2-23.2,6.7c-2.2,1.8-4.5,3.5-6.7,5.4c-0.5,0.4-0.9,1.1-1,1.8
			c-1,4.1-1.9,8.3-2.8,12.4c-0.1,0.5-0.1,1.1-0.2,1.8C625.1,164.1,636.3,154.8,647.6,145.5z M650.6,148c0,0-0.5,0-2.1-0.1
			c-0.7,0-2.2,0-2.9,0.5c-9.1,7.4-18.1,14.9-27.1,22.4c-1.7,1.4-3.2,2.4-5.2,4.3c2.2,0.5,4.9,1.9,6.6,1.8c0.9-0.1,1.6-1.2,2.2-1.8
			c6.4-7.5,13.1-14.3,20.6-20.8C644.8,152.3,648.4,149.9,650.6,148z M646.3,147.4c5.4,0.1,11.7,0.5,16.7-1.3
			C659.8,142.5,650,143.5,646.3,147.4z"></path>
		<path class="st0 eKKeooAd_3" d="M48.2,494.8c-0.4-0.3-0.8-0.6-1.1-1c-2.2-2.6-4.3-5.2-6.5-7.7c-0.6-0.7-2.3-1.2-3.2-1.3
			c-5.8-0.3-9.3,2.8-12.4,7.3c-5.7,8.2-6.3,17.3-3.6,26.7c2.8,9.7,9.4,16.2,17.8,21.2c10.2,6.1,21.5,9.2,33.2,10.3
			c8.2,0.7,16.4,1,24.6,1.4c0.4,0,0.8,0.1,1.5,0.3c-0.6,0.3-0.8,0.6-1,0.5c-12-0.7-24-0.4-35.8-3c-10.6-2.4-20.5-6.2-29.2-13
			c-12.1-9.5-16.4-25.6-11-39.3c2.1-4.2,4.2-7.8,8-10.5c1.9-1.2,4.5-2.1,6.8-2.3c2.2,0.1,3.6,1.2,4.4,1.1c-1-2.1-2.4-2.6-4.7-7.7
			c-2.1-5.6-3.6-11.2-3-17.3c1.5-13.9,12.3-22.8,26.2-21.3c13.1,1.4,24.4,7,35.1,14.4c8.2,5.7,15.7,12.3,22.4,19.7
			c0.2,0.2,0.3,0.3,0.7,0.6c2-3.7,4.9-6.5,8.2-9c6.3-4.7,13.6-7,21.2-8.5c14.6-2.8,28.7-0.9,41.9,6c6.3,3.3,11.7,7.7,16.9,12.4
			c11.9,10.8,23.7,21.8,35.6,32.6c22,20,46,37.1,72.8,50.1c15.8,7.6,32.5,12.3,49.7,15.4c0.7,0.1,1.4,0.3,2.1,0.5
			c0,0.2-0.1,0.4-0.1,0.6c-0.5-0.1-1.1-0.1-1.6-0.2c-20.2-3.6-39.6-9.6-57.8-19.3c-17.9-9.6-35-20.5-50.5-33.7
			c-12.5-10.6-24.5-21.7-36.7-32.6c-8-7.1-15.4-14.9-24.3-21.1c-12.6-8.8-26.6-12.1-41.8-10.8c-8,0.7-15.6,2.7-22.7,6.5
			c-4.3,2.3-8.1,5.2-10.8,9.3c-4,5.9-3.6,12.2-1.3,18.4c1.2,3.1,3,6,4.6,8.9c0.3,0.5,0.5,1,0.4,1.7c-0.2-0.2-0.6-0.4-0.7-0.6
			c-3.5-5.4-6.6-11-6.7-17.6c0-2.4,0.5-5.7,1.1-7.1l0.4-1.1c-12-13-26.6-24.8-43.3-31.3c-5.7-2.2-11.6-3.6-17.7-3.6
			C42,440,31.6,451.9,33.6,466.2c0.9,6,2.1,12,5.9,17c2.6,3.5,5.5,6.8,8.3,10.1c0.3,0.4,0.6,0.8,0.9,1.2
			C48.5,494.6,48.4,494.7,48.2,494.8z"></path>
		<path class="st0 eKKeooAd_4" d="M660.3,240.8c-3.2-0.5-4.9,0.2-6.4,2.7c-3.6,6-7.1,12-10.7,17.9c-0.6,0.9-0.8,1.7-0.4,2.8
			c0.7,1.8-0.1,3.5-1.9,4.7c-1.5,0.9-3.1,2-4.6,2.8c-0.4,0.2-0.9-0.2-1.3-0.5c-0.3-0.2-0.3-1.2,0-1.6c6.8-11.9,13.4-23.6,20.2-35.5
			c0.4-0.6,1.1-1.1,1.7-1.4c4-2.1,8.1-4.1,12.2-6.1c0.6-0.3,1.4-0.3,2.1-0.1c1.4,0.4,2.1,0,2.6-1.3l0.8-1.6c0.5-1.2,1.3-1.5,2.6-0.6
			l1.4-1c0.9-1.4,1.7-3,2.5-4.4c0.4,0,0.5,0,0.6,0c3.1,1.8,3.1,1.8,1.1,4.8c-0.6,0.9-1.2,1.9-1.9,2.9c2,1,1.6,2.3,0.5,3.6
			c-1.1,1.4-1.3,2.6,0.4,3.8c1,0.7,0.7,1.4,0.2,2.3c-6.6,12.4-12.7,25-19.7,37.2c-12.7,22.1-25.9,43.9-39.1,65.7
			c-1.6,2.6-4.1,4.6-6,7c-4.4,5.3-8.6,10.7-13,16.1c-1.4,1.8-2.8,3.5-4.3,5.2c-0.4,0.4-1.1,0.4-1.6,0.6c-0.1-0.6-0.4-1.2-0.3-1.8
			c3.5-10.8,6.7-21.6,10.6-32.2c1.6-4.5,4.4-8.7,6.7-12.9c11.5-20.5,23.1-41.1,34.7-61.6c3.1-5.5,6.6-10.7,9.8-16.2L660.3,240.8z
			 M598.5,366.3c1-1.1,2.1-2.3,3.2-3.6c-0.8-0.5-1.2-0.8-1.8-1.2C599.4,363.3,598.9,364.8,598.5,366.3 M655.5,241.1
			c0.7-0.7,3.2-0.5,4-0.6c0.7,0,1.5-0.2,2.2-1.8c0.5-1.1,2.5-3.8,3.1-4.8c-1.7,0.8-2.8,1.5-4.4,1.7c-2,0.5-3.3,2-4.6,4.1
			c0,0.1-1,1.8-1,1.9C654.9,241.5,655.5,241.1,655.5,241.1z M667,228c-3.5,1.6-6.9,4.1-10.4,5.8c-0.5,0.2-0.8,0.8-1.1,1.3
			c-6.6,11.4-13.1,22.7-19.6,34.1c-0.3,0.5-0.4,1-0.6,1.5c0.2,0.2,0.3,0.3,0.5,0.5c2-1.3,4.1-2.5,5.9-4.1c0.6-0.5,0.6-2.1,0.3-3
			c-0.3-1-0.3-1.6,0.2-2.5c4.3-7.2,8.7-14.3,12.8-21.6c1.4-2.5,3-4.2,5.8-4.7c3.6-0.6,6.6-4,7.8-7l0.4-1.1L667,228z M644.4,301.3
			c0.7-1.2,1.5-2.4,2.2-3.7c8.9-15.7,17.8-31.5,26.8-47.2c0.8-1.3,0.5-2.1-0.6-3c-3-2.6-8.3-5.4-12.1-6.5l-1,1.8
			c-8,13.7-15.7,27.6-23.7,41.4c-1.6,2.8-3.2,5.6-4.7,8.3C635.8,295.4,640,298.3,644.4,301.3z M622.7,308.4
			c-0.2,0.2-0.4,0.2-0.4,0.3c-4.2,7.8-8.7,14.4-12.9,22.2c-0.2,0.5-0.6,2.3-0.1,3.2c2.4,3.4,6.2,5.3,10.3,5.9c0.5,0.1,1.2,0,1.5-0.5
			c4.3-7,9.8-15.3,14-22.4c0.3-0.4-0.8-1.3-0.8-1.3C631.1,312.9,626.9,310.5,622.7,308.4z M674.5,248.1c2.3-4.6,4.7-8.8,6.8-13.3
			c0.2-0.3,0.1-1.6-0.2-2c-2-3.1-5.6-4-8.7-5.4c-0.8-0.4-2.5-1.1-3.4,0.4c-2.6,4.2-5.2,8.5-7.9,12.9
			C666.5,242,670.8,244.3,674.5,248.1z M636.6,314.4c1.7-2.9,3.5-5.9,5.4-9.1c-4.3-3.2-8.4-6.3-12.6-9.5c-1.9,3.4-3.6,6.6-5.2,9.4
			C628.4,308.4,632.4,311.4,636.6,314.4z M608.9,334.1c-1.1,2.9-2,5.4-2.9,7.9c-1,2.8-0.7,3.8,1.9,5.3c1.1,0.6,2.4,1,3.7,1.3
			c0.4,0.1,1.1-0.1,1.4-0.4c2.3-2.4,4.5-4.9,6.9-7.6C615.4,339.9,611.8,337.9,608.9,334.1z M605,344.4c-1.3,4.2-3,10.4-4.3,14.9
			c-0.2,0.5,0.3,1.2,0.8,1.5c0.4,0.3,1.5,0.3,2-0.1c0.8-0.8,1.4-1.8,2.1-2.7c2.1-2.8,6.6-7.6,8.5-10.2
			C611.2,350.4,604.5,348,605,344.4z M629.8,295.2c4.2,3.2,8.4,6.3,12.6,9.5c0.4-0.6,0.6-0.9,0.9-1.3c0.2-0.3,0.8-1,1-1.5
			c-4-3.4-8.6-6.4-13.3-9.2C630.7,293.4,630.1,294.7,629.8,295.2z M673.1,227c2.2,1.1,4.5,2.4,6.6,3.4c0.7-1.2,1.3-2.3,1.9-3.4
			c-1.9-1.4-3.8-2.8-5.7-4.2C675,224.4,673.9,225.5,673.1,227z M635.6,316.2l0.9-1.3l-0.9-0.7c-3.5-2.6-8.3-5.6-11.8-8.2l0,0
			l-1.1,1.9c3.6,2.2,8.4,5.3,11.8,7.6L635.6,316.2z M681.4,218.5c-1,1.9-2.2,3.1-3.3,4.9c0.7,0.4,1.5,1,2.1,1.4
			c1.1-1.6,2.1-3.2,3.2-4.8C682.8,219.4,682.3,219,681.4,218.5z"></path>
		<path class="st0 eKKeooAd_5" d="M605.3,543.2c-2.1-2.8-4.4-6.5-6.2-9c-2.8-3.9-5.4-7.7-8.1-11.7c-0.7-1-2.1-1-3.3-0.9c-6,0.2-12-0.3-17.7-2.6
			c-8.5-3.5-13.6-10.1-16.5-18.5c-3.4-9.9-3.1-19.6,2.3-28.8c4.8-8.2,12.3-12.9,21.6-14.3c10.4-1.6,20.1,0.4,28.2,7.5
			c6,5.3,9.5,12.2,10.4,20c1.6,13.2-3,24-13.9,31.9c-0.1,0.1-0.3,0.2-0.6,0.6c1.5,2,3.1,4,4.6,6c0.2,0.1,3.8,6.1,3.8,6.1
			c-4.6-7.1-1-10.5,2.4-10.9c2.9-0.2,4.9,1.6,6.5,4c-0.7-3.4,3.5-5.1,6.5-5.2c2.4-0.1,7.7,8.7,9.6,10.5c0,0-3.6-5.2-3.2-5.8
			c3.5-2.5,8.9-3.1,12.6,2.7c4.1,6.5,8,13.1,11.4,20c2.8,5.7,2.6,11.8-1.3,17.1c-1.5,2.1-3.7,3.8-5.9,5.1
			c-5.9,3.4-12.3,4.1-19.1,3.7c-4.7-0.3-8.2-2-11.2-5.6c-4.8-4.7-11.9-9.2-19.8-9.5c-3.4-0.1-7.1-0.1-10.5-0.3c-5.4-0.3-8-4.1-5-8.7
			c2.4-3.7,6.3-5.5,10.5-5.8c2.9-0.3,5.8,0.1,8.8,1C602.2,542,604.3,542.9,605.3,543.2z M606.6,543.9l-0.3,0.4
			c-0.5-0.2-0.9-0.4-1.4-0.6c-4-1.8-8-2.9-12.4-1.9c-3.9,0.9-7.5,2.3-9.3,6.3c-1.6,3.6-0.1,6.4,3.8,6.8c2.7,0.3,5.5,0.2,8.3,0.3
			c5.8,0.3,11.7,0.7,16.7,4.2c2.7,1.9,5,4.3,7.4,6.5c2.2,2.1,4.6,3.6,7.6,4.1c5.9,0.9,11.7,0.3,17.3-1.8c3.7-1.4,7.2-3.2,9.5-6.5
			c3.7-5.3,3.8-11.1,1.2-16.8c-1.9-4.1-4.3-8-6.6-12c-1.9-3.3-3.9-6.6-6.2-9.6c-2.7-3.5-7.4-3.5-10.1-0.4c2.2,3.4,4.4,6.7,6.6,10.1
			l-0.6,0.4c-0.4-0.5-0.7-1-1.1-1.5c-2.8-3.9-5.5-7.8-8.4-11.6c-1.9-2.5-4.2-3-8-1c-1.8,1-2,2.3-0.7,4c2.4,3.4,4.8,6.8,7.3,10.3
			c0.3,0.5,0.7,1,1,1.5l-0.5,0.4c-0.4-0.5-0.7-1-1.1-1.5c-3.2-4.4-6.3-8.8-9.6-13.1c-1.8-2.3-5.3-2.4-7.9-0.3
			c-1.7,1.4-1.7,4.2-0.1,6.5c2.8,3.8,5.3,7.8,8,11.7l1,1.4l-0.5,0.3c-0.4-0.6-0.9-1.2-1.3-1.8c-5.7-7.8-11.3-15.6-17.2-23.3
			c-2.7-3.5-5.8-6.7-9-9.8c-2.3-2.2-5-1.3-5.6,1.9c-0.3,1.4,0,3.1,0.4,4.5c0.4,1.4,1.2,2.6,2,3.8c4.7,6.9,9.5,13.9,14.3,20.7
			C602.8,539,604.8,541.4,606.6,543.9z M601,517l0.8-0.6l1-0.8c4.8-3.2,7.8-7.9,10.1-13.1c6.2-13.7,1.8-30.5-10.4-39.2
			c-7.3-5.2-15.6-6.4-24.4-5.3c-8.5,1.1-15.5,5.1-20.4,12.1c-4.7,6.7-6.2,14.2-5.2,22.3c1.2,9.2,4.8,17.1,12.4,22.7
			c6.9,5.1,15,6,23.3,5.7c0.1,0,1.5,0,1.5-0.2c-1.4-2.4-3.4-5.1-4.6-7.6c-0.7-1.4-1.2-2.9-1.2-4.4c0-1.9,0.2-2.9,1.7-3.9
			c1.9-0.9,3.8-0.9,5.2,0.4c1.7,1.6,3.3,3.3,4.9,5C597.6,512.2,599.3,514.9,601,517z"></path>
		<path class="st0 eKKeooAd_6" d="M131.7,105.9 M84.3,112.9l-1.2-6.5c0,0,21.8,9.2,33.4,4.8c13.5-5,16.3-6.1,17.7-6.8c-1.4-2.2-2.8-4.8-4-7l0,0
			c-7.8,1.9-17.7,4.1-25.5,6l-2,0.5l0.8-1.6c5.9-10.7,11.8-21.4,17.7-32.2c0.7-1.2,1.5-2,2.8-2.5c19.3-7.2,38.5-14.5,57.7-21.8
			l1.7-0.7l-0.6,2.4c-1.3,5.5-2.5,11.2-3.7,16.7l-0.5,2.1c2,3.1,5.9,7.8,8.3,11.3c1-9-1.9-14.6-4.6-20.7c5.9-2,27,13.6,28.3,17.5
			c-0.5-0.5-2.3-2.4-2.7-2.9c-1.5-1.6-9.6-8.7-15.6-11.3c-2.8-1.3-6-2.8-9.1-3.2l-0.1,0.2c0.2,0.6,0.6,1.7,0.9,2.3
			c2.4,5.4,4.1,10.9,3.3,16.8c-0.1,0.6,0.2,1.3,0.5,1.8c0.8,1.4,1,2.8,0.2,4.3c-0.9,1.9-1.7,3.8-2.6,5.7c-1.8,4-2.5,8.2-2.5,12.6
			c0,0.8,0,1.5,0,2.3c-0.5,0-0.8,0.1-1.1,0c-6.4-2.7-12.8-2-19.3-0.4c-3.4,0.8-6.7,1.9-10,2.9c-4.4,1.3-8.8,2-13.3,1.2
			c-0.7-0.1-2.7-0.6-4.6-2.1 M105,103.2l1.5-0.3c21.9-5.4,43.7-10.9,65.6-16.2c1-0.3,1.4-0.7,1.7-1.7c2.9-12.1,5.8-24.3,8.7-36.4
			c0.1-0.5,0.4-1.9,0.5-2.6l-1.8,0.7c-19,7.2-37.9,14.3-56.9,21.6c-0.8,0.3-1.9,1.3-2.3,2c-2.1,3.6-3.7,7.5-5.7,11.2
			c-3.8,7-8.2,13.7-12,20.8l-0.6,1.2L105,103.2z M130.8,97.4c1.4,2.1,2.3,4.1,3.5,5.9c1,1.5,4.8,3.2,6.7,3.3
			c2.9,0.2,3.8-0.2,6.5-0.7c4.5-0.9,8.9-2.4,13.4-3.5c5-1.2,10-2.4,15.3-1.6c2,0.3,3.9,0.9,6,1.4c0.1-2.1,0.2-4.1,0.4-6.1
			c0.5-4.9,2.6-9.2,4.7-13.5c0.9-1.8,0.5-3.3-0.7-4.8c-2.2-2.9-4.3-5.9-6.5-8.8c-0.4-0.5-0.7-1-1.2-1.7c-1.4,6-2.8,11.6-4.1,17.3
			c-0.4,1.7-1,2.5-2.8,2.9c-4.1,0.9-8.2,1.9-12.2,2.9C150.1,92.7,140.6,95,130.8,97.4z"></path>
		<path class="st0 eKKeooAd_7" d="M251.6,554.4c-0.5-0.2-1.1-0.3-1.6-0.5c-21.2-8.5-41.5-18.8-60.3-32c-6.8-4.8-13.5-9.8-20.4-14.5
			c-7-4.8-14.6-7.7-23.2-7.6c-5.4,0.1-10.3,1.8-14.4,5.3c-5.7,5-7.1,13.8-3.5,21.2c5.3,10.9,20,15.9,30.9,10.5
			c6.4-3.2,8.5-8.3,6.2-15c-0.2-0.5-0.3-1.1-0.2-1.7c1.6,2.3,2.3,4.9,2,7.6c-0.5,5-3.7,8.1-8,10.1c-10.1,4.6-23.2,1.1-29.6-7.9
			c-9-12.5-2.4-28.2,12.8-30.5c8.2-1.3,16,0.6,23,4.8c7.2,4.4,14,9.4,20.9,14.3c17.6,12.5,36.2,23,56.1,31.3
			c2.8,1.1,5.5,2.3,8.3,3.5c0.4,0.2,0.8,0.4,1.2,0.7C251.7,554.1,251.6,554.3,251.6,554.4z"></path>
		<path class="st0 eKKeooAd_8" d="M113.9,119.5c0-1.3-0.1-2.6,0-4c0-0.5,0.3-1.1,0.7-1.3c0.4-0.2,1,0.1,1.4,0.3c0.2,0.1,0.4,0.4,0.6,0.7
			c5.2,7.4,12.5,9,20.8,7.3c3.4-0.7,6.8-1.9,10.1-3.1c14.3-5,36.1,4.5,39.3,24.2c2.2,13.8-3.5,24.2-16.7,28.9
			c-7.9,2.8-16,4.3-24.3,2.4c-6.6-1.4-10.9-5.2-12.9-11.7c-1.2-3.9-2.1-7.9-3.7-11.6c-1.3-3-3-6.1-5.4-8.4
			C117.1,136.7,113.7,128.9,113.9,119.5z M114.8,115.1c0,1.8,0,2.3,0,3.5c-0.1,9,2.1,17,9.1,23.4c3.9,3.5,6.2,8.2,7.5,13.3
			c0.6,2.2,1.3,4.4,1.8,6.6c2.1,8,7.5,11.9,15.5,12.8c8.3,1,16.1-0.8,23.7-3.9c4.2-1.7,7.4-4.6,10.2-8.1c4.5-5.9,4.8-12.5,3.4-19.5
			c-3.5-17.3-21.8-28.1-38.7-22.8c-3.6,1.2-7.3,2.5-11.1,3.1c-8,1.4-15-0.5-20-7.5C116.2,116,115.1,114.7,114.8,115.1z"></path>
		<path class="st0 eKKeooAd_9" d="M67.3,457.9c-0.1,0.2-0.7,0.7-0.9,0.9c-7.8,5-9.6,12.4-7.7,21c3.1,13.7,11.4,23.2,24,28.9
			c2.9,1.3,5.9,2.2,8.8,3.3c0.3,0.1,0.6,0.4,0.8,0.8c-10.1-2.5-19.2-6.9-26.2-15.4c-0.8,3.6-0.8,6.9-0.4,10.2c1,8.9,6.3,14.9,13,20
			c6.6,5,14.2,8.1,21.9,11.1c9.5,3.6,18.9,7.4,28.3,11.2c0.5,0.2,1,0.5,1.4,1.2c-0.3,0-0.7,0-1-0.1c-11.9-4.7-23.7-9.3-35.6-14.1
			c-7.1-2.8-13.6-6.6-19.4-11.8c-7-6.5-10.4-14.4-9.5-24.1c0.2-1.6,0.7-3.7,1.3-4.2l0,0c-3.7-5.4-7.6-13.6-8.3-20.2
			c-0.8-7.8,1.3-13.9,7.7-18.2c0.4-0.3,0.9-0.5,1.2-0.7C67,457.7,67.3,457.8,67.3,457.9z"></path>
		<path class="st0 eKKeooAd_10" d="M232.5,140.2c0,0,0.2-19.8-0.1-20.2c-0.3,0.5-0.5,0.9-0.7,1.3c-1.4,4.3-3.6,8.5-6.4,11.9
			c-2,2.1-4.6,3.7-7.7,3.8c-8.1,0.3-14.3-3-18.1-10.3c-2.9-5.6-4-11.6-3.7-17.9c0.3-4.6,2.7-8.2,5.5-11.6c1.7-2.1,3.3-4.3,4.4-6.7
			c2.3-4.9,1.4-9.5-2.1-13.5c-0.5-0.6-1-1.2-1.7-2.1c2.9-1.1,5.6-1.3,8.3-0.6c4.9,1.3,8.7,3.9,10.5,8.9c2.3,6.5,5.7,12.4,9.6,18.1
			c3.5,5.2,4,12.7,1.9,18.8 M203.4,75.3c0.4,0.4,0.8,0.9,1.1,1.3c3.7,4.5,4.5,9.5,1.9,14.7c-1.2,2.4-2.9,4.7-4.7,6.8
			c-3.4,4-5.9,8.4-5.4,13.6c0.4,3.8,1.1,7.9,2.4,11.4c2.2,6.5,6.2,12.1,13.5,13.5c7,1.4,13-2.1,16.1-7.8c1.5-3,1.9-4.1,3-7.4
			c2.2-7,2.8-13.6-1.6-19.8c-4.2-5.9-7.4-12.4-10-19.2C217.2,76.1,207.5,73.6,203.4,75.3z"></path>
		<path class="st0 eKKeooAd_11" d="M200,155.3c-1.2-0.2-2.3-0.3-3.3-0.6c-3.3-1-4.7-3.3-4-6.7c0.4-2,1.1-4.1,2-5.9c1.7-3.4,5.6-5.4,9.6-4.3
			c3.2,0.9,6.3,2.5,9.1,4.3c2.7,1.8,2.6,4.1,0.5,6.6c-0.5,0.6-1.1,1.2-1.7,1.8c1.6,1.7,1.7,2.8-0.1,4.1c-2.1,1.5-4.5,2.8-6.9,3.5
			C202.3,159,201,158,200,155.3z M198.7,154.3c4.6-0.4,8.4-1.4,11.7-3.6c1.2-0.8,2.2-1.9,3.1-3c1.6-2,1.4-3.5-0.6-5.1
			c-2.7-2.2-5.9-3.8-9.4-4.3c-3.4-0.5-6.3,0.8-7.9,3.7c-1.2,2.2-1.7,4.8-2.3,7.3c-0.4,1.7,0.5,3.1,2.1,3.8
			C196.6,153.8,197.9,154.1,198.7,154.3z M200,154.7c0.8,1.5,1.9,2.9,3.8,2.8c3.2-0.2,8.3-3.3,9-4.3c0.3-1.2-1.1-2.8-1.1-2.8l0,0
			C209,152.1,204,154.3,200,154.7z"></path>
		<path class="st0 eKKeooAd_12" d="M605.9,63.1c-0.8,0.3-2,0.7-3.4,1c0,0-0.3,0.1-0.5,0.1c-5.3,0.4-10.4-0.6-15-3.2c-0.7-0.4-1.3-0.7-2.4-1.3
			c0.2,1.1,0.3,2,0.3,2.4c1.4,9.6,2.5,13.5,3.5,21.4c0.1,1.3,0,0.8,0.1,2.2c-0.2,0-0.3,0.6-0.5,0.6c-0.8-5.4-1.6-12.2-2.5-17.5
			c-0.5-2.9-1.3-5.8-1.9-8.8c-0.1-0.6-0.2-1.1-0.2-1.9c2,1.4,5.1,3.2,9.3,4.4C598.3,64.1,603.2,63.6,605.9,63.1z"></path>
		<path class="st0 eKKeooAd_13" d="M588.6,88.2c0.1,1,0.1,1.9,0.2,2.9c-0.2,0-0.4,0-0.6,0c-0.1-1-0.1-1.9-0.2-2.9
			C588.2,88.2,588.4,88.2,588.6,88.2z"></path>
		<path class="st0 eKKeooAd_14" d="M588.6,88.2c-0.2,0-0.4,0-0.6,0c-0.1-1.1-0.1-2.2-0.2-3.2c0.2,0,0.4,0,0.6,0C588.5,86,588.6,87.1,588.6,88.2z
			"></path>
		<path class="st0 eKKeooAd_15" d="M588.2,91.1c0.2,0,0.3,0,0.5,0c0.1,0.6,0.1,0.9,0.1,1.3c0.1,1,0.1,1.9,0.1,2.9c-0.2-0.8-0.4-1.7-0.6-2.6
			C588.3,92.1,588.2,91.6,588.2,91.1z"></path>
		<path class="st0 eKKeooAd_16" d="M605.9,63.1c0,0.2,0,0.4,0,0.6c-1.3,0.2-2.5,0.3-3.8,0.5C603.4,63.8,604.6,63.5,605.9,63.1z"></path>
		<path class="st0 eKKeooAd_17" d="M768.7,359.1c15.5,0.7,28.8,5.8,39.6,16.8c6.9,7,10.3,15.5,11,25.2c2,28.6-20.4,48.6-43.8,51.1
			c-24.4,2.7-46.3-13.6-50.4-39.6c-2.2-13.7,1.9-25.8,10.2-36.5C743.8,365.1,755.1,359.6,768.7,359.1z M771.2,451.6
			c0.9,0,2.7,0,4.5-0.3c22.2-2.9,41-20.3,42.7-42.9c1-12.5-2.2-23.7-11.3-32.7c-9.4-9.3-20.9-14.3-34-15.5
			c-14.9-1.4-27.1,4.1-36.5,15.4c-9.2,11-13.3,23.8-10.6,38.2C730.1,435.2,747.1,451.5,771.2,451.6z"></path>
		<path class="st0 eKKeooAd_18" d="M193.8,228.4c-1.4-0.2-3.5-0.3-4.9-0.5c-4.3-0.5-8.5-0.1-12.6,1.1c-5.4,1.5-10.8,2.6-16.5,1.9
			c-8.9-1-15.5-5.6-20.1-12.9c-2.6-4.1-4.3-8.8-6.3-13.3c-0.2-0.5,0-1.6,0.1-1.8l1.2,1.1c8.9,9.7,12.3,10.9,20.6,12.8
			c3.6,0.8,7.5,0.9,11.2,1.1c2.7,0.2,5.4-0.1,8.1,0.1c5.7,0.3,10.2,3.6,14.6,6.8C190.6,225.8,192.4,227.3,193.8,228.4L193.8,228.4z
			 M192.8,228L192.8,228c-2.2-1.5-6.5-4.2-8.7-5.7c-3.6-2.4-7.5-3.7-11.9-3.6c-2.2,0-9.1-0.9-11.3-0.8c-9.7-0.7-13.6-2.1-21.1-8.6
			c-1.8-1.6-6.2-5.8-6.2-5.8l0,0c1.3,3,2.8,7.5,4.4,10.4c7.1,13.4,18,18.6,32.9,15.5C177.4,228,183.7,226,192.8,228z"></path>
		<path class="st0 eKKeooAd_19" d="M164.2,239.4c0,0,1.3,0,1.4,0.1c4.9,3.3,10.2,3.4,15.7,2.2c4.9-1,9.7-2.3,14.8-1.6c5.4,0.7,10.2,3,14.5,6.4
			c-0.5,0-1,0.1-1.4,0c-4-0.8-8-0.3-11.9,1c-3.5,1.2-7,2.4-10.5,3c-6.6,1.1-12.3-1.3-17.2-5.5C167.8,243.5,165.9,241.1,164.2,239.4
			L164.2,239.4z M207.8,245.8l1.3,0.2l-1.5-1c-0.3-0.2-1.3-0.8-1.3-0.8c-7.2-4.2-14.5-4.1-22.4-2.2c-5.3,1.3-11.7,1.4-15.7-0.5
			l-3.3-1.7l2.2,2.6c4,4.7,9.8,7.5,16,8c4.5,0.3,8.7-1.6,12.8-3C199.8,246.1,203.8,245.4,207.8,245.8z"></path>
		<path class="st0 eKKeooAd_20" d="M200.9,198.3c0-3.4,0.6-4.8,1.8-5.7c2.2-1.4,4.2-1.4,6.2,0.3c3,2.6,4,7.5,2.3,11c-1.8,3.7-6.7,4.1-8.7,0.7
			C201.3,202.7,201.1,201.4,200.9,198.3z M201.3,198.4c0,1.9,0.6,4,1.4,5.8c0.7,1.6,2.4,2.1,4.2,2c1.8-0.1,3.1-1.2,3.8-2.9
			c1.3-3,0.5-7.1-1.8-9.4c-1.2-1.2-2.5-1.9-4.4-1.2C201.9,193.8,201.7,194.6,201.3,198.4z"></path>
		<path class="st0 eKKeooAd_21" d="M220.2,221.9c0,0.7-0.1,1.3-0.3,1.8c-0.6,1.8-2.7,2.2-3.8,0.7c-1.2-1.5-1.6-3.2-1.1-5.1
			c0.3-1.1,0.9-1.9,2.2-1.9s2.1,0.6,2.4,1.7C219.9,220,220.3,220.9,220.2,221.9z"></path>
		<path class="st0 eKKeooAd_22" d="M218.7,212c0,0.9-0.4,2.1-1,2.1c-1.2,0.1-1.7-0.9-1.7-2.1c0-0.9,0.5-1.6,1.5-1.8
			C218.4,210.3,218.7,212,218.7,212z"></path>
		<path class="st0 eKKeooAd_23" d="M338.2,155.2c1.7,3.1,3.5,6.2,5.2,9.4c11.9,21.6,23.8,43.2,35.9,64.6c1.8,3.2,1.8,5.8,1.8,9.9
			c-0.4,7.8-0.1,15.7-0.2,23.6c-0.1,0.6-0.2,0.9-0.4,1.8c-0.6-0.5-0.7-0.6-1-1c-13.8-21.9-27.3-43.9-41.1-65.9
			c-0.4-0.7-0.6-1.7-0.6-2.5c0-12.9-0.2-25.8-0.2-38.7c0-0.4,0-0.7,0.1-1.1C337.9,155.2,338,155.2,338.2,155.2z M379.9,263.3
			c0.2,0.2,0.6,0.1,0.6-0.2c0.2-8.8,0-18.2,0.1-27c0-1.5-0.1-3.2-0.8-4.5c-13.4-24.1-26.9-48.2-40.2-72.3c-0.3-0.5-0.7-1.2-1.2-2.1
			c0,1.2,0,2.1,0,2.8c0,11,0,22.1-0.2,33.1c0,2.6,0.6,4.6,2,6.7c10.5,16.6,20.9,33.2,31.3,49.7C374.2,253.8,377.1,258.9,379.9,263.3
			z"></path>
		<path class="st0 eKKeooAd_24" d="M596.2,479.3c0,0-0.3,0.9-0.3,0.9c-3.2,7.1-6.3,14.1-9.5,21.2c-1,2.3-2.4,2.4-3.9,0.4
			c-4.8-6.4-9.5-12.7-14.3-19.1c-1.2-1.6-0.9-2.5,1.1-2.8c4.1-0.7,8.3-1.1,12.4-1.7c3.6-0.5,7.2-0.9,10.9-1.3
			C594.7,476.6,596.2,478,596.2,479.3z M568.4,480.8c-0.1,0.2-0.2,0.4-0.3,0.6c5.4,7,10.7,14.3,16.5,21.4l1-1.9
			c3.1-6.9,6.5-13.7,9.5-20.6c0.8-1.8-0.1-2.7-2.1-2.7c-0.5,0-1,0-1.4,0.1c-5.8,0.7-11.5,1.4-17.3,2.2
			C572.4,480.2,570.4,480.5,568.4,480.8z"></path>
		<path class="st0 eKKeooAd_25" d="M163,166.3c-6.2-0.4-12.8-2.6-17-9.3c-5.6-9.1-3.5-21.8,5-28.2c3-2.2,6.8-2.8,10.7-2.3
			c12.1,1.5,21.8,15.6,18.7,27.4C178.4,161.5,172.1,166.4,163,166.3z M165.3,165.9c-4.8,0.7-10.8-5.4-12.6-9
			c0.6,0.3,0.9,0.5,1.4,0.8c1.8,0.7,4.5,0,5.9-1.5c1.4-2.4,1.2-6.5-0.9-9.1c-2-2.4-5.5-2.4-7.6-1.2l-1.2,0.7l0.4-1.9
			c0.7-3,1.1-4.2,2.6-5.7c5.3-5.5,14.3-6,20.7-1.9c0.5,0.3,4.6,5.2,5.5,5.8l-2.9-6.2c-3.3-4.8-8-7.9-13.7-9.1
			c-4.7-1-9.2-0.1-12.8,3.1c-7.8,7.2-12.2,22.1,3.2,33.2 M154.6,158.4c3.3,5.3,9.7,8.1,15,6.4c10.4-3.3,14.2-17.5,7.1-25.2
			c-7.8-8.6-18.5-5.9-23.5,0.6c-1.3,1.4-2.2,3.1-2.2,5.3c3.2-1.8,6.1-1.7,8.4,1.1c2.2,2.6,2.9,5.5,1.6,8.7
			C159.7,158,157.6,159.1,154.6,158.4z"></path>
		<path class="st0 eKKeooAd_26" d="M212.6,99.7c5.8,0.1,10.1,2.2,12.7,7c3.6,6.6,3.7,14.8,0.7,20.2c-3.5,6.2-9.1,7-15.2,4.7
			c-7.4-2.7-13.7-17.3-9.9-25.2C203.3,101.5,207.9,99.9,212.6,99.7z M212.9,108.8c0,0-1.5,0.4-2.8,1.5c-1.5,1.8-2.5,4.9-3,7
			c-1.1,4.8,1,9.6,4.8,11.9c4.8,2.6,11.1-0.2,12.6-5.6c0.3-1.8,0.3-3.7,0-5.5c-0.3-2.1-0.8-4.1-2.6-6c-0.4,3.8-3,4.5-5.8,4.6
			c-0.2,2.1-1.6,4.9-1.8,7c0.5-0.6,2.5-1.4,3.2-1.4c-0.5-1.6-0.1-2.9,1.4-3.4c0.8-0.2,2.5,0.1,2.5,0.3c0.2,1.3,0,2.8-0.3,4.2
			l-0.1,0.4c0,0,0.7,3.1-0.8,4.6c-1.5,1.5-4.2,2-5.8,1c-0.6-0.4-1.4-1-1.5-1.7c-0.2-1.1,0.2-2.9,0.8-3.7c-2,0-3.6-1.3-4.4-3
			c-0.5-2,0.5-5.1,3.7-6.2c-0.7-1.3-0.2-3.8,0.9-5.4l0.8-1.1C214.5,108.4,212.9,108.8,212.9,108.8z M216.7,129.2
			c2.2,0,4.2-1.8,4.3-3.6c0-1.4-1.3-2.5-2.9-2.5c-2.6,0.1-4.6,1.7-4.5,3.6C213.5,128.2,214.9,129.3,216.7,129.2z M209.3,118.5
			c-0.3,1.6,0.4,4.5,2.4,5c1.6,0.4,2.8-0.7,3.3-2.8c1.3-4,0.2-5.2-1.4-5.7C212.5,114.8,209.7,116.3,209.3,118.5z M219.8,120.5
			c-0.3-0.1-0.7,0-1,0.2c-0.2,0.3-0.2,0.4-0.2,0.7c0.1,0.3,0.5,0.6,0.8,0.5c0.3,0,0.8-0.3,0.8-0.7
			C220.3,121,220.1,120.7,219.8,120.5z"></path>
		<path class="st0 eKKeooAd_27" d="M769.1,371.9c12.7,0.4,23.8,4.7,31.5,15.3c8.8,12.1,8,29.1-1.5,41.4c-9.6,12.4-26.6,16.6-41.5,10.2
			c-14.7-6.3-22.8-20.6-21.2-36.5c0.8-7.6,3.8-14.1,8.5-19.8C751.2,374.9,759.5,371.8,769.1,371.9z M772.1,372.7
			c-12.6,0-18.8,2.6-24.7,8.4c-14.9,14.5-12.9,39.9,2,51.8c16.9,13.5,46.6,10.8,54.9-16.5c4-13.2,1-25.1-9.5-34.5
			C787.6,375.5,778.8,372.8,772.1,372.7z"></path>
		<path class="st0 eKKeooAd_28" d="M177.2,157 M167.9,158.5c-2.3,1.8-3.5,2.2-4.7,1c-0.7-0.7-1.2-2-1.1-2.9c0.1-1.3,2.3-2.2,4.1-2
			c0.6-1.4,3.4-4.4,4.5-4.8c-1.9,0.2-5.9-0.2-7.1-1c-2.6-2.3-2.2-5.8,0.6-7.8c2.3-1.6,4.8-0.9,7.5-0.1c2,0.4,3.3,3.6,2.6,5.7
			c-0.5,1.2-2.4,3.1-3.6,3.5 M168.6,140.6c0,0-1.6,0.2-2.3,0.3c-2.8,0.8-4.4,2.8-4,5.3s3.4,3.7,5.6,3.7c1.8,0.1,2.7-0.4,3.4-0.7
			c1.5-1,3-2.4,3-4.6c0-2-1.3-2.9-2.9-3.4C170.4,140.9,168.6,140.6,168.6,140.6z M172.6,150.2c-3.3,0-5.9,2.1-5.9,4.8
			c0,2.6,1.8,4.4,4.4,4.5c3.1,0,5.4-2.1,5.5-5C176.7,151.9,175.1,150.2,172.6,150.2z M165.9,157.4c-0.1-0.6-0.6-1-1-1
			c-0.6-0.1-1.4,0.1-1.4,1.2c0,0.6,0.7,1.2,1.2,1.2C165.2,158.7,165.9,158.2,165.9,157.4z"></path>
	</g>
</g>
<style data-made-with="vivus-instant">.eKKeooAd_0{stroke-dasharray:953 955;stroke-dashoffset:954;animation:eKKeooAd_draw_0 8400ms ease-in-out 0ms infinite,eKKeooAd_fade 8400ms linear 0ms infinite;}.eKKeooAd_1{stroke-dasharray:6441 6443;stroke-dashoffset:6442;animation:eKKeooAd_draw_1 8400ms ease-in-out 0ms infinite,eKKeooAd_fade 8400ms linear 0ms infinite;}.eKKeooAd_2{stroke-dasharray:2862 2864;stroke-dashoffset:2863;animation:eKKeooAd_draw_2 8400ms ease-in-out 0ms infinite,eKKeooAd_fade 8400ms linear 0ms infinite;}.eKKeooAd_3{stroke-dasharray:1203 1205;stroke-dashoffset:1204;animation:eKKeooAd_draw_3 8400ms ease-in-out 0ms infinite,eKKeooAd_fade 8400ms linear 0ms infinite;}.eKKeooAd_4{stroke-dasharray:1150 1152;stroke-dashoffset:1151;animation:eKKeooAd_draw_4 8400ms ease-in-out 0ms infinite,eKKeooAd_fade 8400ms linear 0ms infinite;}.eKKeooAd_5{stroke-dasharray:1051 1053;stroke-dashoffset:1052;animation:eKKeooAd_draw_5 8400ms ease-in-out 0ms infinite,eKKeooAd_fade 8400ms linear 0ms infinite;}.eKKeooAd_6{stroke-dasharray:801 803;stroke-dashoffset:802;animation:eKKeooAd_draw_6 8400ms ease-in-out 0ms infinite,eKKeooAd_fade 8400ms linear 0ms infinite;}.eKKeooAd_7{stroke-dasharray:434 436;stroke-dashoffset:435;animation:eKKeooAd_draw_7 8400ms ease-in-out 0ms infinite,eKKeooAd_fade 8400ms linear 0ms infinite;}.eKKeooAd_8{stroke-dasharray:441 443;stroke-dashoffset:442;animation:eKKeooAd_draw_8 8400ms ease-in-out 0ms infinite,eKKeooAd_fade 8400ms linear 0ms infinite;}.eKKeooAd_9{stroke-dasharray:337 339;stroke-dashoffset:338;animation:eKKeooAd_draw_9 8400ms ease-in-out 0ms infinite,eKKeooAd_fade 8400ms linear 0ms infinite;}.eKKeooAd_10{stroke-dasharray:348 350;stroke-dashoffset:349;animation:eKKeooAd_draw_10 8400ms ease-in-out 0ms infinite,eKKeooAd_fade 8400ms linear 0ms infinite;}.eKKeooAd_11{stroke-dasharray:159 161;stroke-dashoffset:160;animation:eKKeooAd_draw_11 8400ms ease-in-out 0ms infinite,eKKeooAd_fade 8400ms linear 0ms infinite;}.eKKeooAd_12{stroke-dasharray:102 104;stroke-dashoffset:103;animation:eKKeooAd_draw_12 8400ms ease-in-out 0ms infinite,eKKeooAd_fade 8400ms linear 0ms infinite;}.eKKeooAd_13{stroke-dasharray:8 10;stroke-dashoffset:9;animation:eKKeooAd_draw_13 8400ms ease-in-out 0ms infinite,eKKeooAd_fade 8400ms linear 0ms infinite;}.eKKeooAd_14{stroke-dasharray:8 10;stroke-dashoffset:9;animation:eKKeooAd_draw_14 8400ms ease-in-out 0ms infinite,eKKeooAd_fade 8400ms linear 0ms infinite;}.eKKeooAd_15{stroke-dasharray:9 11;stroke-dashoffset:10;animation:eKKeooAd_draw_15 8400ms ease-in-out 0ms infinite,eKKeooAd_fade 8400ms linear 0ms infinite;}.eKKeooAd_16{stroke-dasharray:9 11;stroke-dashoffset:10;animation:eKKeooAd_draw_16 8400ms ease-in-out 0ms infinite,eKKeooAd_fade 8400ms linear 0ms infinite;}.eKKeooAd_17{stroke-dasharray:586 588;stroke-dashoffset:587;animation:eKKeooAd_draw_17 8400ms ease-in-out 0ms infinite,eKKeooAd_fade 8400ms linear 0ms infinite;}.eKKeooAd_18{stroke-dasharray:283 285;stroke-dashoffset:284;animation:eKKeooAd_draw_18 8400ms ease-in-out 0ms infinite,eKKeooAd_fade 8400ms linear 0ms infinite;}.eKKeooAd_19{stroke-dasharray:195 197;stroke-dashoffset:196;animation:eKKeooAd_draw_19 8400ms ease-in-out 0ms infinite,eKKeooAd_fade 8400ms linear 0ms infinite;}.eKKeooAd_20{stroke-dasharray:81 83;stroke-dashoffset:82;animation:eKKeooAd_draw_20 8400ms ease-in-out 0ms infinite,eKKeooAd_fade 8400ms linear 0ms infinite;}.eKKeooAd_21{stroke-dasharray:22 24;stroke-dashoffset:23;animation:eKKeooAd_draw_21 8400ms ease-in-out 0ms infinite,eKKeooAd_fade 8400ms linear 0ms infinite;}.eKKeooAd_22{stroke-dasharray:11 13;stroke-dashoffset:12;animation:eKKeooAd_draw_22 8400ms ease-in-out 0ms infinite,eKKeooAd_fade 8400ms linear 0ms infinite;}.eKKeooAd_23{stroke-dasharray:478 480;stroke-dashoffset:479;animation:eKKeooAd_draw_23 8400ms ease-in-out 0ms infinite,eKKeooAd_fade 8400ms linear 0ms infinite;}.eKKeooAd_24{stroke-dasharray:168 170;stroke-dashoffset:169;animation:eKKeooAd_draw_24 8400ms ease-in-out 0ms infinite,eKKeooAd_fade 8400ms linear 0ms infinite;}.eKKeooAd_25{stroke-dasharray:390 392;stroke-dashoffset:391;animation:eKKeooAd_draw_25 8400ms ease-in-out 0ms infinite,eKKeooAd_fade 8400ms linear 0ms infinite;}.eKKeooAd_26{stroke-dasharray:270 272;stroke-dashoffset:271;animation:eKKeooAd_draw_26 8400ms ease-in-out 0ms infinite,eKKeooAd_fade 8400ms linear 0ms infinite;}.eKKeooAd_27{stroke-dasharray:438 440;stroke-dashoffset:439;animation:eKKeooAd_draw_27 8400ms ease-in-out 0ms infinite,eKKeooAd_fade 8400ms linear 0ms infinite;}.eKKeooAd_28{stroke-dasharray:129 131;stroke-dashoffset:130;animation:eKKeooAd_draw_28 8400ms ease-in-out 0ms infinite,eKKeooAd_fade 8400ms linear 0ms infinite;}@keyframes eKKeooAd_draw{100%{stroke-dashoffset:0;}}@keyframes eKKeooAd_fade{0%{stroke-opacity:1;}95.23809523809524%{stroke-opacity:1;}100%{stroke-opacity:0;}}@keyframes eKKeooAd_draw_0{0%{stroke-dashoffset: 954}59.523809523809526%{ stroke-dashoffset: 0;}100%{ stroke-dashoffset: 0;}}@keyframes eKKeooAd_draw_1{0%{stroke-dashoffset: 6442}59.523809523809526%{ stroke-dashoffset: 0;}100%{ stroke-dashoffset: 0;}}@keyframes eKKeooAd_draw_2{0%{stroke-dashoffset: 2863}59.523809523809526%{ stroke-dashoffset: 0;}100%{ stroke-dashoffset: 0;}}@keyframes eKKeooAd_draw_3{0%{stroke-dashoffset: 1204}59.523809523809526%{ stroke-dashoffset: 0;}100%{ stroke-dashoffset: 0;}}@keyframes eKKeooAd_draw_4{0%{stroke-dashoffset: 1151}59.523809523809526%{ stroke-dashoffset: 0;}100%{ stroke-dashoffset: 0;}}@keyframes eKKeooAd_draw_5{0%{stroke-dashoffset: 1052}59.523809523809526%{ stroke-dashoffset: 0;}100%{ stroke-dashoffset: 0;}}@keyframes eKKeooAd_draw_6{0%{stroke-dashoffset: 802}59.523809523809526%{ stroke-dashoffset: 0;}100%{ stroke-dashoffset: 0;}}@keyframes eKKeooAd_draw_7{0%{stroke-dashoffset: 435}59.523809523809526%{ stroke-dashoffset: 0;}100%{ stroke-dashoffset: 0;}}@keyframes eKKeooAd_draw_8{0%{stroke-dashoffset: 442}59.523809523809526%{ stroke-dashoffset: 0;}100%{ stroke-dashoffset: 0;}}@keyframes eKKeooAd_draw_9{0%{stroke-dashoffset: 338}59.523809523809526%{ stroke-dashoffset: 0;}100%{ stroke-dashoffset: 0;}}@keyframes eKKeooAd_draw_10{0%{stroke-dashoffset: 349}59.523809523809526%{ stroke-dashoffset: 0;}100%{ stroke-dashoffset: 0;}}@keyframes eKKeooAd_draw_11{0%{stroke-dashoffset: 160}59.523809523809526%{ stroke-dashoffset: 0;}100%{ stroke-dashoffset: 0;}}@keyframes eKKeooAd_draw_12{0%{stroke-dashoffset: 103}59.523809523809526%{ stroke-dashoffset: 0;}100%{ stroke-dashoffset: 0;}}@keyframes eKKeooAd_draw_13{0%{stroke-dashoffset: 9}59.523809523809526%{ stroke-dashoffset: 0;}100%{ stroke-dashoffset: 0;}}@keyframes eKKeooAd_draw_14{0%{stroke-dashoffset: 9}59.523809523809526%{ stroke-dashoffset: 0;}100%{ stroke-dashoffset: 0;}}@keyframes eKKeooAd_draw_15{0%{stroke-dashoffset: 10}59.523809523809526%{ stroke-dashoffset: 0;}100%{ stroke-dashoffset: 0;}}@keyframes eKKeooAd_draw_16{0%{stroke-dashoffset: 10}59.523809523809526%{ stroke-dashoffset: 0;}100%{ stroke-dashoffset: 0;}}@keyframes eKKeooAd_draw_17{0%{stroke-dashoffset: 587}59.523809523809526%{ stroke-dashoffset: 0;}100%{ stroke-dashoffset: 0;}}@keyframes eKKeooAd_draw_18{0%{stroke-dashoffset: 284}59.523809523809526%{ stroke-dashoffset: 0;}100%{ stroke-dashoffset: 0;}}@keyframes eKKeooAd_draw_19{0%{stroke-dashoffset: 196}59.523809523809526%{ stroke-dashoffset: 0;}100%{ stroke-dashoffset: 0;}}@keyframes eKKeooAd_draw_20{0%{stroke-dashoffset: 82}59.523809523809526%{ stroke-dashoffset: 0;}100%{ stroke-dashoffset: 0;}}@keyframes eKKeooAd_draw_21{0%{stroke-dashoffset: 23}59.523809523809526%{ stroke-dashoffset: 0;}100%{ stroke-dashoffset: 0;}}@keyframes eKKeooAd_draw_22{0%{stroke-dashoffset: 12}59.523809523809526%{ stroke-dashoffset: 0;}100%{ stroke-dashoffset: 0;}}@keyframes eKKeooAd_draw_23{0%{stroke-dashoffset: 479}59.523809523809526%{ stroke-dashoffset: 0;}100%{ stroke-dashoffset: 0;}}@keyframes eKKeooAd_draw_24{0%{stroke-dashoffset: 169}59.523809523809526%{ stroke-dashoffset: 0;}100%{ stroke-dashoffset: 0;}}@keyframes eKKeooAd_draw_25{0%{stroke-dashoffset: 391}59.523809523809526%{ stroke-dashoffset: 0;}100%{ stroke-dashoffset: 0;}}@keyframes eKKeooAd_draw_26{0%{stroke-dashoffset: 271}59.523809523809526%{ stroke-dashoffset: 0;}100%{ stroke-dashoffset: 0;}}@keyframes eKKeooAd_draw_27{0%{stroke-dashoffset: 439}59.523809523809526%{ stroke-dashoffset: 0;}100%{ stroke-dashoffset: 0;}}@keyframes eKKeooAd_draw_28{0%{stroke-dashoffset: 130}59.523809523809526%{ stroke-dashoffset: 0;}100%{ stroke-dashoffset: 0;}}</style></svg>
