<?xml version="1.0" encoding="utf-8"?>
<!-- Generator: Adobe Illustrator 23.0.1, SVG Export Plug-In . SVG Version: 6.00 Build 0)  -->
<svg version="1.1" id="Layer_1" xmlns="http://www.w3.org/2000/svg" xmlns:xlink="http://www.w3.org/1999/xlink" x="0px" y="0px"
	 viewBox="0 0 130 130" style="enable-background:new 0 0 130 130;" xml:space="preserve">
<style type="text/css">
	.st0{fill:none;}
</style>
<path class="st0" d="M-6.5-7h144v144h-144V-7z"/>
<path d="M65.5,5c-33.1,0-60,26.9-60,60s26.9,60,60,60s60-26.9,60-60S98.6,5,65.5,5z M35.9,102.7C38.5,97.3,54.2,92,65.5,92
	s27.1,5.3,29.6,10.7c-8.2,6.5-18.4,10.3-29.6,10.3S44.1,109.2,35.9,102.7z M103.7,94c-8.6-10.5-29.4-14-38.2-14s-29.6,3.5-38.2,14
	c-6.1-8-9.8-18.1-9.8-29c0-26.5,21.5-48,48-48s48,21.5,48,48C113.5,75.9,109.8,85.9,103.7,94z M65.5,29c-11.6,0-21,9.4-21,21
	s9.4,21,21,21s21-9.4,21-21S77.1,29,65.5,29z M65.5,59c-5,0-9-4-9-9s4-9,9-9s9,4,9,9S70.5,59,65.5,59z"/>
</svg>
