<?xml version="1.0" encoding="utf-8"?>
<!-- Generator: Adobe Illustrator 23.0.1, SVG Export Plug-In . SVG Version: 6.00 Build 0)  -->
<svg version="1.1" id="Layer_1" xmlns="http://www.w3.org/2000/svg" xmlns:xlink="http://www.w3.org/1999/xlink" x="0px" y="0px"
	 viewBox="0 0 256.3 251.1" style="enable-background:new 0 0 256.3 251.1;" xml:space="preserve">
<style type="text/css">
	.st0{fill:none;stroke:#ADB3BC;stroke-width:4;stroke-miterlimit:10;}
	.st1{fill:#ADB3BC;}
</style>
<g>
	<g>
		<path class="st0" d="M242.7,90.1c-13,0-13-0.3-13-4.1c0.2-5.7,0.2-19,0.2-19c0.3-2.6,2-3.7,4-5.4c2.5-2.1,3-4.2,2.9-7
			c-0.1-3.8,0-7.6,0-11.8c-8.3,2.3-16.1,4.5-24,6.6c-10,2.7-20.1,5.1-30.1,8c-16.4,4.6-30.4,9-46.9,13.5c-2.9,0.8-8.8,0.8-11.9,0
			C102.7,65.1,81.5,59,60.3,53c-15.8-4.4-46.6-13.4-46.6-13.4l-5.6-1.9l8.5-2.5c16.2-4.5,32.5-9,48.8-13.5
			c8.1-2.2,16.7-4.5,33.8-9.4C111.3,8.9,121.3,6,128.4,4l15.8,3.8l28.1,7.5l29.5,7.7l34.8,10c0,0,8.9,2.8,13.4,4.2v1.4
			c-8.9,1.6-7.6,7.8-7.6,7.8s1.7,13,3.9,14.8c1.2,1,3.3,2.6,3.4,6.2c0.2,6.5,0,13-0.1,19.5c0,0.3,0.2,3.1-2.8,3.2"/>
		<path class="st0" d="M245.7,87.4l2,7c0,0,2.1,8,2.2,10.6c0.3,3,0,7.4-0.8,10.5c-3.4,15.3-4.7,30.7-2.2,46.2c0.9,5.4,2,10.8,3,16.2
			c0.4,2.3,1.3,7.1,1.5,10.2c0.5,6.1-0.4,9.1-1.7,12.7c-1.5,3.4-4.4,8.2-9.2,12.7c-10.3,9.8-24.2,13.4-39,15.1
			c-21.2,2.4-39.9-3-54.9-18.7c-11.6-12.2-15.7-26.4-10.9-43.1c4.5-15.4,11.7-27.7,21.7-37c4.1-3.8,19.2-17.5,40.5-19.6
			c8.6-0.8,12.8-0.3,20-1.8C232.1,105.7,239.5,95.6,245.7,87.4z M153.9,174.1c-0.8,22.1,17.9,40.2,40.1,39.8
			c22.7-0.5,39.3-16.5,39.5-39.5c0.2-23.1-17.1-40-40-40.2C171.7,134,153.1,152.1,153.9,174.1z"/>
		<path class="st0" d="M38.7,108.6c7.3,1.5,11.4,1,20,1.8c21.3,2,36.4,15.8,40.5,19.6c10,9.3,17.2,21.6,21.7,37
			c4.8,16.6,0.7,30.9-10.9,43.1c-14.9,15.7-33.7,21.2-54.9,18.7c-14.8-1.7-28.7-5.4-39-15.1c-4.8-4.5-7.7-9.3-9.2-12.7
			c-1.3-3.6-2.2-6.5-1.7-12.7c0.2-3.1,1.1-7.9,1.5-10.2c1-5.4,2.1-10.8,3-16.2c2.5-15.6,1.2-31-2.2-46.2c-0.7-3.2-1.1-7.6-0.8-10.5
			C7,102.3,9,94.4,9,94.4l2-7C17.3,95.6,24.6,105.7,38.7,108.6z M63.3,134.2c-22.9,0.2-40.2,17.1-40,40.2s16.8,39.1,39.5,39.5
			c22.2,0.5,40.9-17.7,40.1-39.8C103.7,152.1,85.1,134,63.3,134.2z"/>
		<path class="st1" d="M127.9,248.3c-4.1-7.3-8.3-14.6-12.1-22c-0.6-1.2-0.6-3.5,0.4-4.5c3.7-4,8-7.8,12.2-11.8
			c4.4,4,8.7,7.8,12.8,11.8c0.7,0.7,1,2.8,0.5,3.7c-4.1,7.7-8.5,15.2-12.7,22.8C128.5,248.7,128.2,248.6,127.9,248.3z"/>
		<path class="st1" d="M128.6,147.4c-2.6-6.4-11.5-25.7-33.3-38.5c-19.4-11.4-38-11.2-45.2-10.7v-1.8c0-11.6,0-23.3,0-35.6
			c7.3,2,14.2,4,21.1,5.8c17.8,4.9,35.7,9.5,53.4,14.8c3.6,1.4,7.9,1.9,12.1-0.1L188.4,65l18.6-5.9l0.1,35.4c0,1.2,0,2.5,0,3.7
			c-8.8,0.5-23.4,2.5-39.2,10.8C144.9,121,133.1,139.3,128.6,147.4z"/>
		<path class="st1" d="M220.1,165c-4.8,3.2-9.1,6.9-15.2,2.8c-2.5-1.7-2.1-8.9-1.2-10.2c1.6-2.1,5.3-4.8,12.4-3.2
			c-2.7-11.7-18.3-15.7-28.5-13c-16.5,4.3-22.8,17.8-19.9,31.7c3.1,14.7,14.6,22.6,30.8,20.7C210.7,192.5,222.2,180.1,220.1,165z"/>
		<path class="st1" d="M33.3,165c4.8,3.2,9.1,6.9,15.2,2.8c2.5-1.7,2.1-8.9,1.2-10.2c-1.6-2.1-5.3-4.8-12.4-3.2
			c2.7-11.7,18.3-15.7,28.5-13c16.5,4.3,22.8,17.8,19.9,31.7c-3.1,14.7-14.6,22.6-30.8,20.7C42.6,192.5,31.1,180.1,33.3,165z"/>
	</g>
</g>
<polygon class="st0" points="241.9,90.1 242.1,90.1 242,90.2 "/>
</svg>
