<?xml version="1.0" encoding="utf-8"?>
<!-- Generator: Adobe Illustrator 23.0.1, SVG Export Plug-In . SVG Version: 6.00 Build 0)  -->
<svg version="1.1" id="Layer_1" xmlns="http://www.w3.org/2000/svg" xmlns:xlink="http://www.w3.org/1999/xlink" x="0px" y="0px"
	 viewBox="0 0 400.3 508.6" style="enable-background:new 0 0 400.3 508.6;" xml:space="preserve">
<style type="text/css">
	.st0{fill:#ADB3BC;}
</style>
<g>
	<g>
		<path class="st0" d="M363,182.8c14.5-0.5,28.4,13.8,28.3,28.4c-0.2,87.7-0.2,175.5,0,263.2c0,14.4-13.7,28.1-28.1,28.1
			c-109.7-0.1-219.3-0.1-329,0c-14.3,0-27.9-13.6-27.8-27.8c0.1-88.1,0.1-176.1,0-264.2c0-14.2,13.4-27.7,27.5-27.6
			c10,0.1,20.1,0,30.8,0c0-18.8-0.1-37,0-55.3c0.2-25.2,9.1-47.5,23.8-67.6c17.3-23.6,40.7-38.2,68.2-47.3c18.5-6.1,37.6-7,56.5-5.4
			c26.5,2.2,50.6,12.3,71.6,28.7c19.7,15.3,33.9,35.2,41.5,59c3.3,10.3,4.8,21.5,5.3,32.4c0.8,18.2,0.2,36.5,0.2,55.1 M371.1,215.3
			c-0.9-4.5-1.2-9.5-6.6-11.1c-2.8-0.8-5.8-1.2-8.8-1.2c-52.2-0.1-104.5-0.1-156.7-0.1c-52.6,0-105.2,0-157.7,0
			c-9.5,0-12.5,2.2-14.4,10.6c-0.4,1.8-0.3,3.7-0.3,5.5c0,82.4,0,164.8,0,247.2c0,0-0.1,2.4,0,3.5c0.4,4.7,1.1,9.8,6.9,11.4
			c2.8,0.8,5.8,1.1,8.8,1.1c104.3,0.1,208.7,0,313,0c0,0,2.4,0,3.5,0c1.8,0,9.8-1.2,11.3-7c0.7-2.8,1.1-5.8,1.1-8.8 M84.8,182.5
			c76,0,149.8-0.2,226.5-0.2c0,0,0.3-45.1-1.8-67.4c-0.9-9.3-4.9-18.7-9.2-27.2c-6.4-12.7-14.6-24.4-26.5-32.7
			c-9.2-6.5-18.7-12.8-28.8-17.6c-16.8-8-35-10.9-53.6-9.2c-8.3,0.8-16.7,1.8-24.7,4c-22.5,5.9-41.5,17.6-56.7,35.5
			c-7.8,9.2-13.6,19.5-18.3,30.7c-5.4,12.9-6.1,26.6-6.7,40.2C84.3,153,84.8,167.6,84.8,182.5z"/>
		<path class="st0" d="M198.1,420c-8,0-16.1,0-24.1,0c-5.3,0-9.2-3.6-8.7-8.9c1-11.3,2.4-22.6,3.8-33.9c1-8.3,2.3-16.6,3-25
			c0.1-1.5-1.1-3.7-2.4-4.7c-19.9-15.3-23.5-41-10.1-60.8c5.8-8.5,14.7-13.9,24.5-17.5c8.8-3.2,17.8-3.6,27.3-0.7
			c8.5,2.7,27.9,9.4,31.5,31.9c2.9,18.6-1.3,33.9-15.9,46.2c-1.4,1.2-2.7,3.8-2.5,5.6c1.4,11.6,3.3,23.1,4.7,34.6
			c1,8,1.6,16.1,2.1,24.2c0.3,5.3-3.5,8.9-8.8,8.9C214.5,420,206.3,420,198.1,420z M205.3,365.3l-1-8.6l-1.2-12.8
			c-0.4-3.4,1.3-7.4,7-11c7.7-5.4,15-19.1,11.7-28c-5.2-13.8-22.9-19.3-35.6-13c-11.5,5.7-17.6,20.2-9.7,31.2
			c2.8,3.9,7.4,6.8,11.6,9.6c4.2,2.8,7.5,5.7,6.5,11.4c-0.9,4.8-1.4,9.8-2,14.6c-1.3,9.6-2.7,19.2-3.9,28.8c-0.5,4-0.7,8-1,12.1
			c7.6,0,14.6,0,21.8,0"/>
	</g>
</g>
</svg>
