<?xml version="1.0" encoding="utf-8"?>
<!-- Generator: Adobe Illustrator 23.0.1, SVG Export Plug-In . SVG Version: 6.00 Build 0)  -->
<svg version="1.1" id="Layer_1" xmlns="http://www.w3.org/2000/svg" xmlns:xlink="http://www.w3.org/1999/xlink" x="0px" y="0px"
	 viewBox="0 0 502.06 430.06" style="enable-background:new 0 0 502.06 430.06;" xml:space="preserve">
<style type="text/css">
	.st0{fill:#F0F0F0;}
	.st1{fill:#E71D51;}
	.st2{fill:#FF3551;}
	.st3{fill:#F7F7F7;}
	.st4{fill:#0BA9C9;}
	.st5{fill:#00839F;}
	.st6{fill:#000022;}
	.st7{fill:#0C4057;}
	.st8{fill:#E1E1E2;}
	.st9{fill:#E0E0E1;}
	.st10{fill:#8B1D51;}
	.st11{fill:#2A5E76;}
	.st12{fill:#FEFEFE;}
	.st13{fill:#0C3F57;}

	
</style>
<g>
	<g>
		<path class="st0" d="M218.32,351.06c-0.52,0.87-1.04,1.75-1.64,2.74c-1.48-1.34-2.98-2.69-4.48-4.05
			c-0.44-0.63-0.78-1.37-1.34-1.86c-5.02-4.47-11.18-6.04-17.63-6.3c-6.67-0.27-13.35-0.04-20.03-0.03
			c-8.14-0.27-15.71-2.81-23.2-5.72c-0.26-0.1-0.43-0.44-0.65-0.66c-0.02-0.02-0.12,0.03-0.16,0.07c-0.05,0.05-0.07,0.13-0.11,0.19
			c-0.44-0.44-0.81-0.99-1.33-1.31c-4.59-2.83-8.65-6.22-11.98-10.5c-5.23-6.72-8.24-14.33-8.92-22.78
			c-0.56-6.93,0.99-13.55,4.15-19.71c5.37-10.45,13.65-18.32,22.9-25.29c10.87-7.88,22.61-14.14,35.14-18.94
			c1.46-0.56,2.82-1.4,4.23-2.11c3.59,0.68,6.34,2.88,8.95,5.19c7.52,6.64,12.52,15.27,18.29,23.3c3.55,4.94,7.33,9.73,11.25,14.38
			c3.93,4.65,8.83,8.2,14.05,11.31c0.09,1.02,0.02,2.09,0.29,3.06c2.34,8.25,3.79,16.7,4.01,25.22c0.15,5.98-0.77,12-1.44,17.98
			c-0.38,3.38-1.2,6.72-1.88,10.4c9.37-5.8,18.79-10.5,29.81-10.3c10.94,0.21,20.17,5.35,29.41,11c-1.13-7.35-2.77-14.19-3.07-21.1
			c-0.31-7.01,0.69-14.08,1.09-20.76c-2.1,3.3-4.22,6.85-6.57,10.23c-1.2,1.72-3.91,3.35-6.33,2.32c-2.6-1.1-5.35-1.86-8.04-2.77
			c1.59-4.24,3.19-8.49,4.78-12.73c1.12-0.12,2.27-0.44,3.37-0.33c2.52,0.24,5.02,0.7,7.13,1c0-2.46-0.1-5.26,0.03-8.04
			c0.06-1.32,0.56-2.62,0.86-3.92c7.11-4.17,12.82-9.88,16.97-16.87c5.14-8.66,9.72-17.66,14.46-26.56
			c2.77-5.2,6.1-9.95,10.59-13.77c1.37-1.16,3.14-1.85,4.72-2.76c6.78,1.99,13.64,3.75,20.32,6.02c10.8,3.65,20.67,9,29.35,16.54
			c9.32,8.09,15.14,18.09,17.33,30.2c0.57,3.15,1.36,6.36,1.24,9.51c-0.35,9.5-2.58,18.38-8.8,26.06
			c-6.17,7.61-14.58,10.96-23.51,13.53c-8.45,2.43-16.98,4.59-25.41,7.08c-4.99,1.47-9.65,3.92-13.3,7.61
			c-2.77,2.79-4.83,6.28-7.17,9.49c-0.7,0.96-1.26,2.03-2.14,3.48c-5.26-7.88-9.3-15.64-6.7-25.31
			c-4.71,7.14-9.97,13.72-16.23,19.45c-2.61,2.39-5.5,4.49-8.27,6.71c-5.38,2.36-10.75,4.73-16.13,7.09
			c-5.12,0.42-10.24,1.16-15.36,1.16c-3.48,0-6.97-1.01-10.45-1.56c-4.55-1.86-9.18-3.58-13.63-5.65c-2.58-1.2-4.89-3-7.32-4.52
			c-0.59-0.57-1.17-1.14-1.76-1.7c-6.14-7.01-12.29-14.01-18.3-20.88c0.98,3.02,1.07,6.3,0.3,9.59
			C219.55,346.5,218.91,348.78,218.32,351.06z M205.6,316.94c-0.34-0.53-0.63-1.1-1.01-1.59c-7.22-9.29-13.24-19.17-15.43-31.5
			c-1.22,5.73-1.36,10.95-0.31,16.19c0.17,0.86,0.65,1.65,0.99,2.48c-0.13,0.31-0.46,0.71-0.37,0.91c1.36,2.82,2.34,5.96,4.25,8.35
			c4.78,6,11.75,9.16,18.35,12.82C209.91,322.04,207.75,319.49,205.6,316.94z M334.06,324.29c3.28-2.69,6.56-5.39,9.85-8.07
			c9.23-7.52,15.28-16.61,13.92-29.13c-0.32-2.92-1.32-5.77-2.01-8.66C352.2,295.62,342.69,309.72,334.06,324.29z M190.18,252.3
			c-3.93,11.37-4.41,27.2-0.72,30.51C186.67,272.34,188.83,262.33,190.18,252.3z M354.06,254.72c1.93,7.55,2.73,15.18,1.89,22.95
			C358.09,269.78,358.16,262.06,354.06,254.72z"/>
		<path class="st1" d="M153.9,255.85c-9.25,6.97-17.53,14.84-22.9,25.29c-3.17,6.17-4.71,12.78-4.15,19.71
			c0.68,8.44,3.7,16.06,8.92,22.78c3.32,4.28,7.39,7.67,11.98,10.5c0.52,0.32,0.89,0.87,1.33,1.31c-0.32,1.37-1.21,0.38-1.58,0.22
			c-1.7-0.72-3.26-1.84-5-2.43c-13.64-4.58-26.89-10.06-39.52-16.97c-11.36-6.21-22.25-13.17-32.1-21.62
			c-6.15-5.28-12.38-10.53-18.02-16.33c-11.8-12.12-21.46-25.81-28.51-41.25c-3.94-8.64-6.96-17.61-8.28-27.02
			c-0.72-5.13-1.08-10.39-0.88-15.57c0.33-8.52,2.44-16.73,5.53-24.7c3.95-10.18,9.54-19.45,16.58-27.68
			c5.28-6.18,11.27-11.78,17.21-17.36c8.42-7.9,18.11-14.14,28.13-19.71c8.61-4.78,17.59-9,26.65-12.87
			c8.91-3.81,18.03-7.2,27.25-10.16c8.96-2.88,18.16-4.99,27.27-7.4c0.54-0.14,1.16,0.01,1.74,0.03c-0.17,0.85-0.34,1.71-0.51,2.56
			c-2.07-0.71-2.42,1.02-2.92,2.22c-2.23,5.36-1.79,11.04-1.85,16.65c-0.58,3.29-1.36,6.55-1.68,9.86
			c-0.71,7.32-1.43,14.66-1.66,22.01c-0.17,5.26,0.46,10.54,0.73,15.8c-0.36,0.04-0.74,0.02-1.07,0.14
			c-7.84,2.84-15.23,6.55-21.79,11.72c-2.27,1.79-4.25,3.94-6.36,5.93c4.27-2.23,8.12-4.9,12.18-7.22
			c5.41-3.09,11.42-4.6,17.49-5.79c0.9,4.19,1.81,8.38,2.69,12.57c1.85,8.85,4.86,17.23,9.94,24.79c0.78,1.17,1.32,2.5,1.97,3.75
			c-0.61-0.21-1.29-0.31-1.82-0.65c-8.57-5.43-18.02-5.58-27.61-4.48c-5.86,0.68-11.12-0.59-15.7-4.2
			c-4.67-3.68-9.05-7.72-13.7-11.42c-3.57-2.85-7.68-4.14-12.24-2.67c-2.55,0.82-5.12,1.7-7.52,2.87
			c-7.55,3.69-14.98,4.19-22.42-0.24c-4.43-2.64-8.9-5.2-13.38-7.74c-0.66-0.38-1.5-0.44-2.75-0.78c2.99,9.49,5.54,18.49,8.68,27.29
			c2.63,7.38,6.67,13.94,12.95,19.03c8.18,6.64,17.54,8.7,27.74,8.01c8.09-0.54,16.18-1.39,24.28-1.66
			c5.85-0.19,11.57,1.07,16.79,3.89c4.66,2.52,9.23,5.22,13.82,7.88c2.43,1.41,4.81,2.91,7.21,4.36c-0.79,0.43-1.6,0.85-2.38,1.3
			c-5.33,3.04-10.15,6.59-12.86,12.39C149.89,246.88,150.83,253.1,153.9,255.85z M112.2,289.98c-5.8-5.77-11.64-11.31-17.16-17.16
			c-5.54-5.87-10.31-12.36-14.38-19.36c-4.12-7.09-7.35-14.56-9.44-22.46c-2.02-7.64-3.56-15.41-5.23-22.76
			c-0.15,1.14-0.51,2.65-0.52,4.15c-0.08,8.34-0.26,16.68,1.27,24.97c2.11,11.46,7.01,21.47,14.9,30.02
			c6.3,6.83,13.58,12.48,21.43,17.4C106.05,286.66,109.19,288.28,112.2,289.98z M148.74,103.21c-26.61,0.21-60.7,22.94-71.99,48.24
			c10.52-10.72,21.39-20.15,33.41-28.21C122.21,115.15,135.22,108.92,148.74,103.21z M109.16,226.13
			c-2.11,16.52,1.99,30.74,13,42.79C116.66,255.14,112.21,241.02,109.16,226.13z"/>
		<path class="st2" d="M167.04,229.11c-2.4-1.46-4.78-2.95-7.21-4.36c-4.59-2.66-9.15-5.36-13.82-7.88
			c-5.22-2.82-10.94-4.08-16.79-3.89c-8.1,0.27-16.18,1.12-24.28,1.66c-10.21,0.69-19.56-1.38-27.74-8.01
			c-6.28-5.09-10.32-11.65-12.95-19.03c-3.14-8.8-5.69-17.81-8.68-27.29c1.25,0.34,2.09,0.41,2.75,0.78
			c4.48,2.54,8.95,5.11,13.38,7.74c7.44,4.43,14.87,3.93,22.42,0.24c2.4-1.17,4.97-2.05,7.52-2.87c4.55-1.46,8.66-0.17,12.24,2.67
			c4.65,3.7,9.03,7.74,13.7,11.42c4.57,3.61,9.83,4.88,15.7,4.2c9.59-1.11,19.04-0.96,27.61,4.48c0.53,0.34,1.21,0.44,1.82,0.65
			c0.37,0.19,0.82,0.3,1.1,0.58c4.09,4.18,7.85,8.75,12.29,12.5c8.67,7.33,18.45,12.93,28.96,17.34
			c15.06,6.32,30.76,9.8,46.96,11.04c6.04,0.46,12.14,0.09,18.21,0.06c8.38-0.03,16.59-1.31,24.77-3.04
			c15.7-3.31,30.46-8.89,43.42-18.49c4.3-3.18,8.15-7.01,11.99-10.76c2.25-2.19,4.08-4.8,6.1-7.21c2.88-0.28,5.76-0.49,8.63-0.85
			c11.92-1.53,21.81-6.46,28.71-16.74c3.86-5.75,9.37-9.38,16.19-10.98c6.73-1.57,13.45-0.88,20.09,0.26
			c7.05,1.21,14.1,1.78,21.22,1.51c1.52-0.06,3.02-0.77,4.53-1.19c6.37-0.98,11.94-3.85,16.93-7.71c4.66-3.6,8.95-7.69,13.41-11.55
			c0.38-0.33,0.77-0.63,1.4-1.14c0.25,0.65,0.58,1.13,0.6,1.62c0.29,9.31,0.19,18.56-2.95,27.52c-2.77,7.88-6.8,14.84-13.65,19.85
			c-1.41,1.03-3.14,1.63-4.72,2.42c-7.52,2.24-15.38,1.61-23.02,2.74c-3.22,0.48-6.59,1.56-9.33,3.27
			c-4.22,2.63-8.15,5.81-11.83,9.18c-6.77,6.19-14.65,8.84-23.69,8.49c-4.5-0.17-9.01-0.46-13.51-0.37
			c-3.7,0.07-7.37,0.71-10.52,2.95c-3.9,2.06-7.68,4.45-11.75,6.06c-2.43,0.96-5.42,1.26-8.01,0.88
			c-6.47-0.94-12.62-0.48-18.56,2.31c-0.19,0.09-0.43,0.08-0.64,0.12c-1.58,0.91-3.35,1.6-4.72,2.76
			c-4.5,3.82-7.83,8.58-10.59,13.77c-4.74,8.9-9.32,17.9-14.46,26.56c-4.15,6.99-9.87,12.7-16.97,16.87
			c-2.66,1.4-5.34,2.77-7.99,4.21c-0.73,0.4-1.74,0.84-1.98,1.49c-0.66,1.8-0.98,3.72-1.43,5.6c-1.59,4.24-3.19,8.49-4.78,12.73
			c-0.98,2.17-1.97,4.33-3.16,6.95c-0.55-1.63-0.8-2.78-1.31-3.78c-1.02-1.97-1.03-4.57-3.45-5.69c0.08-0.45,0.4-1.07,0.22-1.32
			c-1.64-2.23-3.37-4.4-5.07-6.59c-0.1-0.34-0.09-0.81-0.32-1.01c-1.52-1.34-2.92-2.93-4.66-3.87c-6.44-3.45-13.01-6.68-19.53-9.99
			c-5.22-3.11-10.12-6.67-14.05-11.31c-3.93-4.65-7.7-9.44-11.25-14.38c-5.77-8.03-10.77-16.67-18.29-23.3
			c-2.61-2.3-5.36-4.5-8.95-5.19c-3.07-0.6-6.12-1.45-9.22-1.75C178.19,232.47,172.47,231.44,167.04,229.11z M289.66,293.65
			c0.34,0.1,0.68,0.2,1.02,0.3c2.58-5.73,4.43-11.75,4.98-18.02c0.96-11-2.96-20.79-8.13-30.17c1.33,7.91,3.36,15.73,4.11,23.68
			C292.38,277.5,292.14,285.7,289.66,293.65z"/>
		<path class="st0" d="M366.51,191.65c-2.02,2.42-3.85,5.03-6.1,7.21c-3.85,3.75-7.69,7.57-11.99,10.76
			c-12.96,9.61-27.72,15.18-43.42,18.49c-8.18,1.72-16.4,3-24.77,3.04c-6.07,0.02-12.18,0.4-18.21-0.06
			c-16.2-1.24-31.9-4.72-46.96-11.04c-10.51-4.41-20.28-10.01-28.96-17.34c-4.44-3.76-8.2-8.32-12.29-12.5
			c-0.28-0.28-0.73-0.39-1.1-0.58c-0.65-1.25-1.18-2.59-1.97-3.75c-5.08-7.56-8.09-15.94-9.94-24.79
			c-0.88-4.19-1.79-8.38-2.69-12.57c-0.15-1.59-0.3-3.18-0.45-4.78c-0.27-5.27-0.9-10.55-0.73-15.8c0.23-7.35,0.96-14.69,1.66-22.01
			c0.32-3.31,1.11-6.58,1.68-9.86c1.85,5.69,3.4,11.5,5.63,17.04c3.21,7.98,4.62,16.15,4.07,24.69c-0.26,4.11-0.56,8.21-0.89,12.31
			c-0.16,2-0.5,3.99-0.68,5.99c-0.45,5.29-0.2,10.53,1.77,15.51c2.5,6.32,7.56,10.22,13.36,13.2c9.15,4.71,19.08,6.41,29.22,6.98
			c7.16,0.4,14.26-0.39,21.22-2.18c7.9-2.04,15.06-5.51,20.81-11.46c5-5.16,8.37-11.32,10.07-18.23c1.51-6.14,1.54-12.43,0.1-18.65
			c-1.17-5.06-3.44-9.63-6.06-14.09c-5.14-8.74-12.64-14.47-21.95-18.12c-10.28-4.03-21.14-4.94-31.96-6.03
			c-5.8-0.58-11.49-1.5-16.95-3.55c-7.47-2.81-14.06-6.92-18.49-13.76c-1.74-2.68-3.02-5.66-4.51-8.5c0.17-0.85,0.34-1.71,0.51-2.56
			c1.31-3,2.61-6,3.93-9c1.36-3.09,4.19-9.46,7.03-11.32c1.6,2.64,2.97,5.44,4.83,7.87c2.48,3.23,5.31,6.2,8.05,9.23
			c0.33,0.36,1.02,0.39,1.54,0.58c0.41,0.55,0.72,1.25,1.25,1.63c1.99,1.42,3.97,2.88,6.1,4.05c5.3,2.91,10.72,5.57,16.68,6.9
			c0.72,0.44,1.39,1.11,2.18,1.29c5.76,1.33,11.54,2.57,17.33,3.8c0.34,0.07,0.76-0.21,1.14-0.33c2.78,0.74,5.56,1.49,8.34,2.23
			c8.82,2.34,16.2,6.88,21.39,14.49c2.71,3.98,5.02,8.24,7.49,12.33c1.67-3.22,3.42-6.66,5.23-10.07c3.1-5.84,7.47-10.59,12.68-14.6
			c6.28-4.83,13.34-8.05,20.96-10.1c2.35-0.56,4.7-1.11,7.05-1.67c4.37-1.05,8.76-2,13.09-3.18c2.98-0.82,5.86-1.97,8.79-2.97
			c4.35-0.64,7.82-3.12,11.3-5.51c4.72-3.23,8.48-7.42,11.73-12.12c1.32-1.91,2.5-1.84,3.36,0.43c2.13,5.64,4.08,11.35,5.98,17.08
			c0.91,2.73,1.54,5.55,2.29,8.33c-0.79,1.42-1.36,3.03-2.4,4.23c-9.02,10.43-20.92,15.3-34.2,17.19
			c-5.34,0.76-10.76,1.08-16.16,1.34c-6.16,0.29-12.06,1.63-17.68,4.05c-8.06,3.47-14.98,8.56-18.65,16.74
			c-4.48,9.99-6,20.48-4.24,31.49c2.02,12.58,8.92,21.28,20.22,26.5c9.36,4.33,19.25,6.09,29.67,5.39
			c8.73-0.58,16.85-2.72,24.73-6.45c8.2-3.88,12.14-10.55,12.93-19.12c0.72-7.79-0.35-15.57-1.4-23.33
			c-0.51-3.77-0.78-7.84,0.07-11.48c1.39-6.01,3.85-11.76,5.73-17.66c1.43-4.47,2.67-9.01,3.99-13.52c0.13,0.23,0.35,0.45,0.38,0.7
			c0.92,7.49,1.83,14.98,2.73,22.48c0,2.03,0.01,4.05,0.01,6.08c-0.16,5.67-0.12,11.35-0.55,16.99c-0.4,5.23-1.21,10.43-2.05,15.61
			c-0.56,3.46-1.5,6.85-2.26,10.28c-0.26,0.59-0.53,1.18-0.79,1.77c-1.57,3.54-3.07,7.11-4.73,10.6
			C369.37,186.52,367.89,189.06,366.51,191.65z M260.69,183.19c0.22,0.27,0.34,0.45,0.5,0.6c3.8,3.65,7.63,7.27,11.4,10.95
			c1.24,1.21,2.39,1.3,3.39-0.2c2.05-3.08,3.93-6.27,5.92-9.39c0.97-1.52,0.47-2.27-0.99-3.23c-2.11-1.39-4.12-3.04-5.81-4.9
			c-1.36-1.5-2.19-3.5-3.29-5.34C269.61,177.08,265.94,180.79,260.69,183.19z"/>

		<path id="cape-01" class="st1" d="M384.99,220.92c3.15-2.24,6.82-2.88,10.52-2.95c4.5-0.08,9,0.2,13.51,0.37c9.04,0.34,16.92-2.31,23.69-8.49
			c3.68-3.36,7.62-6.54,11.83-9.18c2.74-1.71,6.11-2.79,9.33-3.27c7.64-1.13,15.5-0.5,23.02-2.74c0.44,3.62,0.86,7.25,1.32,10.87
			c0.41,3.2,1.07,6.38,1.25,9.59c0.43,7.67,0.98,15.36,0.87,23.04c-0.17,11.54-1.73,22.92-4.95,34.07
			c-3.5,12.12-8.72,23.39-15.98,33.68c-2.19,3.1-4.78,5.91-7.28,8.79c-10.41,12.01-24.05,19.33-38.13,25.9
			c-11.89,5.54-24.04,10.52-35.88,16.17c-6.55,3.13-12.92,6.82-17.87,12.36c-1.55,1.74-2.8,3.75-4.63,6.24
			c-0.13-1.4-0.44-2.37-0.26-3.25c1.51-7.59,6.31-13,12.06-17.69c5.7-4.66,11.51-9.2,17.28-13.78c4.76-3.77,9.81-7.23,14.24-11.36
			c6.58-6.12,13.11-12.33,17.32-20.56c3.51-6.87,5.69-14,6.46-21.67c1.38-13.74-1.03-26.73-6.95-39.19
			c-3.31-6.96-7.22-13.45-12.83-18.81c-4.34-4.15-9.54-6.6-15.43-7.65C386.66,221.28,385.83,221.09,384.99,220.92z M452.04,219.11
			c7.15,29.86,1.16,57.67-12.97,84.25c9.97-13.22,17.81-27.45,19.33-44.16C459.66,245.45,457.03,232.06,452.04,219.11z
			 M425.08,227.37c1.68,6.53,3.75,12.88,4.88,19.4c1.13,6.53,1.31,13.21,1.96,20.38C435.01,252.6,433.44,239.44,425.08,227.37z"/>

		<path class="st3" d="M318.75,81.94c-2.35,0.56-4.7,1.11-7.05,1.67c0.45-3.89,0.95-7.77,1.34-11.66c0.34-3.43-1.37-5.71-4.11-7.65
			c-5.27-3.72-11.23-5.84-17.27-7.74c-6.62-2.09-13.52-2.86-20.42-3.01c-3.53-0.07-7.09,0.67-10.6,1.26
			c-8.91,1.5-17.07,4.88-24.23,10.4c-2.46,1.9-4,4.42-3.98,7.92c0.02,5.65,1.79,10.87,3.18,16.21c-0.38,0.12-0.8,0.4-1.14,0.33
			c-5.78-1.23-11.57-2.47-17.33-3.8c-0.78-0.18-1.45-0.85-2.18-1.29c-3.01-2.9-5.97-5.85-9.04-8.67c-1.72-1.58-3.62-2.96-5.44-4.43
			c-1.94-1.85-3.88-3.71-5.99-5.71c0.78-0.52,1.68-1.17,2.63-1.72c7.29-4.25,14.82-8.14,21.83-12.81
			c7.77-5.18,15.17-10.94,22.56-16.67c7.65-5.94,15.12-12.12,22.63-18.24c5.2-4.24,10.32-8.58,15.49-12.87
			c1.89-1.57,2.18-1.45,3.77,0.49c3.62,4.42,7.18,8.9,11.01,13.14c5.15,5.69,10.43,11.26,15.85,16.68c2.72,2.71,5.88,4.98,8.84,7.45
			c0.16,0.69,0.39,1.37,0.46,2.06c0.33,3.71,0.63,7.42,0.89,11.13c0.02,0.36-0.24,0.84-0.52,1.1c-3.45,3.07-4.29,6.44-2.59,11.22
			c3.47-0.33,7-0.66,10.59-1c0-1.44,0.09-2.61-0.02-3.76c-0.27-2.9-0.97-5.53-4.27-6.52c-0.42-0.13-0.94-0.89-0.93-1.36
			c0.05-2.52,0.21-5.03,0.42-7.54c0.04-0.47,0.53-0.91,0.81-1.36c5.11,3.92,10.21,7.83,15.32,11.76c1.07,0.82,2.24,1.55,3.16,2.52
			c1.34,1.39,0.22,2.27-0.86,3.18c-4.15,3.47-8.26,7-12.39,10.51c-2.71,2.09-5.46,4.13-8.12,6.28
			C320.17,80.09,319.51,81.08,318.75,81.94z"/>
		<path class="st1" d="M366.51,191.65c1.38-2.59,2.86-5.13,4.13-7.77c1.67-3.49,3.16-7.06,4.73-10.6c1.9,0.95,3.8,1.9,5.7,2.86
			c-0.64-0.93-1.45-1.69-2.29-2.42c-0.86-0.75-1.74-1.48-2.62-2.21c0.77-3.42,1.7-6.82,2.26-10.28c0.84-5.18,1.64-10.38,2.05-15.61
			c0.43-5.64,0.39-11.33,0.55-16.99c1.89,0.89,3.85,1.66,5.66,2.68c7.08,4.02,13.9,8.43,19.93,13.97c2.13,1.96,4.32,3.87,6.48,5.81
			c-9.06-11.37-20.02-20.57-32.07-28.54c-0.91-7.49-1.81-14.99-2.73-22.48c-0.03-0.24-0.25-0.46-0.38-0.7
			c0.28-1.41,0.58-2.82,0.84-4.24c0.46-2.55,0.89-5.11,1.33-7.67c4.87,2.62,9.91,4.97,14.57,7.92c7.98,5.05,15.8,10.38,23.55,15.78
			c3.17,2.21,6.08,4.84,8.96,7.43c7.82,7.03,15.06,14.64,21.6,22.87c5.19,6.54,10.13,13.29,15.2,19.94c0.6,0.79,1.3,1.5,1.95,2.25
			c-1.51,0.41-3.01,1.13-4.53,1.19c-7.12,0.28-14.17-0.3-21.22-1.51c-6.64-1.14-13.36-1.84-20.09-0.26
			c-6.82,1.6-12.33,5.23-16.19,10.98c-6.9,10.28-16.79,15.21-28.71,16.74C372.27,191.16,369.39,191.37,366.51,191.65z"/>
		<path class="st4" d="M380.06,87.47c-0.44,2.56-0.87,5.11-1.33,7.67c-0.25,1.42-0.56,2.82-0.84,4.24
			c-1.32,4.51-2.56,9.04-3.99,13.52c-1.88,5.9-4.34,11.65-5.73,17.66c-0.85,3.65-0.58,7.71-0.07,11.48
			c1.05,7.76,2.12,15.54,1.4,23.33c-0.79,8.57-4.73,15.24-12.93,19.12c-7.88,3.73-16.01,5.87-24.73,6.45
			c-10.42,0.7-20.31-1.06-29.67-5.39c-11.29-5.23-18.2-13.92-20.22-26.5c-1.76-11-0.24-21.5,4.24-31.49
			c3.67-8.18,10.59-13.27,18.65-16.74c5.62-2.41,11.52-3.75,17.68-4.05c5.4-0.26,10.82-0.58,16.16-1.34
			c13.29-1.89,25.19-6.77,34.2-17.19c1.04-1.2,1.61-2.81,2.4-4.23c0.6-0.69,1.12-1.46,1.82-2.03c0.57-0.47,1.34-0.86,2.04-0.91
			c0.25-0.02,0.8,1.04,0.85,1.63C380.12,84.27,380.05,85.87,380.06,87.47z M351.21,146.95c-0.2-6.44-1.8-12.9-5.35-18.71
			c-2.75-4.5-6.74-7.55-12.03-8.78c-4.52-1.05-9.06-1.45-13.64-0.79c-4.7,0.68-9.34,1.93-13.22,4.68
			c-8.72,6.18-12.61,15.2-12.93,25.53c-0.23,7.45,3.41,13.51,9.17,18.35c6.83,5.74,14.49,8.52,23.47,7.91
			c6.67-0.45,12.19-3.22,16.71-7.86C348.75,161.77,351.13,154.95,351.21,146.95z"/>
		<path class="st5" d="M239.85,357.19c2.43,1.53,4.74,3.32,7.32,4.52c4.45,2.08,9.08,3.79,13.63,5.65
			c-1.23,7.13-2.2,14.31-3.81,21.36c-0.91,3.99-2.35,8.08-4.53,11.49c-2.03,3.17-4.99,6.1-8.19,8.08
			c-7.59,4.68-15.85,8.02-24.47,10.44c-5.38,1.51-9.91,0.37-13.87-3.56c-0.61-0.61-1.93-0.87-2.84-0.74
			c-5.94,0.89-11.27-0.28-15.54-4.64c-6.41-6.55-4.05-14.48,1.86-19.17c4.52-3.59,10.08-4.69,15.59-5.77
			c4.92-0.97,9.86-1.87,14.77-2.92c7.15-1.52,12.02-6.05,15.14-12.4C236.85,365.57,238.22,361.32,239.85,357.19z M205.12,413.38
			c-2.93-4.65-2.09-8.89-0.02-13.19c-3.01,0.75-4.97,3.68-5.09,7.26C199.94,409.78,202.01,412.45,205.12,413.38z"/>
		<path class="st5" d="M286.6,367.77c5.38-2.36,10.75-4.73,16.13-7.09c4,5.36,8.02,10.72,12.01,16.09
			c2.82,3.79,6.89,4.75,11.25,4.89c6.18,0.21,12.37,0.19,18.54,0.5c3,0.15,6.02,0.64,8.95,1.31c4.18,0.95,7.5,5.58,7.58,9.98
			c0.05,2.64-0.19,5.15-1.73,7.41c-1.59,2.33-3.8,3.41-6.56,3.51c0.1-0.71,0.16-1.43,0.31-2.13c1.55-7.47-5.7-11.52-11.25-10.6
			c3.85,1.11,6.74,3.07,8.41,6.26c1.05,2.01,1.44,4.36,2.13,6.56c-0.67,6.02-5.11,10.08-11.13,10.02
			c-8.19-0.08-16.07-2.15-23.91-4.18c-5.25-1.36-10.38-3.26-15.51-5.06c-4.67-1.63-6.53-5.64-7.75-9.96
			c-2.42-8.6-4.69-17.25-7.03-25.88C286.91,368.86,286.75,368.32,286.6,367.77z"/>
		<path class="st6" d="M323.95,45.14c-0.28,0.45-0.77,0.89-0.81,1.36c-0.22,2.51-0.38,5.03-0.42,7.54c-0.01,0.46,0.5,1.23,0.93,1.36
			c3.3,0.99,4,3.62,4.27,6.52c0.11,1.15,0.02,2.32,0.02,3.76c-3.59,0.34-7.12,0.68-10.59,1c-1.7-4.78-0.87-8.15,2.59-11.22
			c0.28-0.25,0.55-0.74,0.52-1.1c-0.26-3.71-0.56-7.42-0.89-11.13c-0.06-0.7-0.3-1.38-0.46-2.06c0.29-0.01,0.58-0.02,0.87-0.02
			C323.96,41.12,324.02,41.18,323.95,45.14z"/>
		<path class="st1" d="M218.32,351.06c0.59-2.29,1.23-4.56,1.77-6.86c0.77-3.29,0.68-6.57-0.3-9.59
			c6.02,6.86,12.16,13.87,18.3,20.88c-1.74-0.43-3.46-0.91-5.21-1.29C228.03,353.13,223.17,352.1,218.32,351.06z"/>
		<path class="st1" d="M173.19,341.57c6.68-0.01,13.36-0.24,20.03,0.03c6.46,0.26,12.61,1.83,17.63,6.3c0.56,0.5,0.9,1.24,1.34,1.86
			c-2.5-0.5-5-0.99-7.51-1.49c-8.27-1.66-16.54-3.29-24.8-4.99C177.64,342.81,175.42,342.14,173.19,341.57z"/>
		<path class="st1" d="M200.5,71.46c1.82,1.47,3.72,2.85,5.44,4.43c3.07,2.83,6.03,5.78,9.04,8.67c-5.96-1.33-11.39-3.99-16.68-6.9
			c-2.13-1.17-4.11-2.63-6.1-4.05c-0.53-0.38-0.84-1.08-1.25-1.63C194.12,71.81,197.31,71.63,200.5,71.46z"/>
		<path class="st1" d="M318.75,81.94c0.76-0.86,1.42-1.84,2.3-2.55c2.66-2.15,5.41-4.2,8.12-6.28c3.36,0.73,6.72,1.45,10.08,2.19
			c0.47,0.1,0.92,0.33,1.38,0.5c-2.93,1-5.81,2.15-8.79,2.97C327.51,79.94,323.12,80.89,318.75,81.94z"/>
		<path class="st7" d="M352.37,404.46c-0.69-2.2-1.08-4.55-2.13-6.56c-1.67-3.19-4.56-5.16-8.41-6.26
			c5.55-0.92,12.8,3.13,11.25,10.6c-0.15,0.7-0.21,1.42-0.31,2.13C352.64,404.42,352.51,404.45,352.37,404.46z"/>
		<path class="st5" d="M245.81,288.98c6.52,3.31,13.08,6.54,19.53,9.99c1.75,0.94,3.15,2.53,4.66,3.87c0.23,0.2,0.22,0.67,0.32,1.01
			c-0.69,0.14-1.38,0.38-2.08,0.39c-1.99,0.03-2.97,0.88-2.7,2.96c0.31,2.28,0.6,4.56,0.88,6.84c0.06,0.49,0.07,0.98,0.12,1.78
			c1.82-0.91,3.43-1.75,5.08-2.53c1.16-0.55,2.37-1.02,3.55-1.52c2.42,1.12,2.43,3.72,3.45,5.69c0.52,1,0.76,2.14,1.31,3.78
			c1.19-2.62,2.17-4.79,3.16-6.95c2.69,0.91,5.44,1.67,8.04,2.77c2.42,1.03,5.13-0.6,6.33-2.32c2.35-3.38,4.47-6.93,6.57-10.23
			c-0.4,6.68-1.4,13.75-1.09,20.76c0.31,6.9,1.95,13.75,3.07,21.1c-9.24-5.65-18.48-10.79-29.41-11
			c-11.02-0.21-20.44,4.5-29.81,10.3c0.68-3.68,1.5-7.01,1.88-10.4c0.66-5.98,1.59-12,1.44-17.98c-0.22-8.53-1.67-16.97-4.01-25.22
			C245.83,291.07,245.9,290.01,245.81,288.98z"/>
		<path class="st1" d="M189.83,302.51c2.92,3.15,5.68,6.46,8.8,9.4c2.07,1.95,4.63,3.37,6.97,5.03c2.16,2.55,4.31,5.1,6.47,7.65
			c-6.6-3.66-13.57-6.82-18.35-12.82c-1.91-2.4-2.9-5.53-4.25-8.35C189.36,303.22,189.69,302.82,189.83,302.51z"/>
		<path class="st5" d="M287.88,301.55c0.45-1.87,0.77-3.8,1.43-5.6c0.24-0.65,1.24-1.09,1.98-1.49c2.64-1.44,5.32-2.81,7.99-4.21
			c-0.3,1.31-0.8,2.61-0.86,3.92c-0.13,2.79-0.04,5.58-0.03,8.04c-2.11-0.31-4.61-0.76-7.13-1
			C290.15,301.11,289,301.42,287.88,301.55z"/>
		<path class="st8" d="M190.18,252.3c-1.35,10.03-3.52,20.05-0.72,30.51C185.77,279.49,186.25,263.67,190.18,252.3z"/>
		<path class="st9" d="M354.06,254.72c4.1,7.34,4.04,15.06,1.89,22.95C356.78,269.89,355.99,262.27,354.06,254.72z"/>
		<path class="st4" d="M165.05,77.19c1.49,2.84,2.77,5.82,4.51,8.5c4.44,6.84,11.02,10.96,18.49,13.76
			c5.45,2.05,11.15,2.97,16.95,3.55c10.82,1.08,21.68,1.99,31.96,6.03c9.31,3.65,16.81,9.38,21.95,18.12
			c2.62,4.46,4.89,9.03,6.06,14.09c1.44,6.23,1.41,12.52-0.1,18.65c-1.7,6.91-5.07,13.06-10.07,18.23
			c-5.76,5.95-12.91,9.43-20.81,11.46c-6.95,1.79-14.06,2.58-21.22,2.18c-10.14-0.56-20.07-2.27-29.22-6.98
			c-5.8-2.98-10.85-6.89-13.36-13.2c-1.97-4.98-2.23-10.23-1.77-15.51c0.17-2,0.51-3.99,0.68-5.99c0.34-4.1,0.63-8.2,0.89-12.31
			c0.55-8.54-0.86-16.71-4.07-24.69c-2.23-5.54-3.78-11.35-5.63-17.04c0.06-5.61-0.38-11.29,1.85-16.65
			C162.63,78.21,162.98,76.48,165.05,77.19z M253.22,147.6c-0.11-0.64-0.36-1.77-0.49-2.91c-1.17-10.39-6.84-17.65-15.91-22.28
			c-6.58-3.36-13.6-4.86-21.13-4.2c-8.23,0.73-15.03,3.63-19.53,10.84c-4.19,6.71-5.95,13.93-5.22,21.9
			c0.9,9.82,5.73,17.31,13.51,22.76c6.59,4.62,14.15,6.16,22.31,5.04c7.53-1.04,13.55-4.41,18.6-9.97
			C250.72,162.89,252.69,155.8,253.22,147.6z"/>
		<path class="st10" d="M112.2,289.98c-3.02-1.71-6.16-3.33-9.14-5.2c-7.85-4.92-15.13-10.57-21.43-17.4
			c-7.89-8.55-12.79-18.56-14.9-30.02c-1.53-8.29-1.35-16.62-1.27-24.97c0.01-1.51,0.37-3.01,0.52-4.15
			c1.67,7.35,3.2,15.12,5.23,22.76c2.09,7.9,5.32,15.37,9.44,22.46c4.07,7,8.84,13.49,14.38,19.36
			C100.56,278.67,106.41,284.22,112.2,289.98z"/>
		<path class="st10" d="M148.74,103.21c-13.52,5.72-26.53,11.94-38.58,20.03c-12.01,8.07-22.88,17.49-33.41,28.21
			C88.04,126.14,122.13,103.42,148.74,103.21z"/>
		<path class="st10" d="M109.16,226.13c3.06,14.89,7.51,29,13,42.79C111.15,256.87,107.05,242.65,109.16,226.13z"/>
		<path class="st10" d="M157.67,143.74c0.15,1.59,0.3,3.18,0.45,4.78c-6.07,1.2-12.08,2.7-17.49,5.79
			c-4.06,2.32-7.92,4.99-12.18,7.22c2.11-1.99,4.09-4.14,6.36-5.93c6.56-5.18,13.95-8.88,21.79-11.72
			C156.92,143.75,157.31,143.78,157.67,143.74z"/>
		<path class="st10" d="M289.66,293.65c2.49-7.95,2.72-16.15,1.97-24.22c-0.74-7.94-2.77-15.76-4.11-23.68
			c5.17,9.38,9.09,19.17,8.13,30.17c-0.55,6.27-2.4,12.29-4.98,18.02C290.34,293.85,290,293.75,289.66,293.65z"/>
		<path class="st0" d="M275.18,311.77c-1.19,0.5-2.39,0.97-3.55,1.52c-1.65,0.78-3.26,1.62-5.08,2.53c-0.05-0.8-0.06-1.3-0.12-1.78
			c-0.28-2.28-0.57-4.56-0.88-6.84c-0.28-2.07,0.7-2.93,2.7-2.96c0.69-0.01,1.38-0.25,2.08-0.39c1.7,2.19,3.43,4.36,5.07,6.59
			C275.58,310.7,275.26,311.32,275.18,311.77z"/>
		<path class="st6" d="M235.62,89.33c-1.38-5.34-3.15-10.56-3.18-16.21c-0.01-3.5,1.52-6.02,3.98-7.92
			c7.16-5.52,15.32-8.9,24.23-10.4c3.51-0.59,7.08-1.33,10.6-1.26c6.9,0.14,13.79,0.92,20.42,3.01c6.04,1.9,11.99,4.03,17.27,7.74
			c2.74,1.93,4.45,4.21,4.11,7.65c-0.39,3.89-0.89,7.78-1.34,11.66c-7.62,2.06-14.68,5.27-20.96,10.1
			c-5.21,4.01-9.58,8.76-12.68,14.6c-1.81,3.41-3.56,6.85-5.23,10.07c-2.46-4.09-4.78-8.34-7.49-12.33
			c-5.18-7.62-12.57-12.15-21.39-14.49C241.18,90.82,238.4,90.07,235.62,89.33z"/>
		<path class="st11" d="M260.69,183.19c5.25-2.4,8.91-6.11,11.12-11.52c1.11,1.85,1.93,3.84,3.29,5.34c1.69,1.87,3.71,3.51,5.81,4.9
			c1.45,0.96,1.96,1.71,0.99,3.23c-1.99,3.12-3.88,6.31-5.92,9.39c-1,1.5-2.15,1.41-3.39,0.2c-3.77-3.68-7.6-7.3-11.4-10.95
			C261.04,183.65,260.92,183.46,260.69,183.19z"/>
		<path class="st10" d="M381.01,122.54c12.05,7.97,23.01,17.17,32.07,28.54c-2.16-1.93-4.34-3.84-6.48-5.81
			c-6.02-5.55-12.84-9.95-19.93-13.97c-1.81-1.03-3.77-1.8-5.66-2.68C381.02,126.6,381.01,124.57,381.01,122.54z"/>
		<path class="st10" d="M376.16,171.5c0.87,0.74,1.76,1.46,2.62,2.21c0.84,0.73,1.65,1.48,2.29,2.42c-1.9-0.95-3.8-1.9-5.7-2.86
			C375.63,172.68,375.89,172.09,376.16,171.5z"/>
		<path class="st10" d="M452.04,219.11c4.99,12.95,7.62,26.34,6.37,40.09c-1.52,16.71-9.36,30.94-19.33,44.16
			C453.21,276.79,459.19,248.97,452.04,219.11z"/>
		<path class="st10" d="M425.08,227.37c8.36,12.07,9.93,25.23,6.84,39.78c-0.65-7.17-0.83-13.86-1.96-20.38
			C428.83,240.25,426.76,233.9,425.08,227.37z"/>
		<path class="st12" d="M351.21,146.95c-0.09,8-2.46,14.83-7.81,20.32c-4.52,4.65-10.04,7.41-16.71,7.86
			c-8.98,0.61-16.64-2.18-23.47-7.91c-5.76-4.84-9.4-10.89-9.17-18.35c0.32-10.33,4.2-19.35,12.93-25.53
			c3.88-2.75,8.52-4,13.22-4.68c4.58-0.66,9.12-0.26,13.64,0.79c5.29,1.23,9.28,4.28,12.03,8.78
			C349.42,134.05,351.01,140.51,351.21,146.95z M316.89,140.13c0,0.14,0,0.28,0,0.41c-4.5,0-9.01-0.02-13.51,0.03
			c-1.26,0.02-2.49,0.19-2.52,1.99c-0.11,6.98,3.93,12.97,10.77,14.96c5.66,1.65,11.37,1.23,16.91-0.83
			c6.24-2.33,10.6-5.81,10-14.09c-0.19-2.69-0.8-3.51-3.41-3.4C329.04,139.46,322.97,139.82,316.89,140.13z"/>
		<path class="st13" d="M205.12,413.38c-3.11-0.93-5.18-3.6-5.11-5.93c0.12-3.58,2.07-6.51,5.09-7.26
			C203.03,404.49,202.19,408.73,205.12,413.38z"/>
		<path class="st12" d="M253.22,147.6c-0.53,8.2-2.5,15.29-7.85,21.18c-5.04,5.56-11.07,8.93-18.6,9.97
			c-8.16,1.13-15.72-0.42-22.31-5.04c-7.78-5.45-12.61-12.94-13.51-22.76c-0.73-7.97,1.03-15.19,5.22-21.9
			c4.5-7.21,11.3-10.11,19.53-10.84c7.53-0.67,14.54,0.83,21.13,4.2c9.07,4.64,14.74,11.9,15.91,22.28
			C252.86,145.83,253.11,146.96,253.22,147.6z M214.55,139.74c0-0.14,0-0.28,0-0.42c-1.97,0-3.93,0.02-5.9,0
			c-1.57-0.01-2.52,0.87-2.7,2.28c-0.7,5.47,1.15,10.18,5.3,13.63c5.61,4.66,12.25,5.19,19.06,3.27c6.76-1.9,11.91-5.97,14.97-12.38
			c1.61-3.37,1.07-6.64-3.93-6.47C232.43,139.93,223.49,139.73,214.55,139.74z"/>
		<path class="st6" d="M316.89,140.13c6.08-0.32,12.15-0.67,18.23-0.93c2.61-0.11,3.21,0.71,3.41,3.4c0.59,8.28-3.76,11.76-10,14.09
			c-5.53,2.07-11.25,2.48-16.91,0.83c-6.84-1.99-10.88-7.98-10.77-14.96c0.03-1.8,1.27-1.97,2.52-1.99
			C307.88,140.52,316.89,140.27,316.89,140.13z"/>
		<path class="st6" d="M241.35,139.64c5-0.17,5.53,3.1,3.93,6.47c-3.06,6.42-8.21,10.48-14.97,12.38
			c-6.81,1.92-13.45,1.39-19.06-3.27c-4.15-3.44-5.99-8.16-5.3-13.63c0.18-1.41,1.13-2.29,2.7-2.28c1.97,0.02,3.93,0,5.9,0
			C214.55,139.46,232.43,139.93,241.35,139.64z"/>
	</g>
</g>
<path class="st6" d="M228.29,142.23"/>
<path class="st6" d="M366.51-116.52"/>
<path class="st6" d="M523.87-90.71"/>
</svg>
