<?xml version="1.0" encoding="utf-8"?>
<!-- Generator: Adobe Illustrator 23.0.1, SVG Export Plug-In . SVG Version: 6.00 Build 0)  -->
<svg version="1.1" id="Layer_1" xmlns="http://www.w3.org/2000/svg" xmlns:xlink="http://www.w3.org/1999/xlink" x="0px" y="0px"
	 viewBox="0 0 502.1 430.1" style="enable-background:new 0 0 502.1 430.1;" xml:space="preserve">
<style type="text/css">
	.st0{fill:#F0F0F0;}
	.st1{fill:#3DA9FC;}
	.st2{fill:#EF4565;}
	.st3{fill:#D8EEFE;}
	.st4{fill:#094067;}
	.st5{fill:#5F6C7B;}
	.st6{fill:#E1E1E2;}
	.st7{fill:#E0E0E1;}
	.st8{fill:#0075C3;}
	.st9{fill:#8B1D51;}
	.st10{fill:#FFFFFE;}
	.st11{fill:#000022;}
</style>
<g>
	<g>
		<path class="st0" d="M218.3,351.1c-0.5,0.9-1,1.8-1.6,2.7c-1.5-1.3-3-2.7-4.5-4c-0.4-0.6-0.8-1.4-1.3-1.9c-5-4.5-11.2-6-17.6-6.3
			c-6.7-0.3-13.4,0-20,0c-8.1-0.3-15.7-2.8-23.2-5.7c-0.3-0.1-0.4-0.4-0.6-0.7c0,0-0.1,0-0.2,0.1c-0.1,0-0.1,0.1-0.1,0.2
			c-0.4-0.4-0.8-1-1.3-1.3c-4.6-2.8-8.6-6.2-12-10.5c-5.2-6.7-8.2-14.3-8.9-22.8c-0.6-6.9,1-13.5,4.1-19.7
			c5.4-10.5,13.6-18.3,22.9-25.3c10.9-7.9,22.6-14.1,35.1-18.9c1.5-0.6,2.8-1.4,4.2-2.1c3.6,0.7,6.3,2.9,8.9,5.2
			c7.5,6.6,12.5,15.3,18.3,23.3c3.6,4.9,7.3,9.7,11.3,14.4c3.9,4.6,8.8,8.2,14.1,11.3c0.1,1,0,2.1,0.3,3.1c2.3,8.3,3.8,16.7,4,25.2
			c0.1,6-0.8,12-1.4,18c-0.4,3.4-1.2,6.7-1.9,10.4c9.4-5.8,18.8-10.5,29.8-10.3c10.9,0.2,20.2,5.4,29.4,11
			c-1.1-7.4-2.8-14.2-3.1-21.1c-0.3-7,0.7-14.1,1.1-20.8c-2.1,3.3-4.2,6.9-6.6,10.2c-1.2,1.7-3.9,3.4-6.3,2.3
			c-2.6-1.1-5.4-1.9-8-2.8c1.6-4.2,3.2-8.5,4.8-12.7c1.1-0.1,2.3-0.4,3.4-0.3c2.5,0.2,5,0.7,7.1,1c0-2.5-0.1-5.3,0-8
			c0.1-1.3,0.6-2.6,0.9-3.9c7.1-4.2,12.8-9.9,17-16.9c5.1-8.7,9.7-17.7,14.5-26.6c2.8-5.2,6.1-9.9,10.6-13.8
			c1.4-1.2,3.1-1.9,4.7-2.8c6.8,2,13.6,3.8,20.3,6c10.8,3.6,20.7,9,29.4,16.5c9.3,8.1,15.1,18.1,17.3,30.2c0.6,3.1,1.4,6.4,1.2,9.5
			c-0.4,9.5-2.6,18.4-8.8,26.1c-6.2,7.6-14.6,11-23.5,13.5c-8.5,2.4-17,4.6-25.4,7.1c-5,1.5-9.6,3.9-13.3,7.6
			c-2.8,2.8-4.8,6.3-7.2,9.5c-0.7,1-1.3,2-2.1,3.5c-5.3-7.9-9.3-15.6-6.7-25.3c-4.7,7.1-10,13.7-16.2,19.5c-2.6,2.4-5.5,4.5-8.3,6.7
			c-5.4,2.4-10.8,4.7-16.1,7.1c-5.1,0.4-10.2,1.2-15.4,1.2c-3.5,0-7-1-10.5-1.6c-4.5-1.9-9.2-3.6-13.6-5.6c-2.6-1.2-4.9-3-7.3-4.5
			c-0.6-0.6-1.2-1.1-1.8-1.7c-6.1-7-12.3-14-18.3-20.9c1,3,1.1,6.3,0.3,9.6C219.6,346.5,218.9,348.8,218.3,351.1z M205.6,316.9
			c-0.3-0.5-0.6-1.1-1-1.6c-7.2-9.3-13.2-19.2-15.4-31.5c-1.2,5.7-1.4,11-0.3,16.2c0.2,0.9,0.6,1.6,1,2.5c-0.1,0.3-0.5,0.7-0.4,0.9
			c1.4,2.8,2.3,6,4.3,8.4c4.8,6,11.8,9.2,18.4,12.8C209.9,322,207.8,319.5,205.6,316.9z M334.1,324.3c3.3-2.7,6.6-5.4,9.9-8.1
			c9.2-7.5,15.3-16.6,13.9-29.1c-0.3-2.9-1.3-5.8-2-8.7C352.2,295.6,342.7,309.7,334.1,324.3z M190.2,252.3
			c-3.9,11.4-4.4,27.2-0.7,30.5C186.7,272.3,188.8,262.3,190.2,252.3z M354.1,254.7c1.9,7.5,2.7,15.2,1.9,23
			C358.1,269.8,358.2,262.1,354.1,254.7z"/>
		<path class="st1" d="M153.9,255.9c-9.3,7-17.5,14.8-22.9,25.3c-3.2,6.2-4.7,12.8-4.2,19.7c0.7,8.4,3.7,16.1,8.9,22.8
			c3.3,4.3,7.4,7.7,12,10.5c0.5,0.3,0.9,0.9,1.3,1.3c-0.3,1.4-1.2,0.4-1.6,0.2c-1.7-0.7-3.3-1.8-5-2.4c-13.6-4.6-26.9-10.1-39.5-17
			c-11.4-6.2-22.3-13.2-32.1-21.6c-6.2-5.3-12.4-10.5-18-16.3c-11.8-12.1-21.5-25.8-28.5-41.3c-3.9-8.6-7-17.6-8.3-27
			c-0.7-5.1-1.1-10.4-0.9-15.6c0.3-8.5,2.4-16.7,5.5-24.7c4-10.2,9.5-19.4,16.6-27.7c5.3-6.2,11.3-11.8,17.2-17.4
			c8.4-7.9,18.1-14.1,28.1-19.7c8.6-4.8,17.6-9,26.7-12.9c8.9-3.8,18-7.2,27.3-10.2c9-2.9,18.2-5,27.3-7.4c0.5-0.1,1.2,0,1.7,0
			c-0.2,0.8-0.3,1.7-0.5,2.6c-2.1-0.7-2.4,1-2.9,2.2c-2.2,5.4-1.8,11-1.9,16.7c-0.6,3.3-1.4,6.6-1.7,9.9c-0.7,7.3-1.4,14.7-1.7,22
			c-0.2,5.3,0.5,10.5,0.7,15.8c-0.4,0-0.7,0-1.1,0.1c-7.8,2.8-15.2,6.6-21.8,11.7c-2.3,1.8-4.3,3.9-6.4,5.9
			c4.3-2.2,8.1-4.9,12.2-7.2c5.4-3.1,11.4-4.6,17.5-5.8c0.9,4.2,1.8,8.4,2.7,12.6c1.9,8.9,4.9,17.2,9.9,24.8c0.8,1.2,1.3,2.5,2,3.8
			c-0.6-0.2-1.3-0.3-1.8-0.6c-8.6-5.4-18-5.6-27.6-4.5c-5.9,0.7-11.1-0.6-15.7-4.2c-4.7-3.7-9.1-7.7-13.7-11.4
			c-3.6-2.9-7.7-4.1-12.2-2.7c-2.6,0.8-5.1,1.7-7.5,2.9c-7.6,3.7-15,4.2-22.4-0.2c-4.4-2.6-8.9-5.2-13.4-7.7
			c-0.7-0.4-1.5-0.4-2.8-0.8c3,9.5,5.5,18.5,8.7,27.3c2.6,7.4,6.7,13.9,12.9,19c8.2,6.6,17.5,8.7,27.7,8c8.1-0.5,16.2-1.4,24.3-1.7
			c5.9-0.2,11.6,1.1,16.8,3.9c4.7,2.5,9.2,5.2,13.8,7.9c2.4,1.4,4.8,2.9,7.2,4.4c-0.8,0.4-1.6,0.9-2.4,1.3
			c-5.3,3-10.1,6.6-12.9,12.4C149.9,246.9,150.8,253.1,153.9,255.9z M112.2,290c-5.8-5.8-11.6-11.3-17.2-17.2
			c-5.5-5.9-10.3-12.4-14.4-19.4c-4.1-7.1-7.3-14.6-9.4-22.5c-2-7.6-3.6-15.4-5.2-22.8c-0.2,1.1-0.5,2.6-0.5,4.1
			c-0.1,8.3-0.3,16.7,1.3,25c2.1,11.5,7,21.5,14.9,30c6.3,6.8,13.6,12.5,21.4,17.4C106.1,286.7,109.2,288.3,112.2,290z M148.7,103.2
			c-26.6,0.2-60.7,22.9-72,48.2c10.5-10.7,21.4-20.1,33.4-28.2C122.2,115.2,135.2,108.9,148.7,103.2z M109.2,226.1
			c-2.1,16.5,2,30.7,13,42.8C116.7,255.1,112.2,241,109.2,226.1z"/>
		<path class="st2" d="M167,229.1c-2.4-1.5-4.8-2.9-7.2-4.4c-4.6-2.7-9.1-5.4-13.8-7.9c-5.2-2.8-10.9-4.1-16.8-3.9
			c-8.1,0.3-16.2,1.1-24.3,1.7c-10.2,0.7-19.6-1.4-27.7-8c-6.3-5.1-10.3-11.6-12.9-19c-3.1-8.8-5.7-17.8-8.7-27.3
			c1.3,0.3,2.1,0.4,2.8,0.8c4.5,2.5,8.9,5.1,13.4,7.7c7.4,4.4,14.9,3.9,22.4,0.2c2.4-1.2,5-2.1,7.5-2.9c4.6-1.5,8.7-0.2,12.2,2.7
			c4.7,3.7,9,7.7,13.7,11.4c4.6,3.6,9.8,4.9,15.7,4.2c9.6-1.1,19-1,27.6,4.5c0.5,0.3,1.2,0.4,1.8,0.6c0.4,0.2,0.8,0.3,1.1,0.6
			c4.1,4.2,7.9,8.8,12.3,12.5c8.7,7.3,18.4,12.9,29,17.3c15.1,6.3,30.8,9.8,47,11c6,0.5,12.1,0.1,18.2,0.1c8.4,0,16.6-1.3,24.8-3
			c15.7-3.3,30.5-8.9,43.4-18.5c4.3-3.2,8.1-7,12-10.8c2.3-2.2,4.1-4.8,6.1-7.2c2.9-0.3,5.8-0.5,8.6-0.9
			c11.9-1.5,21.8-6.5,28.7-16.7c3.9-5.8,9.4-9.4,16.2-11c6.7-1.6,13.5-0.9,20.1,0.3c7,1.2,14.1,1.8,21.2,1.5c1.5-0.1,3-0.8,4.5-1.2
			c6.4-1,11.9-3.9,16.9-7.7c4.7-3.6,9-7.7,13.4-11.6c0.4-0.3,0.8-0.6,1.4-1.1c0.3,0.6,0.6,1.1,0.6,1.6c0.3,9.3,0.2,18.6-3,27.5
			c-2.8,7.9-6.8,14.8-13.6,19.9c-1.4,1-3.1,1.6-4.7,2.4c-7.5,2.2-15.4,1.6-23,2.7c-3.2,0.5-6.6,1.6-9.3,3.3
			c-4.2,2.6-8.1,5.8-11.8,9.2c-6.8,6.2-14.6,8.8-23.7,8.5c-4.5-0.2-9-0.5-13.5-0.4c-3.7,0.1-7.4,0.7-10.5,2.9
			c-3.9,2.1-7.7,4.4-11.8,6.1c-2.4,1-5.4,1.3-8,0.9c-6.5-0.9-12.6-0.5-18.6,2.3c-0.2,0.1-0.4,0.1-0.6,0.1c-1.6,0.9-3.4,1.6-4.7,2.8
			c-4.5,3.8-7.8,8.6-10.6,13.8c-4.7,8.9-9.3,17.9-14.5,26.6c-4.1,7-9.9,12.7-17,16.9c-2.7,1.4-5.3,2.8-8,4.2c-0.7,0.4-1.7,0.8-2,1.5
			c-0.7,1.8-1,3.7-1.4,5.6c-1.6,4.2-3.2,8.5-4.8,12.7c-1,2.2-2,4.3-3.2,7c-0.5-1.6-0.8-2.8-1.3-3.8c-1-2-1-4.6-3.5-5.7
			c0.1-0.5,0.4-1.1,0.2-1.3c-1.6-2.2-3.4-4.4-5.1-6.6c-0.1-0.3-0.1-0.8-0.3-1c-1.5-1.3-2.9-2.9-4.7-3.9c-6.4-3.5-13-6.7-19.5-10
			c-5.2-3.1-10.1-6.7-14.1-11.3c-3.9-4.6-7.7-9.4-11.3-14.4c-5.8-8-10.8-16.7-18.3-23.3c-2.6-2.3-5.4-4.5-8.9-5.2
			c-3.1-0.6-6.1-1.4-9.2-1.8C178.2,232.5,172.5,231.4,167,229.1z M289.7,293.6c0.3,0.1,0.7,0.2,1,0.3c2.6-5.7,4.4-11.8,5-18
			c1-11-3-20.8-8.1-30.2c1.3,7.9,3.4,15.7,4.1,23.7C292.4,277.5,292.1,285.7,289.7,293.6z"/>
		<path class="st0" d="M366.5,191.6c-2,2.4-3.9,5-6.1,7.2c-3.9,3.8-7.7,7.6-12,10.8c-13,9.6-27.7,15.2-43.4,18.5
			c-8.2,1.7-16.4,3-24.8,3c-6.1,0-12.2,0.4-18.2-0.1c-16.2-1.2-31.9-4.7-47-11c-10.5-4.4-20.3-10-29-17.3
			c-4.4-3.8-8.2-8.3-12.3-12.5c-0.3-0.3-0.7-0.4-1.1-0.6c-0.6-1.3-1.2-2.6-2-3.8c-5.1-7.6-8.1-15.9-9.9-24.8
			c-0.9-4.2-1.8-8.4-2.7-12.6c-0.1-1.6-0.3-3.2-0.4-4.8c-0.3-5.3-0.9-10.6-0.7-15.8c0.2-7.3,1-14.7,1.7-22c0.3-3.3,1.1-6.6,1.7-9.9
			c1.9,5.7,3.4,11.5,5.6,17c3.2,8,4.6,16.1,4.1,24.7c-0.3,4.1-0.6,8.2-0.9,12.3c-0.2,2-0.5,4-0.7,6c-0.4,5.3-0.2,10.5,1.8,15.5
			c2.5,6.3,7.6,10.2,13.4,13.2c9.1,4.7,19.1,6.4,29.2,7c7.2,0.4,14.3-0.4,21.2-2.2c7.9-2,15.1-5.5,20.8-11.5
			c5-5.2,8.4-11.3,10.1-18.2c1.5-6.1,1.5-12.4,0.1-18.6c-1.2-5.1-3.4-9.6-6.1-14.1c-5.1-8.7-12.6-14.5-21.9-18.1
			c-10.3-4-21.1-4.9-32-6c-5.8-0.6-11.5-1.5-16.9-3.6c-7.5-2.8-14.1-6.9-18.5-13.8c-1.7-2.7-3-5.7-4.5-8.5c0.2-0.8,0.3-1.7,0.5-2.6
			c1.3-3,2.6-6,3.9-9c1.4-3.1,4.2-9.5,7-11.3c1.6,2.6,3,5.4,4.8,7.9c2.5,3.2,5.3,6.2,8.1,9.2c0.3,0.4,1,0.4,1.5,0.6
			c0.4,0.6,0.7,1.3,1.3,1.6c2,1.4,4,2.9,6.1,4.1c5.3,2.9,10.7,5.6,16.7,6.9c0.7,0.4,1.4,1.1,2.2,1.3c5.8,1.3,11.5,2.6,17.3,3.8
			c0.3,0.1,0.8-0.2,1.1-0.3c2.8,0.7,5.6,1.5,8.3,2.2c8.8,2.3,16.2,6.9,21.4,14.5c2.7,4,5,8.2,7.5,12.3c1.7-3.2,3.4-6.7,5.2-10.1
			c3.1-5.8,7.5-10.6,12.7-14.6c6.3-4.8,13.3-8.1,21-10.1c2.4-0.6,4.7-1.1,7-1.7c4.4-1.1,8.8-2,13.1-3.2c3-0.8,5.9-2,8.8-3
			c4.4-0.6,7.8-3.1,11.3-5.5c4.7-3.2,8.5-7.4,11.7-12.1c1.3-1.9,2.5-1.8,3.4,0.4c2.1,5.6,4.1,11.4,6,17.1c0.9,2.7,1.5,5.6,2.3,8.3
			c-0.8,1.4-1.4,3-2.4,4.2c-9,10.4-20.9,15.3-34.2,17.2c-5.3,0.8-10.8,1.1-16.2,1.3c-6.2,0.3-12.1,1.6-17.7,4.1
			c-8.1,3.5-15,8.6-18.6,16.7c-4.5,10-6,20.5-4.2,31.5c2,12.6,8.9,21.3,20.2,26.5c9.4,4.3,19.3,6.1,29.7,5.4
			c8.7-0.6,16.9-2.7,24.7-6.4c8.2-3.9,12.1-10.6,12.9-19.1c0.7-7.8-0.4-15.6-1.4-23.3c-0.5-3.8-0.8-7.8,0.1-11.5
			c1.4-6,3.9-11.8,5.7-17.7c1.4-4.5,2.7-9,4-13.5c0.1,0.2,0.4,0.4,0.4,0.7c0.9,7.5,1.8,15,2.7,22.5c0,2,0,4.1,0,6.1
			c-0.2,5.7-0.1,11.4-0.5,17c-0.4,5.2-1.2,10.4-2,15.6c-0.6,3.5-1.5,6.9-2.3,10.3c-0.3,0.6-0.5,1.2-0.8,1.8
			c-1.6,3.5-3.1,7.1-4.7,10.6C369.4,186.5,367.9,189.1,366.5,191.6z M260.7,183.2c0.2,0.3,0.3,0.4,0.5,0.6
			c3.8,3.6,7.6,7.3,11.4,10.9c1.2,1.2,2.4,1.3,3.4-0.2c2-3.1,3.9-6.3,5.9-9.4c1-1.5,0.5-2.3-1-3.2c-2.1-1.4-4.1-3-5.8-4.9
			c-1.4-1.5-2.2-3.5-3.3-5.3C269.6,177.1,265.9,180.8,260.7,183.2z"/>
		<path id="cape-01" class="st1" d="M385,220.9c3.1-2.2,6.8-2.9,10.5-2.9c4.5-0.1,9,0.2,13.5,0.4c9,0.3,16.9-2.3,23.7-8.5
			c3.7-3.4,7.6-6.5,11.8-9.2c2.7-1.7,6.1-2.8,9.3-3.3c7.6-1.1,15.5-0.5,23-2.7c0.4,3.6,0.9,7.3,1.3,10.9c0.4,3.2,1.1,6.4,1.3,9.6
			c0.4,7.7,1,15.4,0.9,23c-0.2,11.5-1.7,22.9-5,34.1c-3.5,12.1-8.7,23.4-16,33.7c-2.2,3.1-4.8,5.9-7.3,8.8
			c-10.4,12-24,19.3-38.1,25.9c-11.9,5.5-24,10.5-35.9,16.2c-6.5,3.1-12.9,6.8-17.9,12.4c-1.5,1.7-2.8,3.8-4.6,6.2
			c-0.1-1.4-0.4-2.4-0.3-3.3c1.5-7.6,6.3-13,12.1-17.7c5.7-4.7,11.5-9.2,17.3-13.8c4.8-3.8,9.8-7.2,14.2-11.4
			c6.6-6.1,13.1-12.3,17.3-20.6c3.5-6.9,5.7-14,6.5-21.7c1.4-13.7-1-26.7-7-39.2c-3.3-7-7.2-13.4-12.8-18.8
			c-4.3-4.1-9.5-6.6-15.4-7.6C386.7,221.3,385.8,221.1,385,220.9z M452,219.1c7.1,29.9,1.2,57.7-13,84.2
			c10-13.2,17.8-27.5,19.3-44.2C459.7,245.4,457,232.1,452,219.1z M425.1,227.4c1.7,6.5,3.8,12.9,4.9,19.4c1.1,6.5,1.3,13.2,2,20.4
			C435,252.6,433.4,239.4,425.1,227.4z"/>
		<path class="st3" d="M318.8,81.9c-2.4,0.6-4.7,1.1-7,1.7c0.5-3.9,1-7.8,1.3-11.7c0.3-3.4-1.4-5.7-4.1-7.7
			c-5.3-3.7-11.2-5.8-17.3-7.7c-6.6-2.1-13.5-2.9-20.4-3c-3.5-0.1-7.1,0.7-10.6,1.3c-8.9,1.5-17.1,4.9-24.2,10.4
			c-2.5,1.9-4,4.4-4,7.9c0,5.7,1.8,10.9,3.2,16.2c-0.4,0.1-0.8,0.4-1.1,0.3c-5.8-1.2-11.6-2.5-17.3-3.8c-0.8-0.2-1.4-0.8-2.2-1.3
			c-3-2.9-6-5.8-9-8.7c-1.7-1.6-3.6-3-5.4-4.4c-1.9-1.8-3.9-3.7-6-5.7c0.8-0.5,1.7-1.2,2.6-1.7c7.3-4.3,14.8-8.1,21.8-12.8
			c7.8-5.2,15.2-10.9,22.6-16.7c7.6-5.9,15.1-12.1,22.6-18.2c5.2-4.2,10.3-8.6,15.5-12.9c1.9-1.6,2.2-1.5,3.8,0.5
			c3.6,4.4,7.2,8.9,11,13.1c5.1,5.7,10.4,11.3,15.9,16.7c2.7,2.7,5.9,5,8.8,7.5c0.2,0.7,0.4,1.4,0.5,2.1c0.3,3.7,0.6,7.4,0.9,11.1
			c0,0.4-0.2,0.8-0.5,1.1c-3.5,3.1-4.3,6.4-2.6,11.2c3.5-0.3,7-0.7,10.6-1c0-1.4,0.1-2.6,0-3.8c-0.3-2.9-1-5.5-4.3-6.5
			c-0.4-0.1-0.9-0.9-0.9-1.4c0-2.5,0.2-5,0.4-7.5c0-0.5,0.5-0.9,0.8-1.4c5.1,3.9,10.2,7.8,15.3,11.8c1.1,0.8,2.2,1.5,3.2,2.5
			c1.3,1.4,0.2,2.3-0.9,3.2c-4.1,3.5-8.3,7-12.4,10.5c-2.7,2.1-5.5,4.1-8.1,6.3C320.2,80.1,319.5,81.1,318.8,81.9z"/>
		<path class="st1" d="M366.5,191.6c1.4-2.6,2.9-5.1,4.1-7.8c1.7-3.5,3.2-7.1,4.7-10.6c1.9,0.9,3.8,1.9,5.7,2.9
			c-0.6-0.9-1.5-1.7-2.3-2.4c-0.9-0.8-1.7-1.5-2.6-2.2c0.8-3.4,1.7-6.8,2.3-10.3c0.8-5.2,1.6-10.4,2-15.6c0.4-5.6,0.4-11.3,0.5-17
			c1.9,0.9,3.9,1.7,5.7,2.7c7.1,4,13.9,8.4,19.9,14c2.1,2,4.3,3.9,6.5,5.8c-9.1-11.4-20-20.6-32.1-28.5c-0.9-7.5-1.8-15-2.7-22.5
			c0-0.2-0.3-0.5-0.4-0.7c0.3-1.4,0.6-2.8,0.8-4.2c0.5-2.6,0.9-5.1,1.3-7.7c4.9,2.6,9.9,5,14.6,7.9c8,5.1,15.8,10.4,23.5,15.8
			c3.2,2.2,6.1,4.8,9,7.4c7.8,7,15.1,14.6,21.6,22.9c5.2,6.5,10.1,13.3,15.2,19.9c0.6,0.8,1.3,1.5,2,2.3c-1.5,0.4-3,1.1-4.5,1.2
			c-7.1,0.3-14.2-0.3-21.2-1.5c-6.6-1.1-13.4-1.8-20.1-0.3c-6.8,1.6-12.3,5.2-16.2,11c-6.9,10.3-16.8,15.2-28.7,16.7
			C372.3,191.2,369.4,191.4,366.5,191.6z"/>
		<path class="st4" d="M380.1,87.5c-0.4,2.6-0.9,5.1-1.3,7.7c-0.3,1.4-0.6,2.8-0.8,4.2c-1.3,4.5-2.6,9-4,13.5
			c-1.9,5.9-4.3,11.7-5.7,17.7c-0.9,3.6-0.6,7.7-0.1,11.5c1,7.8,2.1,15.5,1.4,23.3c-0.8,8.6-4.7,15.2-12.9,19.1
			c-7.9,3.7-16,5.9-24.7,6.4c-10.4,0.7-20.3-1.1-29.7-5.4c-11.3-5.2-18.2-13.9-20.2-26.5c-1.8-11-0.2-21.5,4.2-31.5
			c3.7-8.2,10.6-13.3,18.6-16.7c5.6-2.4,11.5-3.8,17.7-4.1c5.4-0.3,10.8-0.6,16.2-1.3c13.3-1.9,25.2-6.8,34.2-17.2
			c1-1.2,1.6-2.8,2.4-4.2c0.6-0.7,1.1-1.5,1.8-2c0.6-0.5,1.3-0.9,2-0.9c0.3,0,0.8,1,0.9,1.6C380.1,84.3,380,85.9,380.1,87.5z
			 M351.2,146.9c-0.2-6.4-1.8-12.9-5.4-18.7c-2.8-4.5-6.7-7.6-12-8.8c-4.5-1.1-9.1-1.4-13.6-0.8c-4.7,0.7-9.3,1.9-13.2,4.7
			c-8.7,6.2-12.6,15.2-12.9,25.5c-0.2,7.4,3.4,13.5,9.2,18.4c6.8,5.7,14.5,8.5,23.5,7.9c6.7-0.4,12.2-3.2,16.7-7.9
			C348.8,161.8,351.1,154.9,351.2,146.9z"/>
		<path class="st4" d="M239.9,357.2c2.4,1.5,4.7,3.3,7.3,4.5c4.4,2.1,9.1,3.8,13.6,5.6c-1.2,7.1-2.2,14.3-3.8,21.4
			c-0.9,4-2.4,8.1-4.5,11.5c-2,3.2-5,6.1-8.2,8.1c-7.6,4.7-15.9,8-24.5,10.4c-5.4,1.5-9.9,0.4-13.9-3.6c-0.6-0.6-1.9-0.9-2.8-0.7
			c-5.9,0.9-11.3-0.3-15.5-4.6c-6.4-6.5-4.1-14.5,1.9-19.2c4.5-3.6,10.1-4.7,15.6-5.8c4.9-1,9.9-1.9,14.8-2.9
			c7.1-1.5,12-6,15.1-12.4C236.9,365.6,238.2,361.3,239.9,357.2z M205.1,413.4c-2.9-4.6-2.1-8.9,0-13.2c-3,0.8-5,3.7-5.1,7.3
			C199.9,409.8,202,412.5,205.1,413.4z"/>
		<path class="st4" d="M286.6,367.8c5.4-2.4,10.8-4.7,16.1-7.1c4,5.4,8,10.7,12,16.1c2.8,3.8,6.9,4.8,11.3,4.9
			c6.2,0.2,12.4,0.2,18.5,0.5c3,0.1,6,0.6,9,1.3c4.2,1,7.5,5.6,7.6,10c0,2.6-0.2,5.1-1.7,7.4c-1.6,2.3-3.8,3.4-6.6,3.5
			c0.1-0.7,0.2-1.4,0.3-2.1c1.5-7.5-5.7-11.5-11.3-10.6c3.9,1.1,6.7,3.1,8.4,6.3c1,2,1.4,4.4,2.1,6.6c-0.7,6-5.1,10.1-11.1,10
			c-8.2-0.1-16.1-2.1-23.9-4.2c-5.3-1.4-10.4-3.3-15.5-5.1c-4.7-1.6-6.5-5.6-7.8-10c-2.4-8.6-4.7-17.3-7-25.9
			C286.9,368.9,286.8,368.3,286.6,367.8z"/>
		<path class="st4" d="M324,45.1c-0.3,0.5-0.8,0.9-0.8,1.4c-0.2,2.5-0.4,5-0.4,7.5c0,0.5,0.5,1.2,0.9,1.4c3.3,1,4,3.6,4.3,6.5
			c0.1,1.2,0,2.3,0,3.8c-3.6,0.3-7.1,0.7-10.6,1c-1.7-4.8-0.9-8.2,2.6-11.2c0.3-0.3,0.5-0.7,0.5-1.1c-0.3-3.7-0.6-7.4-0.9-11.1
			c-0.1-0.7-0.3-1.4-0.5-2.1c0.3,0,0.6,0,0.9,0C324,41.1,324,41.2,324,45.1z"/>
		<path class="st1" d="M218.3,351.1c0.6-2.3,1.2-4.6,1.8-6.9c0.8-3.3,0.7-6.6-0.3-9.6c6,6.9,12.2,13.9,18.3,20.9
			c-1.7-0.4-3.5-0.9-5.2-1.3C228,353.1,223.2,352.1,218.3,351.1z"/>
		<path class="st1" d="M173.2,341.6c6.7,0,13.4-0.2,20,0c6.5,0.3,12.6,1.8,17.6,6.3c0.6,0.5,0.9,1.2,1.3,1.9c-2.5-0.5-5-1-7.5-1.5
			c-8.3-1.7-16.5-3.3-24.8-5C177.6,342.8,175.4,342.1,173.2,341.6z"/>
		<path class="st1" d="M200.5,71.5c1.8,1.5,3.7,2.8,5.4,4.4c3.1,2.8,6,5.8,9,8.7c-6-1.3-11.4-4-16.7-6.9c-2.1-1.2-4.1-2.6-6.1-4.1
			c-0.5-0.4-0.8-1.1-1.3-1.6C194.1,71.8,197.3,71.6,200.5,71.5z"/>
		<path class="st1" d="M318.8,81.9c0.8-0.9,1.4-1.8,2.3-2.6c2.7-2.2,5.4-4.2,8.1-6.3c3.4,0.7,6.7,1.4,10.1,2.2
			c0.5,0.1,0.9,0.3,1.4,0.5c-2.9,1-5.8,2.2-8.8,3C327.5,79.9,323.1,80.9,318.8,81.9z"/>
		<path class="st5" d="M352.4,404.5c-0.7-2.2-1.1-4.5-2.1-6.6c-1.7-3.2-4.6-5.2-8.4-6.3c5.5-0.9,12.8,3.1,11.3,10.6
			c-0.1,0.7-0.2,1.4-0.3,2.1C352.6,404.4,352.5,404.5,352.4,404.5z"/>
		<path class="st4" d="M245.8,289c6.5,3.3,13.1,6.5,19.5,10c1.8,0.9,3.1,2.5,4.7,3.9c0.2,0.2,0.2,0.7,0.3,1
			c-0.7,0.1-1.4,0.4-2.1,0.4c-2,0-3,0.9-2.7,3c0.3,2.3,0.6,4.6,0.9,6.8c0.1,0.5,0.1,1,0.1,1.8c1.8-0.9,3.4-1.8,5.1-2.5
			c1.2-0.5,2.4-1,3.5-1.5c2.4,1.1,2.4,3.7,3.5,5.7c0.5,1,0.8,2.1,1.3,3.8c1.2-2.6,2.2-4.8,3.2-7c2.7,0.9,5.4,1.7,8,2.8
			c2.4,1,5.1-0.6,6.3-2.3c2.4-3.4,4.5-6.9,6.6-10.2c-0.4,6.7-1.4,13.8-1.1,20.8c0.3,6.9,2,13.8,3.1,21.1c-9.2-5.6-18.5-10.8-29.4-11
			c-11-0.2-20.4,4.5-29.8,10.3c0.7-3.7,1.5-7,1.9-10.4c0.7-6,1.6-12,1.4-18c-0.2-8.5-1.7-17-4-25.2C245.8,291.1,245.9,290,245.8,289
			z"/>
		<path class="st1" d="M189.8,302.5c2.9,3.1,5.7,6.5,8.8,9.4c2.1,2,4.6,3.4,7,5c2.2,2.5,4.3,5.1,6.5,7.6
			c-6.6-3.7-13.6-6.8-18.4-12.8c-1.9-2.4-2.9-5.5-4.3-8.4C189.4,303.2,189.7,302.8,189.8,302.5z"/>
		<path class="st4" d="M287.9,301.5c0.5-1.9,0.8-3.8,1.4-5.6c0.2-0.6,1.2-1.1,2-1.5c2.6-1.4,5.3-2.8,8-4.2c-0.3,1.3-0.8,2.6-0.9,3.9
			c-0.1,2.8,0,5.6,0,8c-2.1-0.3-4.6-0.8-7.1-1C290.1,301.1,289,301.4,287.9,301.5z"/>
		<path class="st6" d="M190.2,252.3c-1.4,10-3.5,20.1-0.7,30.5C185.8,279.5,186.3,263.7,190.2,252.3z"/>
		<path class="st7" d="M354.1,254.7c4.1,7.3,4,15.1,1.9,23C356.8,269.9,356,262.3,354.1,254.7z"/>
		<path class="st4" d="M165.1,77.2c1.5,2.8,2.8,5.8,4.5,8.5c4.4,6.8,11,11,18.5,13.8c5.4,2.1,11.1,3,16.9,3.6c10.8,1.1,21.7,2,32,6
			c9.3,3.7,16.8,9.4,22,18.1c2.6,4.5,4.9,9,6.1,14.1c1.4,6.2,1.4,12.5-0.1,18.6c-1.7,6.9-5.1,13.1-10.1,18.2
			c-5.8,5.9-12.9,9.4-20.8,11.5c-6.9,1.8-14.1,2.6-21.2,2.2c-10.1-0.6-20.1-2.3-29.2-7c-5.8-3-10.9-6.9-13.4-13.2
			c-2-5-2.2-10.2-1.8-15.5c0.2-2,0.5-4,0.7-6c0.3-4.1,0.6-8.2,0.9-12.3c0.6-8.5-0.9-16.7-4.1-24.7c-2.2-5.5-3.8-11.3-5.6-17
			c0.1-5.6-0.4-11.3,1.9-16.7C162.6,78.2,163,76.5,165.1,77.2z M253.2,147.6c-0.1-0.6-0.4-1.8-0.5-2.9c-1.2-10.4-6.8-17.7-15.9-22.3
			c-6.6-3.4-13.6-4.9-21.1-4.2c-8.2,0.7-15,3.6-19.5,10.8c-4.2,6.7-5.9,13.9-5.2,21.9c0.9,9.8,5.7,17.3,13.5,22.8
			c6.6,4.6,14.1,6.2,22.3,5c7.5-1,13.6-4.4,18.6-10C250.7,162.9,252.7,155.8,253.2,147.6z"/>
		<path class="st8" d="M112.2,290c-3-1.7-6.2-3.3-9.1-5.2c-7.8-4.9-15.1-10.6-21.4-17.4c-7.9-8.5-12.8-18.6-14.9-30
			c-1.5-8.3-1.3-16.6-1.3-25c0-1.5,0.4-3,0.5-4.1c1.7,7.4,3.2,15.1,5.2,22.8c2.1,7.9,5.3,15.4,9.4,22.5c4.1,7,8.8,13.5,14.4,19.4
			C100.6,278.7,106.4,284.2,112.2,290z"/>
		<path class="st8" d="M148.7,103.2c-13.5,5.7-26.5,11.9-38.6,20c-12,8.1-22.9,17.5-33.4,28.2C88,126.1,122.1,103.4,148.7,103.2z"/>
		<path class="st8" d="M109.2,226.1c3.1,14.9,7.5,29,13,42.8C111.2,256.9,107.1,242.6,109.2,226.1z"/>
		<path class="st8" d="M157.7,143.7c0.1,1.6,0.3,3.2,0.4,4.8c-6.1,1.2-12.1,2.7-17.5,5.8c-4.1,2.3-7.9,5-12.2,7.2
			c2.1-2,4.1-4.1,6.4-5.9c6.6-5.2,13.9-8.9,21.8-11.7C156.9,143.8,157.3,143.8,157.7,143.7z"/>
		<path class="st9" d="M289.7,293.6c2.5-8,2.7-16.1,2-24.2c-0.7-7.9-2.8-15.8-4.1-23.7c5.2,9.4,9.1,19.2,8.1,30.2
			c-0.5,6.3-2.4,12.3-5,18C290.3,293.9,290,293.8,289.7,293.6z"/>
		<path class="st0" d="M275.2,311.8c-1.2,0.5-2.4,1-3.5,1.5c-1.6,0.8-3.3,1.6-5.1,2.5c0-0.8-0.1-1.3-0.1-1.8
			c-0.3-2.3-0.6-4.6-0.9-6.8c-0.3-2.1,0.7-2.9,2.7-3c0.7,0,1.4-0.3,2.1-0.4c1.7,2.2,3.4,4.4,5.1,6.6
			C275.6,310.7,275.3,311.3,275.2,311.8z"/>
		<path class="st4" d="M235.6,89.3c-1.4-5.3-3.1-10.6-3.2-16.2c0-3.5,1.5-6,4-7.9c7.2-5.5,15.3-8.9,24.2-10.4
			c3.5-0.6,7.1-1.3,10.6-1.3c6.9,0.1,13.8,0.9,20.4,3c6,1.9,12,4,17.3,7.7c2.7,1.9,4.5,4.2,4.1,7.7c-0.4,3.9-0.9,7.8-1.3,11.7
			c-7.6,2.1-14.7,5.3-21,10.1c-5.2,4-9.6,8.8-12.7,14.6c-1.8,3.4-3.6,6.8-5.2,10.1c-2.5-4.1-4.8-8.3-7.5-12.3
			c-5.2-7.6-12.6-12.2-21.4-14.5C241.2,90.8,238.4,90.1,235.6,89.3z"/>
		<path class="st5" d="M260.7,183.2c5.3-2.4,8.9-6.1,11.1-11.5c1.1,1.9,1.9,3.8,3.3,5.3c1.7,1.9,3.7,3.5,5.8,4.9c1.5,1,2,1.7,1,3.2
			c-2,3.1-3.9,6.3-5.9,9.4c-1,1.5-2.1,1.4-3.4,0.2c-3.8-3.7-7.6-7.3-11.4-10.9C261,183.6,260.9,183.5,260.7,183.2z"/>
		<path class="st8" d="M381,122.5c12,8,23,17.2,32.1,28.5c-2.2-1.9-4.3-3.8-6.5-5.8c-6-5.6-12.8-9.9-19.9-14c-1.8-1-3.8-1.8-5.7-2.7
			C381,126.6,381,124.6,381,122.5z"/>
		<path class="st8" d="M376.2,171.5c0.9,0.7,1.8,1.5,2.6,2.2c0.8,0.7,1.6,1.5,2.3,2.4c-1.9-0.9-3.8-1.9-5.7-2.9
			C375.6,172.7,375.9,172.1,376.2,171.5z"/>
		<path class="st8" d="M452,219.1c5,12.9,7.6,26.3,6.4,40.1c-1.5,16.7-9.4,30.9-19.3,44.2C453.2,276.8,459.2,249,452,219.1z"/>
		<path class="st8" d="M425.1,227.4c8.4,12.1,9.9,25.2,6.8,39.8c-0.6-7.2-0.8-13.9-2-20.4C428.8,240.3,426.8,233.9,425.1,227.4z"/>
		<path class="st10" d="M351.2,146.9c-0.1,8-2.5,14.8-7.8,20.3c-4.5,4.6-10,7.4-16.7,7.9c-9,0.6-16.6-2.2-23.5-7.9
			c-5.8-4.8-9.4-10.9-9.2-18.4c0.3-10.3,4.2-19.4,12.9-25.5c3.9-2.8,8.5-4,13.2-4.7c4.6-0.7,9.1-0.3,13.6,0.8
			c5.3,1.2,9.3,4.3,12,8.8C349.4,134.1,351,140.5,351.2,146.9z M316.9,140.1c0,0.1,0,0.3,0,0.4c-4.5,0-9,0-13.5,0
			c-1.3,0-2.5,0.2-2.5,2c-0.1,7,3.9,13,10.8,15c5.7,1.6,11.4,1.2,16.9-0.8c6.2-2.3,10.6-5.8,10-14.1c-0.2-2.7-0.8-3.5-3.4-3.4
			C329,139.5,323,139.8,316.9,140.1z"/>
		<path class="st5" d="M205.1,413.4c-3.1-0.9-5.2-3.6-5.1-5.9c0.1-3.6,2.1-6.5,5.1-7.3C203,404.5,202.2,408.7,205.1,413.4z"/>
		<path class="st10" d="M253.2,147.6c-0.5,8.2-2.5,15.3-7.9,21.2c-5,5.6-11.1,8.9-18.6,10c-8.2,1.1-15.7-0.4-22.3-5
			c-7.8-5.4-12.6-12.9-13.5-22.8c-0.7-8,1-15.2,5.2-21.9c4.5-7.2,11.3-10.1,19.5-10.8c7.5-0.7,14.5,0.8,21.1,4.2
			c9.1,4.6,14.7,11.9,15.9,22.3C252.9,145.8,253.1,147,253.2,147.6z M214.6,139.7c0-0.1,0-0.3,0-0.4c-2,0-3.9,0-5.9,0
			c-1.6,0-2.5,0.9-2.7,2.3c-0.7,5.5,1.1,10.2,5.3,13.6c5.6,4.7,12.3,5.2,19.1,3.3c6.8-1.9,11.9-6,15-12.4c1.6-3.4,1.1-6.6-3.9-6.5
			C232.4,139.9,223.5,139.7,214.6,139.7z"/>
		<path class="st11" d="M316.9,140.1c6.1-0.3,12.1-0.7,18.2-0.9c2.6-0.1,3.2,0.7,3.4,3.4c0.6,8.3-3.8,11.8-10,14.1
			c-5.5,2.1-11.3,2.5-16.9,0.8c-6.8-2-10.9-8-10.8-15c0-1.8,1.3-2,2.5-2C307.9,140.5,316.9,140.3,316.9,140.1z"/>
		<path class="st11" d="M241.4,139.6c5-0.2,5.5,3.1,3.9,6.5c-3.1,6.4-8.2,10.5-15,12.4c-6.8,1.9-13.4,1.4-19.1-3.3
			c-4.1-3.4-6-8.2-5.3-13.6c0.2-1.4,1.1-2.3,2.7-2.3c2,0,3.9,0,5.9,0C214.6,139.5,232.4,139.9,241.4,139.6z"/>
	</g>
</g>
<path class="st11" d="M228.3,142.2"/>
<path class="st11" d="M366.5-116.5"/>
<path class="st11" d="M523.9-90.7"/>
</svg>
