<?xml version="1.0" encoding="utf-8"?>
<!-- Generator: Adobe Illustrator 23.0.1, SVG Export Plug-In . SVG Version: 6.00 Build 0)  -->
<svg version="1.1" id="Layer_1" xmlns="http://www.w3.org/2000/svg" xmlns:xlink="http://www.w3.org/1999/xlink" x="0px" y="0px"
	 viewBox="0 0 864.3 622.7" style="enable-background:new 0 0 864.3 622.7;" xml:space="preserve">
<style type="text/css">
	.st0{fill:#7C7B9A;}
	.st1{stroke:#666590;stroke-width:5;}
	.st2{fill:#FC0101;stroke:#666590;stroke-width:2.5;}
	.st3{fill:#9C9C9C;stroke:#666590;stroke-width:2.5;}
	.st4{fill:#0CA8C8;stroke:#666590;stroke-width:2.5;}
	.st5{fill:#5D5C73;}
	.st6{fill:#9695AE;}
</style>
<g>
	<g>
		<path class="st0" d="M364.2,527.5c-1.9,0-3.7,0-5.6,0c-107.3,0-214.6,0-321.8,0c-3.8,0-7.4-0.5-11.1-1.5c-2.4-0.7-4.5-1.9-6.2-3.4
			c-6.2-5.1-9.3-11.9-9.3-20c0-0.7,0-1.4,0-2.2c0-153.9,0-307.9,0-461.8c0-4.4,0.3-8.6,2-12.7c0.9-2.3,2.2-4.3,3.8-6.1
			c4.9-5.7,11.2-8.3,18.6-8.3c1.6,0,3.2,0,4.8,0c262.1,0,524.1,0,786.2,0c1.9,0,3.7,0,5.6,0c9,0.3,15.7,4.4,20.3,12.2
			c2.1,3.6,2.9,7.5,3.1,11.5c0.1,1.1,0,2.3,0,3.5c0,153.6,0,307.3,0,460.9c0,2.7-0.1,5.5-0.5,8.2c-1.3,7.3-5.4,12.7-11.9,16.4
			c-4.3,2.4-8.8,3.2-13.6,3.2c-88.7,0-177.4,0-266.1,0c-20.7,0-41.5,0-62.2,0c-1.6,0-3.2,0.1-4.7,0.2c-0.3,0-0.6-0.1-0.9-0.1
			C451.2,527.6,407.7,527.6,364.2,527.5z M432.6,33.3c-130.2,0-260.3,0-390.5,0c-1.4,0-2.9,0-4.3,0c-1.9,0.1-2.6,0.8-2.8,2.6
			c-0.1,1,0,2,0,3c0,139.1,0,278.2,0,417.3c0,1,0,2,0,3c0.1,1.6,0.9,2.4,2.4,2.5c1.6,0.1,3.2,0.1,4.7,0.1c260.2,0,520.4,0,780.5,0
			c1,0,2,0,3,0c0.6,0,1.2,0,1.7-0.1c1.4-0.2,2.1-0.8,2.3-2.2c0.1-1.6,0.1-3.2,0.1-4.7c0-138.2,0-276.5,0-414.7c0-0.9,0-1.7,0-2.6
			c0-0.6,0-1.2,0-1.7c-0.2-1.6-0.9-2.4-2.4-2.5c-1.6-0.1-3.2-0.1-4.7-0.1C692.7,33.3,562.7,33.3,432.6,33.3z M124.2,494.8
			c0.3-6.6-5.8-11.2-11.7-11.2c-6.4,0-11.8,5.3-11.7,11.4c0.1,5.9,5.4,10.9,11.7,11C118.4,505.9,124.5,501.3,124.2,494.8z
			 M157.4,483.6c-5.5-0.2-11.9,4.2-11.9,11.1c0,6.4,5.6,11,11.3,11.3c5.4,0.2,12-4,12.1-10.9C169.2,488.2,163.1,483.6,157.4,483.6z
			 M68.8,505.9c1.9-0.3,4.6-0.9,6.7-2.8c3.2-2.9,4.7-6.3,3.8-10.7c-1.3-6.6-10.5-12.2-18.6-6.4c-3.2,2.3-5,5.7-4.6,9.6
			C56.6,501.5,62,506,68.8,505.9z"/>
	</g>
	<path class="st0" d="M512.9,575c-1.4,0-2.9,0.1-4.3,0.1c-52.1,0-104.2,0-156.3,0c-1.9,0-3.7-0.2-5.6-0.3c0.3-1.1,0.4-2.2,0.9-3.3
		c5-12.8,10.1-25.5,15.1-38.3c0.7-1.8,1.9-3.6,1.6-5.7c43.5,0,87,0,130.4,0c0,0.3,0.1,0.6,0.1,0.9c1.4,3.8,2.8,7.5,4.2,11.3
		C503.6,551.5,508.2,563.2,512.9,575z"/>
	<path class="st1" d="M432.6,33.3c130,0,260,0,390.1,0c1.6,0,3.2,0,4.7,0.1c1.6,0.1,2.3,0.9,2.4,2.5c0.1,0.6,0,1.2,0,1.7
		c0,0.9,0,1.7,0,2.6c0,138.2,0,276.5,0,414.7c0,1.6,0,3.2-0.1,4.7c-0.1,1.3-0.9,2-2.3,2.2c-0.6,0.1-1.1,0.1-1.7,0.1c-1,0-2,0-3,0
		c-260.2,0-520.4,0-780.5,0c-1.6,0-3.2,0-4.7-0.1c-1.5-0.1-2.3-0.9-2.4-2.5c-0.1-1,0-2,0-3c0-139.1,0-278.2,0-417.3c0-1,0-2,0-3
		c0.1-1.8,0.9-2.5,2.8-2.6c1.4-0.1,2.9,0,4.3,0C172.3,33.3,302.5,33.3,432.6,33.3z"/>
	<path class="st2" d="M124.2,494.8c0.3,6.6-5.8,11.2-11.8,11.1c-6.2,0-11.5-5-11.7-11c-0.1-6.1,5.3-11.3,11.7-11.4
		C118.4,483.6,124.5,488.2,124.2,494.8z"/>
	<path class="st3" d="M157.4,483.6c5.6,0,11.7,4.6,11.5,11.5c-0.2,6.9-6.7,11.1-12.1,10.9c-5.7-0.2-11.4-4.8-11.3-11.3
		C145.6,487.8,152,483.4,157.4,483.6z"/>
	<path class="st4" d="M68.8,505.9c-6.8,0.1-12.1-4.4-12.7-10.3c-0.4-4,1.4-7.3,4.6-9.6c8.1-5.8,17.3-0.1,18.6,6.4
		c0.9,4.4-0.6,7.9-3.8,10.7C73.4,505,70.7,505.6,68.8,505.9z"/>
	<path class="st5" d="M503.2,550.6c-49.1-0.2-98.2-0.4-147.2-0.6c5.4-13.9,8.2-21.1,8.2-21.1c0,0,0,0,0-1.4
		c5.9-0.1,16.2-0.2,29.1-0.2c52.5-0.3,101.4,0.2,101.4,0.2c0.1,0.6,0.1,0.9,0.1,0.9S497.7,536.1,503.2,550.6z"/>
</g>
<g>
	<path class="st6" d="M629.5,601c-0.2-4.3,0.1-8.6-0.1-13c-0.1-5.3-3-8.9-7.6-11.4c-2.4-1.4-4.9-1.4-7.5-1.4c-32.1,0-64.2,0-96.3,0
		c-1.7,0-3.5-0.1-5.2-0.1c-1.4,0-2.9,0.1-4.3,0.1c-52.1,0-104.2,0-156.3,0c-1.9,0-3.7-0.2-5.6-0.3c-1.7,0.1-3.4,0.3-5.1,0.3
		c-30.2,0-60.5,0-90.7,0c-3.6,0-6.9,0.5-9.9,2.5c-0.9,0.6-2,1.2-2.6,2.1c-1.6,2.7-2.9,5.6-2.9,8.9c0.1,3.9,0,7.8,0,11.7
		c0,2.2,0.4,4.3,1.5,6.2c1.2,2.1,2.6,4,4.4,5.2h381.7C626.8,609.3,629.7,604.8,629.5,601z"/>
	<path class="st5" d="M596.3,610.3c-117-0.1-234-0.1-351-0.2c-1.9,0-3.9,0-5.8,0c0.6,0.7,1.7,1.8,3.3,2.5c0.6,0.2,1.1,0.4,1.6,0.4
		c99.1,0.2,369.2,0.9,372.5,0.7c1.5-0.1,2.8-0.5,2.8-0.5c2.1-0.6,3.8-1.7,5.3-3C615.5,610.2,605.9,610.3,596.3,610.3z"/>
</g>
</svg>
