<?xml version="1.0" encoding="utf-8"?>
<!-- Generator: Adobe Illustrator 23.0.1, SVG Export Plug-In . SVG Version: 6.00 Build 0)  -->
<svg version="1.1" id="Layer_1" xmlns="http://www.w3.org/2000/svg" xmlns:xlink="http://www.w3.org/1999/xlink" x="0px" y="0px"
	 viewBox="0 0 691.2 388.8" style="enable-background:new 0 0 691.2 388.8;" xml:space="preserve">
<style type="text/css">
	.st0{fill:#0BA9C9;}
	.st1{fill:#EEEEEE;}
	.st2{fill:#EBEBEB;}
	.st3{fill:#0E0E3A;}
	.st4{fill:#0C4268;}
	.st5{fill:#2B5E76;}
	.st6{fill:#EEEEEF;}
	.st7{fill:#10103B;}
	.st8{fill:#0EAAC9;}
	.st9{fill:#DFDFE0;}
	.st10{fill:#626F7D;}
	.st11{fill:#028CB0;}
	.st12{fill:#F7F8F8;}
	.st13{fill:#1B4151;}
	.st14{fill:#030303;}
	.st15{fill:#14143E;}
</style>
<g>
	<path class="st0" d="M133.9,290.5c-25.4-8.9-58.8-20.7-78.7-52.9c-12.9-20.9-15.2-42.4-15.6-46.1c-0.7-7.1-2.2-24.2,5.1-44
		c2-5.4,5.6-14.8,13.8-24.6c9.4-11.2,19.6-16.6,27.7-20.8c4.9-2.5,20.7-10.3,43.5-12.7c21-2.3,37,1.2,50.1,4.1
		c32.6,7.2,55.4,20.3,73.7,30.8c44.3,25.5,73.7,56.7,91.2,78.7c-2.2,4.4-4.7,10.7-6.7,18.7l0,0c-1.3,5.8-3.7,17.1-1.8,30.9
		c0.3,2.8,2.1,13.8,8.6,26.1c3.7,7,7.7,11.8,10.7,15.7l0,0c-5.8,0.9-14.1,2.2-24.1,3.5c-2.9,0.4-42.8,5.5-77.5,6.2
		C215,304.9,177.5,305.7,133.9,290.5z M153.1,169.2c-6,2.7-12.6,8.9-13,16.2c-0.9,17.5,34.2,31.2,47.7,36.5c22.9,9,63,9.3,63,9.3
		s-24-27.4-43.2-40.8C168.8,163.3,156.3,167.8,153.1,169.2z"/>
	<path class="st1" d="M397.5,175.6c3.2-3.1,6.3-6.3,9.5-9.5c0.9-0.8,0.8-1.3-0.4-1.9c-3.7-1.8-6.5-4.5-8.4-8.2c-0.6-1.2-1.1-1-1.6,0
		c-1.6,3.5-4.2,5.9-7.2,8.1c-1.8,1.3-1.8,1.8-0.6,3.7c1.6,2.5,3.3,5,5,7.4c0.5,0.6,1.2,1,1.9,1.6C396.4,176.3,397,176.1,397.5,175.6
		z"/>
	<g id="XMLID_1_">
		<g>
			<path class="st1" d="M405.1,145.4c3.6,11,12,16.8,14.5,18.5c8.2,5.5,16.1,6.2,22.5,6.7c4.3,0.3,12.8,0.9,22.6-2.7
				c5.7-2.1,12.1-4.4,16-10.7c3-4.9,3-9.8,3.1-17.1c0.1-10.6-2.7-14.6-0.5-23.7c0.2-0.6,0.9-2.7,2.5-7.1c0.6-1.9,4.9-13.7,7-20
				c0.3-0.8,1-2.9,1.5-5.6c0.3-1.2,0.4-2.3,0.5-3c1.5,4.2,3.1,9.9,4.5,16.6c0.7,3.4,1.6,8.4,2.1,14.9c0.3,5.5,0.9,15-1.9,26.6
				c-0.5,2.3-1.3,5-2.4,8s-2.5,6.4-4.4,9.9c0,0-4.4,10.3-12.8,19.8c-17.1,19.3-69.7,43.2-120.9,27.3c-9.9-3-30-9.5-44.1-27.8
				c-5.6-7.2-8.8-14.4-9.8-16.8c-6.1-14.4-6.7-27.7-6.8-37.1c-0.1-6.4,0.1-12.8,0.3-19.2c0.1-2.1,0.2-4.3,0.4-6.4
				c0.1-1.1,0.5-2.1,0.8-3.2c1.7,5.1,3.4,10.1,5.2,15.1c1.1,3,2.1,6.1,3.3,9.1c1.7,4.4,1.5,8.9,1.1,13.5c-0.7,7.2-1.5,14.5-0.4,21.7
				c1.1,7.8,5.4,13,12.5,16.1c10.2,4.4,20.8,5.9,31.7,4.5c8.2-1,15.8-3.7,22.5-8.5c6.2-4.5,10.1-10.6,11.6-18.2
				c2.2-11.5,0.6-22.4-5-32.7c-4.1-7.3-10.9-11.3-18.6-13.9c-4.9-1.7-10-2.4-15.2-2.5c-12.5-0.2-14.1-0.3-21.2-2.1
				c-8.1-2-13.1-5.2-14.3-6c-4.5-3-7.6-6.2-9.6-8.6c0.4-2.6,1-6.6,1.8-11.3c2.5-14.2,3.9-15.7,4.9-15.8c1.1-0.2,1.4,1.3,5.6,5.6
				c3.2,3.3,5.9,5.2,7,6c2.2,1.5,4.2,2.6,5.5,3.2c-0.2,3.4-0.5,6.7-0.6,10.1c-0.1,2.3,0.2,2.4,2.4,2.5c2.7,0.1,5.5,0.2,8.2,0.3
				c0.7,0,1.4-0.1,2.2-0.2c0.3-2.6,0.5-5.2,0.8-7.7c1,0.2,1.9,0.5,2.8,0.7c2.5,0.7,5,1.6,7.5,2.1c7.5,1.6,14.9,2.9,21.8,6.5
				c5.6,3,10.2,7.1,13.9,12.2c2.6,3.4,4.6,7.2,6.9,10.8c0.2,0.3,0.4,0.6,0.5,0.7c2.6-3.9,5-7.9,7.8-11.7c2.2-3,4.8-5.5,7.6-7.5
				c3.4-2.5,6.8-3.6,13.7-5.9c4.8-1.6,8.5-2.5,11-3.1c4.4-1,8.2-1.7,11.1-2.2c3-1.1,5.4-2.2,7.3-3.1c3.5-1.7,6.1-3,9.2-5.2
				c3.3-2.3,5.4-4.6,7.7-7c1.8-1.9,3.4-3.5,5.2-6c3.6-5,3.7-7.3,5-7.3c2-0.1,3.2,5.6,6.7,15.2c1.9,5,3.6,9,4.7,11.5
				c0,0-1.8,2.7-4,5.1c-3.4,3.7-6.9,6-8.7,7.2c-0.9,0.5-4.1,2.5-8.8,4.2c-1.4,0.6-5.4,1.9-12.4,2.9c-5.7,0.7-7.8,0.5-12.5,0.8
				c-7.2,0.5-14.8,1-22.4,5.1c-2.3,1.2-8.5,4.7-13.2,11.9c-4.3,6.6-5,12.8-5.5,17C403.7,132.5,403,138.4,405.1,145.4z"/>
		</g>
	</g>
	<path class="st2" d="M498.9,190.3c26.1-7.1,47-17.2,62.2-26.1c8.2,14.1,16.5,28.3,24.7,42.4c-5.1,17.4-28.4,39-71.4,45.3
		c-23.7,3.5-42.9-2.5-52.7-6.4c-0.1-1.9-0.3-4.4-0.7-7.4c-0.4-3.3-1.4-8.8-3.2-15.1c-2-7.5-5.2-14.4-9.1-22.7l-0.6-1.5
		C462.4,197.8,479.8,195.5,498.9,190.3z"/>
	<path class="st2" d="M564.3,240.2"/>
	<path class="st3" d="M424.2,81.4c-7,2.4-10.5,3.5-13.7,5.9c-6,4.4-10.6,11.4-14,16.6c-0.7,1.1-1.2,2-1.6,2.6
		c-0.4-0.6-0.9-1.4-1.6-2.5c-4.7-7.3-4.6-7.3-5.7-8.9c-3.2-4.4-6.6-7.2-7.9-8.3c-2.4-1.9-4.6-3.2-5.9-3.9
		c-7.1-3.8-13.3-4.3-22.1-6.6c-1.8-0.4-3.4-0.9-3.4-0.9c-1.6-0.4-2.9-0.8-3.8-1.1c0-0.5,0.1-1.1,0.1-1.6c0.6-7.4,0.8-14.6,0.9-21.8
		c0-6.5,0.1-12.9,0.2-19.4c0.5-0.3,1.1-0.6,1.6-0.7c1.8-0.2,3.6-0.3,5.4-0.4c4.5-0.2,9-0.3,13.5-0.4c9.6-0.1,19.2-0.3,28.8-0.3
		c5.9,0,11.9,0.2,17.8,0.4c5.5,0.3,10.9,0.7,16.4,1.1c4.9,0.3,9.7,0.9,14.5,1.4c0.6,0,1.1,0.4,1.7,0.7c0,2.3,0,4.7,0,7.1
		c0,13.4-0.7,18.6-0.1,28.2c0.1,1.8,0.3,4.4,0.6,7.5C436.9,77.5,429.5,79.6,424.2,81.4z"/>
	<path class="st0" d="M517.5,300.8c-35.1,16.5-67.4,15.3-82.5,13.8c-2.3-5.2-4.6-10.5-6.9-15.8c8.2-3.1,9.5-4.8,16.3-10.3
		c2.4-1.9,7.7-9,7.9-9.3c4.9-7.3,6.3-13.2,6.9-15.3l0,0c76.3-5.7,96.5-17.4,96.5-17.4c9.5-5.5,22.4-15.1,34.6-32.8
		c1.5,2.3,3.1,4.7,4.6,7C589.4,233.1,568.2,277,517.5,300.8z"/>
	<path class="st2" d="M365.2,303.5"/>
	<path class="st4" d="M298.5,74.6c1.4-0.5,2.7,3.7,7.6,8.8c8.4,8.7,18.9,11.4,21.9,12.2c2.2,0.6,4,0.9,5.4,1.1c3,0.5,7.1,0.8,15.8,1
		c5.2,0.1,10.3,0.8,15.2,2.5c7.7,2.6,14.6,6.5,18.6,13.9c5.6,10.2,7.3,21.2,5,32.7c-1.5,7.5-5.4,13.7-11.6,18.2
		c-6.7,4.8-14.3,7.5-22.5,8.5c-11,1.4-21.5-0.1-31.7-4.5c-7.1-3.1-11.7-8.3-12.8-16c-1-7.3-0.6-14.5,0.3-21.6
		c0.5-4.6,0.6-8.9-1-13.6c-1.2-3-2.2-6.1-3.3-9.1c-3-7.9-4.2-11.1-5.4-15.1c-1-3.2-1.5-4.8-1.9-7C297.4,83.1,296.4,75.4,298.5,74.6z
		 M371.1,150.1c5.8-5.8,7.2-12.8,5.4-20.6c-1.9-8.2-6.1-14.9-13.9-18.6c-8.3-3.9-16.9-4-25.3-0.5c-4.7,2-7.5,5.9-9.3,10.5
		c-3.2,7.9-3.8,16-0.5,24.1c3.6,8.9,13.4,15.2,23.7,14.6C358.6,159.4,365.4,155.9,371.1,150.1z"/>
	<path class="st5" d="M440.1,323.3c4.2,3.9,8.4,7.7,12.6,11.5c2.6,2.4,5.4,4.7,8,7.2c1.8,1.7,2.4,3.8,1.6,6.2
		c-0.9,2.4-2.9,3.3-5.2,3.5c-1.3,0.1-1.6,0.6-1.9,1.8c-0.9,3.7-3.9,5.7-7.7,5.1c-3-0.4-5.5-2-7.6-4.1c-5.9-6.1-11.7-12.3-17.5-18.5
		c-0.7-0.9-1.8-1.9-1.9-2.9c-0.6-4.4-0.7-8.7-1.2-13.1c-0.2-2.2-0.7-4.3-1.1-6.4c-0.9-3.7-1.7-7.4-2.6-11.1c1.6-0.5,3.2-1.1,4.8-1.5
		c2.6-0.7,5.3-1.4,7.9-2.1c2.3,5.2,4.6,10.5,6.9,15.8C436.5,317.7,437.5,320.9,440.1,323.3z M455,351.1c3.3-3.5-1.7-9.8-6.8-12
		C451.7,342.5,454.4,346.2,455,351.1z"/>
	<path class="st6" d="M323.6,32.5c-10.4,0.4-10.8,0.4-16.3,0.7c-7.6,0.3-10,0.6-10.7,0.3c-0.6-0.2,1-1.9,1.2-1.9
		c3.7-0.4,5.1-0.7,9.8-1.2c0.7,0,0.2,0,4.8-0.6c5.3-0.7,9.3-1.1,12.2-1.5c3.4-0.4,13-1.6,18.4-2.3c17-2.2,21.4-3.1,36.9-4.9
		c7.5-0.9,9.7-0.9,11.5-1.1c7.6-0.7,15,0.4,22.5,1.3c6.7,0.8,13.5,1.8,20.2,2.7c6.3,0.9,12.6,1.7,18.9,2.5c4.4,0.5,8.9,1,13.3,1.5
		c5.5,0.7,11.1,1.4,16.6,2.1c3.1,0.4,6.2,0.8,9.3,1.2c0.4,0.1,1,0,1.4,0.1c0.8,0.2,2.1,0.6,2.1,1c0.1,1.3-0.9,1.6-2.1,1.5
		c-3.2-0.2-6.3-0.4-9.5-0.4c-12.9-0.1-25.7-0.2-38.5-0.3c-0.6-0.2-1.1-0.6-1.7-0.7c-4.8-0.5-9.7-1-14.5-1.4
		c-5.5-0.5-10.9-0.9-16.4-1.1c-5.9-0.3-11.9-0.4-17.8-0.4c-9.6,0-19.2,0.1-28.8,0.3c-4.5,0.1-9,0.2-13.5,0.4
		c-1.8,0.1-3.6,0.2-5.4,0.4c-0.6,0.1-1.1,0.5-1.6,0.7C336.5,32,329,32.3,323.6,32.5z"/>
	<path class="st5" d="M387.5,344.5c0.8,2.1,1.3,4.4,1.7,6.6c0.7,4-1.8,7.4-5.8,8.1c-3.3,0.5-6.1-0.4-8-3.3c-0.5,0.1-0.9,0.3-1.2,0.4
		c-4.8,1.8-8.2,0.4-10-4.4c-0.9-2.5-1.8-5.1-2.4-7.7c-0.5-2-1-4.3-0.6-6.3c1.1-6,2.6-11.9,3.9-17.9c0.9-4.1,3.1-8.8,2.7-13.2
		c0.7,0.4,1.8,1.5,2.4,2c4,3.3,7.7,5.7,11.7,9c1.4,1.2,2.2,3.4,3.5,4.7C384.9,330,384.9,337.4,387.5,344.5z M375.5,355.5
		c1.5,0.2,2.4-0.6,2.6-1.8c0.5-3.2,0-6.2-1.6-9C378.2,353.4,376.8,352.8,375.5,355.5z"/>
	<path class="st2" d="M586.5,184.4c-1.1-10.5-3.1-17.8-4.8-22c-0.9-2.3-1.9-4.6-2.8-6.9c-6.1,3-12,5.9-17.8,8.7l12.3,21.2l12.4,21.2
		C586.9,203.6,587,189.4,586.5,184.4z"/>
	<path class="st7" d="M336.7,43.3c-0.1,1.3-0.1,3.3-0.1,7.2c0,6.6,0,8.8,1.3,11c0.6,1,1.1,1.6,1.8,3.2c1.2,2.6,1.7,4.8,1.8,6.7
		c0.1,2.7,0.1,4.9,0.1,6.7c0,1,0,2.1-0.8,2.8c-0.6,0.5-1.2,0.5-2.4,0.5c-5.3,0-5.8,0-7.4-0.1c-2.6-0.2-2.8-0.3-3-0.5
		c-1-0.9-0.4-2.2-0.3-7.2c0-3-0.1-3.7,0.5-5c0.5-1,1.4-2.2,2.1-3c0.6-0.8,1.3-1.6,1.7-2.9c0.1-0.4,0.2-0.8,0.2-1
		c0.5-4.1,0.4-6.4,0.4-6.4l0,0c0-9,0.2-19.3,0.2-23.2c0-0.1,0-0.5,0-1.3c0-1.4,0-2.5,0.4-3.6c0.1-0.3,0.2-0.6,0.4-0.8
		c0.5-0.5,1.2-0.6,1.4-0.6c0.1,0,1.1-0.1,1.8,0.6c0.3,0.3,0.4,0.5,0.5,0.7c0.8,1.9,0.3,3.9,0.3,3.9
		C337.5,31.6,337.3,35.5,336.7,43.3z"/>
	<path class="st8" d="M413.4,313.3c-1.5-3.3-2.9-6.7-4.4-10c2.2-0.3,4.3-0.5,6.5-0.8c0.9,3.7,1.7,7.4,2.6,11.1
		C416.6,313.5,415,313.4,413.4,313.3z"/>
	<path class="st1" d="M497,81.4c0-0.1,0-0.2,0-0.3C497,81.2,497,81.3,497,81.4z"/>
	<path class="st0" d="M371.6,239.5c-0.4-3.9-0.7-8-0.3-11.9c0.8-6.8,2.1-13.7,3.2-20.5c0.4,0.1,0.8,0.3,1.2,0.3c5,0.4,10,1.1,15,1
		c7.3-0.1,14.6-0.5,21.9-1.4c6.5-0.8,13.1-2.3,19.6-3.5c1.1,3.2,2.2,6.5,3.3,9.8c2,6,3.4,12.1,4,18.4c1.2,12.3-0.9,24.1-5.6,35.4
		c-2.9,7.1-6.8,13.6-12.6,18.8c-3.4,3-7.3,4.8-11.6,5.7c-0.5,0.1-1.5-0.1-2-0.5c-1.3-0.9-2.5-2-3.7-3.1c0.5-1.8,1.2-3.5,1.4-5.3
		c0.5-5.5,1.1-10.9,1.1-16.4c0-3.8-0.8-7.6-1.2-11.4c-0.1,0-0.3,0-0.5,0c-0.2,3.8-0.3,7.6-0.7,11.4c-0.6,5.2-1.5,10.3-2.3,15.5
		c-0.3,2-0.4,2.6-0.8,4.6c-0.9-1.3-1.3-1.8-2.2-3.1c-6.8-9.5-14.8-18.1-23.2-26.2c-0.7-0.6-1.2-1.5-1.8-2.2
		C373.1,249.8,372.3,244.7,371.6,239.5z"/>
	<path class="st9" d="M443.9,289.1c-11.3,10.7-25.7,13.5-34.8,14.2c-0.3-0.3-0.8-0.7-1.4-1.4c-1.9-2-2.3-4.1-4.5-8.5
		c-0.7-1.5-1.3-3.1-1.9-4.6c1.4,1.2,1.9-0.7,2.9-0.7c1.3,1,2.4,2.1,3.7,3.1c0.4,0.4,1.2,0.6,1.8,0.5c4.4-0.9,8.3-2.8,11.7-5.8
		c5.7-5.2,9.6-11.6,12.5-18.7c4.7-11.4,6.8-23.1,5.6-35.4c-0.7-6.3-2-12.4-4-18.4c-1-3.3-2.2-6.5-3.3-9.8c4.3-1.4,8.3-2.9,12.5-4.3
		c0.4-0.2,0.9-0.4,0.9-0.4c0.9-0.4,1.6-0.6,2.2-0.9C469.3,238.6,464.2,270,443.9,289.1z"/>
	<path class="st9" d="M372,253.1c-6-4.5-10.3-9.6-14.6-15.4c-6.8-9.2-10.9-19.3-10.6-30.9c0.1-1.8,0.3-3.5,0.5-5.2
		c0.1-0.8-0.3-1.3-1.2-1.3c0.2-0.2,0.3-0.3,0.4-0.4c0.8,0.1,1.7-0.1,2.4,0.2c3,1,5.9,2.4,8.9,3.2c5.6,1.4,11.3,2.5,16.9,3.8
		c-1.1,6.8-1.4,7-2.4,13.9c-0.7,4-0.9,14.5-0.5,18.5c0.4,5.2,1.2,9.8,1.9,14.9C373.2,254,372.6,253.5,372,253.1z"/>
	<path class="st10" d="M393.8,175.2c-1.7-2.4-3.3-4.8-4.9-7.3c-1.3-1.9-1.3-2.5,0.5-3.8c3-2.2,5.7-4.6,7.2-8.1c0.5-1,1.2-1.1,1.8,0
		c1.8,3.7,4.5,6.4,8.2,8.2c1.2,0.5,1.3,1,0.4,1.9c-3.2,3.1-6.3,6.3-9.5,9.5c-0.5,0.5-1.1,0.7-1.8,1.2
		C395,176.2,394.2,175.8,393.8,175.2z"/>
	<path class="st11" d="M400.5,287.7c0.4-1.9,1-3.9,1.3-5.9c0.7-5.1,1.7-10.3,2.3-15.5c0.4-3.8,0.5-7.6,0.7-11.4c0.1,0,0.3,0,0.5,0
		c0.4,3.8,1.2,7.6,1.2,11.4c0,5.5-0.6,10.9-1.1,16.4c-0.2,1.8-0.9,3.5-1.4,5.3c-0.7,0.3-1.1,1.6-2.5,0.8
		C401.2,288.5,400.6,288.1,400.5,287.7z"/>
	<path class="st2" d="M392.2,274.7c0,0,28,33.6,25.9,51.2c-0.2,1.2-0.5,4.1-2.8,6c-1.8,1.5-4.1,1.6-5.5,1.6c-3,0.1-5.5-0.9-8.4-2.4
		c-1.8-0.9-6.6-3.3-10-6.6c-5-4.9-70.8-37.8-52.8-104.8c1.4-5.2,4.3-13.6,7.6-19.4c0.3,0,0.6,0,0.9,0.3c0.3,0.3,0.2,0.8,0.2,1
		c-0.2,1.7-0.4,3.5-0.4,5.2c0,14.6,7,25.6,10.6,30.9c2.9,4.4,8,10.8,16.2,16.7C381.6,262.3,387.7,269.3,392.2,274.7z"/>
	<path class="st12" d="M327.5,145c-3.3-8.1-2.7-16.1,0.5-24.1c1.8-4.6,4.6-8.5,9.3-10.5c8.5-3.5,17.1-3.4,25.3,0.5
		c7.7,3.7,12,10.4,13.9,18.6c1.8,7.8,0.4,14.8-5.4,20.6c-5.7,5.8-12.4,9.2-19.9,9.5C340.9,160.3,331.1,154,327.5,145z M347.6,124.3
		c-0.3,2.4-2.3,4.4-4.8,4.6c-3,0.3-5-1.5-6-5.1c-4.8,5.5-3.6,16.3,2.4,22.3c6.8,6.8,17.7,6.9,24.9,0.4c6.9-6.3,7.7-17.2,1.9-24.5
		c-5.8-7.1-16.6-9-23.6-4C346.3,119.3,347.8,121.3,347.6,124.3z"/>
	<path class="st13" d="M455,351.1c-0.6-4.9-3.4-8.6-6.8-12C453.3,341.3,458.3,347.7,455,351.1z"/>
	<path class="st13" d="M378.1,351.3c-0.2,1.2-1.1,2-2.6,1.8c1.3-2.7,2.7-2.1,1-10.8C378.1,345.1,378.6,348.1,378.1,351.3z"/>
	<path class="st0" d="M590.3,213.7c3.6-5.6,5.9-10.4,7.3-13.8c1.7-4,2.4-6.5,6.6-20c1.2-3.9,2.3-7.1,2.9-9.1l-0.5,3.6
		c-0.4,6.4-1.4,14-3.4,22.3c-2.3,9.5-5.4,17.6-8.3,24L590.3,213.7z"/>
	<path class="st14" d="M365.9,122c5.8,7.3,5,18.2-1.9,24.5c-7.1,6.5-18.1,6.4-24.9-0.4c-6-5.9-7.2-16.8-2.4-22.3c1,3.6,3,5.3,6,5.1
		c2.5-0.2,4.5-2.1,4.8-4.6c0.3-3.1-1.2-5-5.1-6.3C349.4,113,360.2,114.9,365.9,122z"/>
</g>
<path class="st0" d="M342.4,296.4c9.8,6.7,25.3,13.5,25.3,13.5c0.1-0.6,0.3-2.8,0.1-3.1c-0.8-0.9-3.5-4-12.3-12.4"/>
<path class="st4" d="M494.7,83.3c-0.5,2.5-1,4.2-1.9,7c-1.3,4-2.5,7.1-5.4,15.1c-1.1,3-2.1,6.1-3.3,9.1c-1.6,4.7-1.5,9-1,13.6
	c0.8,7.1,1.3,14.3,0.3,21.6c-1.1,7.7-5.7,12.9-12.8,16c-10.2,4.4-20.7,5.9-31.7,4.5c-8.2-1-15.8-3.7-22.5-8.5
	c-6.2-4.5-10.1-10.7-11.6-18.2c-2.3-11.5-0.6-22.5,5-32.7c4-7.4,10.9-11.3,18.6-13.9c4.9-1.7,10-2.4,15.2-2.5
	c8.6-0.1,12.7-0.5,15.8-1c1.5-0.3,3.2-0.5,5.4-1.1c3-0.8,13.5-3.6,21.9-12.2c5.7-5.8,7.2-10.8,8.5-10.3
	C497.2,70.5,494.9,82,494.7,83.3z M441.4,156.2c10.3,0.6,20.1-5.7,23.7-14.6c3.3-8.1,2.7-16.2-0.5-24.1c-1.8-4.6-4.6-8.5-9.3-10.5
	c-8.4-3.5-17-3.4-25.3,0.5c-7.8,3.7-12,10.4-13.9,18.6c-1.8,7.8-0.4,14.8,5.4,20.6C427.2,152.5,434,156,441.4,156.2z"/>
<path class="st12" d="M441.4,156.2c-7.5-0.3-14.2-3.7-19.9-9.5c-5.8-5.8-7.2-12.8-5.4-20.6c1.9-8.2,6.2-14.9,13.9-18.6
	c8.2-3.9,16.8-4,25.3-0.5c4.7,2,7.5,5.9,9.3,10.5c3.2,8,3.8,16,0.5,24.1C461.5,150.6,451.7,156.9,441.4,156.2z M450.2,114.6
	c-7-5-17.8-3.1-23.6,4c-5.8,7.3-5,18.2,1.9,24.5c7.2,6.5,18.1,6.4,24.9-0.4c6-6,7.2-16.8,2.4-22.3c-1,3.6-3,5.4-6,5.1
	c-2.5-0.2-4.5-2.2-4.8-4.6C444.8,117.9,446.3,115.9,450.2,114.6z"/>
<path class="st14" d="M450.2,114.6c-3.9,1.3-5.4,3.2-5.1,6.3c0.3,2.5,2.3,4.4,4.8,4.6c3,0.2,5-1.5,6-5.1c4.8,5.5,3.6,16.4-2.4,22.3
	c-6.8,6.8-17.8,6.9-24.9,0.4c-6.9-6.3-7.7-17.2-1.9-24.5C432.4,111.5,443.2,109.6,450.2,114.6z"/>
<path class="st15" d="M396,17.6c2.6,0,4.9,0.2,6,0.3l0,0c2.7,0.2,4.3,0.5,10.7,1.3c2.3,0.3,2.8,0.3,4.2,0.5c2.5,0.3,3,0.4,6,0.8
	c2.4,0.3,4.3,0.5,4.8,0.6c1.3,0.2,3,0.4,5.3,0.7c2.9,0.3,3.3,0.3,5.5,0.6c1.9,0.2,3.3,0.4,4.4,0.6c7.7,1.1,11.9,1.7,15,2.1
	c6.5,0.9,9.7,1.1,12.7,1.5c7.2,0.9,13.7,2,20.6,2.8c0.3,0,1.1,0.1,1.6,0.7c0.3,0.5,0.4,1,0.3,1.5c-2.6-0.3-5.8-0.8-9.3-1.2
	c-8.4-1.1-12.7-1.6-16.6-2.1c-7.2-0.9-6.7-0.7-13.3-1.5c-9-1.1-16.5-2.1-18.9-2.5c-5.1-0.7-10.5-1.5-18.8-2.5
	c-0.2-0.1-0.7-0.1-1.4-0.2c-12.1-1.3-16.3-1.4-19.1-1.4c-0.1,0-0.2,0-0.3,0c-3.6,0-7.2,0.1-16.2,1.1c-1.4,0.2-2.5,0.3-4.3,0.5
	c-7.6,0.8-12.3,1.6-18.8,2.5c-12.7,1.7-15.2,2.1-18.9,2.5c-4.4,0.5-8.9,1-13.3,1.5c-5.5,0.7-11.1,1.4-16.6,2.1
	c-3.1,0.4-6.2,0.8-9.3,1.2c-0.1-1.4,0.4-2,1.9-2.2c6.9-0.9,13.7-1.9,20.6-2.8c4.2-0.6,8.5-1,12.7-1.5c5-0.6,10-1.4,15-2.1
	c6.7-0.9,6.6-0.8,15.2-1.9c5.8-0.8,7.5-1.1,10.8-1.5c0.4,0,1.5-0.2,4.2-0.5c0,0,8.9-1.2,14.3-1.6c0.5,0,1.3-0.1,2.4-0.1
	C395.1,17.4,395.4,17.4,396,17.6z"/>
</svg>
