<svg xmlns="http://www.w3.org/2000/svg" version="1.1"
    xmlns:xlink="http://www.w3.org/1999/xlink"
    xmlns:svgjs="http://svgjs.dev/svgjs" viewBox="0 0 1920 1080">
    <rect width="1920" height="1080" fill="#0ba9c9"></rect>
    <g transform="matrix(-2.112515728529184e-16,-1.15,1.15,-2.112515728529184e-16,305.50391387939476,1605.4795009613038)">
        <path d="M0,-1080C-10.599471164973655,-974.0604504094076,-79.1005756499271,-614.4417620212062,-63.59682698984193,-444.36270245644585C-48.093078329756764,-274.28364289168553,93.09859180048014,-224.6615045189368,93.02249196051099,-59.525642611438386C92.94639212054184,105.61021929606001,-47.340388988149144,344.3407890476691,-64.05342602965676,546.4524689885445C-80.76646307116438,748.56414892942,-21.362317385308884,959.4360125226932,-7.255730288534707,1153.144437033814C6.85085680823947,1346.852861544935,19.37680816956585,1540.8937555609052,20.5860965509883,1708.7030160552695C21.79538493241075,1876.5122765496337,3.4310160918313835,2084.7838360092114,0,2160L 1920 2160 L 1920 -1080 Z" fill="url(&quot;#SvgjsLinearGradient1282&quot;)"></path>
        <path d="M192,-1080C190.85266501865254,-1005.2621054188854,186.61301226554286,-804.2093377360035,185.11599011191527,-631.5726325133123C183.61896795828767,-458.9359272906212,187.7486637519135,-234.42604683477987,183.01786707823436,-44.17976866385314C178.2870704045552,146.0665095070736,138.57049132535815,320.289416271556,156.7312100698403,509.9050365122479C174.89192881432245,699.5206567529398,275.7757091136694,894.9872514385557,291.9821795451272,1093.5139527802985C308.18864997658505,1292.0406541220411,270.6337292494417,1523.3175700260874,253.97003265858717,1701.0652445627043C237.30633606773264,1878.812919099321,202.3283387764312,2083.510874093784,192,2160L 1920 2160 L 1920 -1080 Z" fill="url(&quot;#SvgjsLinearGradient1283&quot;)"></path>
        <path d="M384,-1080C397.1345902225679,-1006.528737814926,472.84106676604546,-812.6156546714444,462.8075413354073,-639.1724268895556C452.7740159047691,-465.7291991076668,352.020656936701,-241.3478742404693,323.79884741617093,-39.34063330866705C295.57703789564084,162.66660762313518,288.39471263587603,383.49750362841735,293.4766842122267,572.8710187012579C298.55865578857737,762.2445337740984,342.523199972097,921.4749514351697,354.29067687427505,1096.9004571283758C366.0581537764531,1272.325962821582,359.12999177100755,1448.2407957152236,364.08154562529506,1625.4240528604944C369.0330994795826,1802.6073100057652,380.68025760421585,2070.9040088100824,384,2160L 1920 2160 L 1920 -1080 Z" fill="url(&quot;#SvgjsLinearGradient1284&quot;)"></path>
        <path d="M576,-1080C591.9216871874488,-959.9390112120425,685.6140322128072,-619.4990369483924,671.5301231246929,-359.63406727225515C657.4462140365786,-99.769097596118,510.81462518040814,182.66958557550447,491.496545471314,479.189818056823C472.17846576221984,775.7100505381416,541.5377357820137,1139.3522972917933,555.621644870128,1419.487327615656C569.7055539582423,1699.622357939519,572.6036074783547,2036.581221269276,576,2160L 1920 2160 L 1920 -1080 Z" fill="url(&quot;#SvgjsLinearGradient1285&quot;)"></path>
        <path d="M768,-1080C762.7728895346216,-1024.8535828948338,742.9754450803879,-872.5833885637556,736.63733720773,-749.121497369003C730.299229335072,-625.6596061742504,726.0288609150273,-476.39314599247336,729.9713527640525,-339.22865283148445C733.9138446130778,-202.06415967049557,740.4060585403786,-58.00692890845096,760.2922883018812,73.86546159693032C780.1785180633838,205.7378521023116,847.9262180518899,317.720091119267,849.2887313330682,452.0056902008032C850.6512446142465,586.2912892823394,794.4574345950757,728.4724489377397,768.4673679889507,879.5790560861475C742.4773013828258,1030.6856632345552,704.8357170241754,1203.619525442872,693.3483316963185,1358.6453330912498C681.8609463684616,1513.6711407396276,687.1011113045286,1676.1747908249563,699.5430560218088,1809.7339019764147C711.985000739089,1943.293013127873,756.5905093369681,2101.622316996069,768,2160L 1920 2160 L 1920 -1080 Z" fill="url(&quot;#SvgjsLinearGradient1286&quot;)"></path>
        <path d="M960,-1080C955.0798929026281,-983.2298453312585,929.9624637676787,-716.0211916191772,930.4793574157684,-499.3790719875511C930.996251063858,-282.7369523559249,969.5001110179741,-8.841960672926064,963.1013618885377,219.8527177897568C956.7026127591013,448.5473962524397,907.1545041747461,659.6537946139329,892.0868626391499,872.7889987885462C877.0192211035537,1085.9242029631596,861.3766564481523,1284.1287759688616,872.6955126749606,1498.6639428374372C884.0143689017689,1713.1991097060127,945.4492521124935,2049.7773238062396,960,2160L 1920 2160 L 1920 -1080 Z" fill="url(&quot;#SvgjsLinearGradient1287&quot;)"></path>
        <path d="M1152,-1080C1147.9433998690622,-958.161733906602,1135.6198342435857,-615.2238378435136,1127.6603992143728,-348.9704034396117C1119.7009641851598,-82.71696903570972,1091.64396080599,229.55968735685553,1104.2433898247218,517.5206064234118C1116.8428188434536,805.481525489968,1195.2975382975508,1105.0485453636277,1203.2569733267637,1378.7951109597257C1211.2164083559767,1652.5416765558236,1160.542828887794,2029.7991851599543,1152,2160L 1920 2160 L 1920 -1080 Z" fill="url(&quot;#SvgjsLinearGradient1288&quot;)"></path>
        <path d="M1344,-1080C1327.1891484514745,-993.6159370361602,1250.67133422655,-709.7992669272771,1243.1348907088475,-561.6956222169613C1235.598447191145,-413.59197750664543,1270.0632079051552,-330.49266769243843,1298.781338893785,-191.37813173810463C1327.4994698824148,-52.26359578377085,1400.8314443313734,120.26156998520617,1415.4436766406259,272.9915935090414C1430.0559089498784,425.7216170328767,1403.9625280391588,574.2491436870278,1386.4547327493,725.002009404907C1368.9469374594414,875.7548751227862,1322.026595549023,1002.5645249571852,1310.3969049014745,1177.508787816317C1298.7672142539259,1352.4530506754486,1311.0760730142547,1610.91905119575,1316.6765888640089,1774.6675865596972C1322.277104713763,1938.4161219236444,1339.4460981440016,2095.777931093283,1344,2160L 1920 2160 L 1920 -1080 Z" fill="url(&quot;#SvgjsLinearGradient1289&quot;)"></path>
        <path d="M1536,-1080C1549.1286701843476,-1004.235317213506,1612.2146516859577,-749.3913718729209,1614.7720211060853,-625.4119032810366C1617.3293905262128,-501.43243468915244,1577.6204258815424,-466.75495916431817,1551.344216520765,-336.12318844869475C1525.0680071599877,-205.49141773307133,1474.3035276361238,12.896966376141108,1457.1147649414208,158.37872101270383C1439.9260022467179,303.86047564926656,1450.5898841290627,405.68087246203106,1448.2116403525465,536.7673393706815C1445.8333965760303,667.8538062793319,1434.3372058726695,814.1697963858333,1442.8453022823228,944.8975224646063C1451.353398691976,1075.6252485433793,1490.8969025593037,1192.2561454216252,1499.2602188104665,1321.1336958433196C1507.6235350616294,1450.011246265014,1486.901902924378,1578.351774301992,1493.0251997893001,1718.162824994772C1499.1484966542223,1857.9738756875522,1528.8375332982166,2086.360470832462,1536,2160L 1920 2160 L 1920 -1080 Z" fill="url(&quot;#SvgjsLinearGradient1290&quot;)"></path>
        <path d="M1728,-1080C1738.6358959273628,-944.7247720480161,1782.3643784722517,-535.2436828211523,1791.815375564177,-268.3486322880965C1801.2663726561022,-1.4535817550406023,1788.5537844581895,265.0427661165077,1784.705982551551,521.3703031983353C1780.8581806449124,777.6978402801628,1778.1795612162705,996.5116407359244,1768.7285641243454,1269.6165902028686C1759.2775670324204,1542.7215396698127,1734.7880940207242,2011.6027650338115,1728,2160L 1920 2160 L 1920 -1080 Z" fill="url(&quot;#SvgjsLinearGradient1291&quot;)"></path>
    </g>
    <defs>
        <linearGradient x1="0.1" y1="0" x2="0" y2="1" id="SvgjsLinearGradient1282">
            <stop stop-color="#0ba9c9" offset="0"></stop>
            <stop stop-color="#0bc9c9" offset="0"></stop>
        </linearGradient>
        <linearGradient x1="0.1" y1="0" x2="0" y2="1" id="SvgjsLinearGradient1283">
            <stop stop-color="#0cbee2" offset="0"></stop>
            <stop stop-color="#0ce2e2" offset="0.1"></stop>
        </linearGradient>
        <linearGradient x1="0.1" y1="0" x2="0" y2="1" id="SvgjsLinearGradient1284">
            <stop stop-color="#16cdf2" offset="0"></stop>
            <stop stop-color="#16f2f2" offset="0.2"></stop>
        </linearGradient>
        <linearGradient x1="0.1" y1="0" x2="0" y2="1" id="SvgjsLinearGradient1285">
            <stop stop-color="#2ed2f4" offset="0"></stop>
            <stop stop-color="#2ef3f4" offset="0.3"></stop>
        </linearGradient>
        <linearGradient x1="0.1" y1="0" x2="0" y2="1" id="SvgjsLinearGradient1286">
            <stop stop-color="#47d8f5" offset="0"></stop>
            <stop stop-color="#47f5f5" offset="0.4"></stop>
        </linearGradient>
        <linearGradient x1="0.1" y1="0" x2="0" y2="1" id="SvgjsLinearGradient1287">
            <stop stop-color="#5fddf6" offset="0"></stop>
            <stop stop-color="#5ff6f6" offset="0.5"></stop>
        </linearGradient>
        <linearGradient x1="0.1" y1="0" x2="0" y2="1" id="SvgjsLinearGradient1288">
            <stop stop-color="#78e2f8" offset="0"></stop>
            <stop stop-color="#78f7f8" offset="0.6"></stop>
        </linearGradient>
        <linearGradient x1="0.1" y1="0" x2="0" y2="1" id="SvgjsLinearGradient1289">
            <stop stop-color="#90e7f9" offset="0"></stop>
            <stop stop-color="#90f8f9" offset="0.7"></stop>
        </linearGradient>
        <linearGradient x1="0.1" y1="0" x2="0" y2="1" id="SvgjsLinearGradient1290">
            <stop stop-color="#a9edfa" offset="0"></stop>
            <stop stop-color="#a9faf9" offset="0.8"></stop>
        </linearGradient>
        <linearGradient x1="0.1" y1="0" x2="0" y2="1" id="SvgjsLinearGradient1291">
            <stop stop-color="#c2f2fc" offset="0"></stop>
            <stop stop-color="#c2fcfc" offset="0.9"></stop>
        </linearGradient>
    </defs>
</svg>