<?xml version="1.0" encoding="utf-8"?>
<!-- Generator: Adobe Illustrator 23.0.1, SVG Export Plug-In . SVG Version: 6.00 Build 0)  -->
<svg version="1.1" id="Layer_1" xmlns="http://www.w3.org/2000/svg" xmlns:xlink="http://www.w3.org/1999/xlink" x="0px" y="0px"
	 viewBox="0 0 1341 1286.3" style="enable-background:new 0 0 1341 1286.3;" xml:space="preserve">
<style type="text/css">
	.st0{fill:none;stroke:#007BF7;stroke-width:3;stroke-miterlimit:10;}
	.st1{fill:none;stroke:#007BF7;stroke-width:5;stroke-miterlimit:10;}
	.st2{fill:none;stroke:#007BF7;stroke-width:4;stroke-miterlimit:10;}
	.st3{fill:none;stroke:#007BF7;stroke-miterlimit:10;}
	.st4{fill:none;stroke:#007BF7;stroke-width:5;}
</style>
<g>
	<g>
		<path class="st0" d="M737.8,384.3c7.3-5.8,15.8-13.4,24.3-23.1c8.2-9.4,14.4-18.4,19-26.3c0.6-1,2.5-1.1,3.4-0.6
			c7.1,3.9,16.1,24.1,14.6,32.2 M776.9,302.7 M765.2,300.3 M732.5,603.1c-4.9-5.5-8.8-11.2-13.8-15.3c-9.3-7.5-10.4-15.6-4.2-25.5
			c2.7-4.4,4-9.5,6-14.3c1.3-3.4,3.1-3.5,5.4-0.9c5.4,6.1,11,12,16.4,18.1c0.6,0.8,1.4,1.6,1.6,2.5c0.8,8.2,1.7,18.2,2.5,26.7
			l-7.3-2.9c-0.1,2.8-0.1,5.2-0.2,8.8 M779.8,786.4c15.4,13.6,43.3,39.4,58.8,52.7c4,3.4,8.4,6.5,13.1,9.2
			c7.6,4.5,13.7,3.3,19.5-3.3c45.5-51.2,90.9-102.4,136.3-153.6c1.3-1.5,2.5-3,4.2-5.1c-33.1-27-62.9-51.6-95.6-78.3l-4.1,3.2
			 M755.8,745.8l-9.9,9.6c0,0,25,23.1,33.9,31 M576.6,608c2.3,31,32.4,105.3,59.1,120.8c14.5,8.5,30.4,13.5,47.1,16.2
			c34.1,5.4,68,4.9,101.3-6c10.4-3.4,20-8.3,27.8-16.3c12.7-12.9,12.4-23.8-2.8-33.7c-12.4-8-25.5-15.3-39.2-20.8 M766,621.9
			c29.1,3.5,63.3,23.9,89.8,36.9c10,4.9,19.7,10.6,29.8,15.3c5.7,2.7,11.8,4.5,17.9,6.1c5.8,1.5,10.6-0.8,13.5-6
			c1.7-3,3.2-6.3,3.9-9.7c4.2-20.4,1.5-39.4-10.9-56.6c-21.9-30.1-57.3-51-89.4-68.2 M775.9,387.3c-25.3,15.4-37.8,38.8-39.6,58.9
			c-3.2,33.6,1.5,60.6,11,78c5.7,10.4,13.6,18.5,24.8,22.9c28.9,11.4,61.1-7,66.6-38.2c3.6-20.2,2-40-1.5-60
			c-4.1-23.6-9.9-47.3-13.5-71c-1.5-9.9-2.2-20-3.4-30c-0.1-0.5-0.2-1-0.5-1.4l-1.7-2.8c-0.2-0.3-0.5-0.3-0.7-0.1l-2.4,2.5
			c-0.3,0.3-0.5,0.6-0.6,0.9C808.6,358.1,785.9,381.3,775.9,387.3 M588.1,652.7c-0.4,8.1,2.1,32.8,2.1,32.8
			c3.2,36.3,19.2,64.8,51.3,83.1c30.9,17.7,66.9,12.9,92.7-11.7c2.9-3.7,2.8-6.6,4.2-9 M869.5,849.9c2.9,4,5.5,2,8,1
			c39.8-16.7,79.6-33.3,119.2-50.1c3-1.3,6-3.7,8-6.5c38.9-53.8,77.7-107.6,116.4-161.5c0.6-0.9,0.8-2.1,0.4-3.1l-0.5-1.3
			c-0.3-0.7-0.9-1.3-1.6-1.5c-0.2,0-0.3-0.1-0.5-0.1c-1.2-0.3-2.5-0.2-3.5,0.5c-30.9,17.7-61.8,35.5-92.6,53.6
			c-4.4,2.6-8.5,5.9-11.8,9.6c-45.7,51.2-91.2,102.5-136.7,153.9C872.8,846.1,871.2,847.9,869.5,849.9z M707.2,871.9
			c3.3,3.9,8.1,4.2,10.6,2.3c2-1.5,2.7-4.6,2.7-6.8c-0.3-4.4-1.9-9.2-4.3-12.8c-3.1-4.6-7.5-8.5-11.9-11.9
			c-9.7-7.8-14.1-18-16.2-29.9c0,0-3.6-25.1-1.3-33.9 M671.5,778.6c-13.9,32.3-16.4,67.8,10.9,100.3c2.7,3.3,6.4,5.9,9.9,8.2
			c3.7,2.3,8.9,2.2,12.3,0.1c4-2.5,4.1-6.6,3.5-10.7c-0.9-6.5-3.6-13.8-9.8-19.8 M732.1,602.6c-69.3,12.7-102.5,17.8-137,10.3
			 M745.7,594.1c-1.3,1.3-6.8,6.2-6.8,6.2 M740.5,600.7 M790.2,550.6c-3.9,10.2-31.8,30.7-43.7,42.3 M670.8,613
			c11.4,12.6,86.7,50.2,99,55.2 M812.1,691.1l40.1-34.1 M709.5,773.1c-6.9,28.5,4,61.2,28.5,77.5c3,2,6.4,3.6,9.9,4.7
			c7,2.1,12.3-3.2,9.5-10c-1.5-3.8-4-6.7-8.1-9.7l-4-2.6c7.8,1.3,11.6,6.2,14.5,13.3c4.6-2.9,4.8-7.7,2.9-12
			c-2.6-5.9-7.8-9-13.1-11.8c-9.1-4.6-17.7-10.2-21.9-19.7c-3.5-8.1-7.7-25-10.1-33.6 M861.1,661.5l-41.9,37.7 M821.3,706.5
			c0,0,11.9,12,13.3,13.4c2,2.2,3.8,2,5.8-0.1l45.4-44.8 M710.4,575.3l12.6,7.6c4.7,2.6,11.3,6.6,16.1,8.6 M694.9,746.6
			c4.6,7.4,17,15.3,24.1,14c-0.9-2.7-1.7-6.1-1-12.4"/>
		<path class="st0" d="M335.6,1016.5c0.7-2.4,1.1-4.7,1.3-6c5.2-34.7,7.8-69.5,8.2-104.5c0.2-22.8,2.8-56.4,7.9-78.9 M329.1,1017
			c-1.2-1.1-10-6.8-12.8-9c-13.9-10.8-27.2-21.3-41.5-31.5c-27.6-19.4-57.5-34.4-91.1-40c-15.2-2.6-47.9,1.7-51.6-1.4l-9.5-7
			c-4.7-6.5-11.2-23.7-17.3-33.4c-6.2-9.9-6.3-19.9-3.3-31.4c13.8-52.6,23-106.2,29.5-160.1c0.5-3.8,1.1-7.6,1.6-11.4
			c0.5-3.9,2-4.4,5.2-2.2c7.9,5.3,16,10.3,24,15.3c18.8,11.6,39.5,18.4,60.4,24.8c27.5,8.3,54.4,17.9,79.2,32.8
			c24.5,14.7,43.1,33.9,50.3,62.5c0.4,1.4,1.1,2.7,1.8,4.3c16.8-10.2,33.6-12.6,51-4.4c5.6,2.7,10.5,7,15.3,10.9
			c13.5,11.4,26,24,40.3,34.2c17.4,12.3,37.1,17.2,58.4,9.5c1.8-0.6,3.3-0.5,4.5-0.4c-2.3,4.9-4.1,9.1-6.1,13.2
			c-18.4,36.8-26.3,76.4-31.2,116.7c-1.4,11.4-2.3,22.9-3.9,34.3c-0.4,2.6-1.7,5.4-3.5,7.3c-8.6,9.1-17.3,18-26.3,26.7
			c-2,2-5.5,3.4-8.3,3.5c-10.4,0.5-20.4-1.6-28.7-8.4c0,0-2.1-1.9-4.3-3.3c-0.2,5.4-0.4,9.8-0.5,14.2c-0.1,5.1-0.2,10.3-0.2,15.5
			c0,3.4-1.5,4.8-5,4.6c-7.7-0.4-13.5-2.3-17.5-10.4c-10.1-21.1-23.4-40.3-37.8-58.7c-1.8-2.3-5.2-3.6-8.1-4.7
			c-5.9-2.3-11.8-4.3-17.9-6.2c-3.1-1-6.4-2.2-9.5-1.9c-38.8,4.7-77.7,9.3-116.5,14.7c-19.3,2.7-38.4,7-57.4,10.8
			c-3.7,0.7-4.8-0.5-6.5-3.7c-4.9-9.5-2.1-107.9-2.1-107.9 M335.5,1016.8c0,0-4.1-5.5-6-7.8c-10.1-12.3-20.1-24.9-30.9-36.7
			c-25.1-27.2-55.1-46.7-91.2-55.8c-17-4.3-34.1-7.8-51.3-11.1c-17.6-3.4-32.7-6.9-47.3-17.9c-2.3-1.6-6.4-3.2-7.8-3 M479,1049
			c-2.8-0.8-10.9,0.5-10.9,0.5c-14.9,1.8-29.2-0.4-42-8.4c-6.8-4.2-13.4-8.6-20.2-12.9c-10.6-6.7-21.6-12.1-34.3-14.1
			c-10.5-1.6-32.4,0.5-33.9,2.5 M324.9,1020.9c0,0-4-2.5-10.9-4.2c-7.3-1.7-14.6-0.3-22.1-0.1c-36.9,0.8-73.4,4.6-109.8,9.9
			c-14.4,2.1-28.6,4.7-42.8,7.3l-6.6,1.4 M393.3,992.2L393.3,992.2l-1.8-4.9c-6.9-15.9-10-32.5-8-49.7c1.4-12,3.4-24.1,5.3-36.1
			c2.7-16.6,3.3-33.1-2.4-49.4c-3.1-8.6-11.5-16.3-16.3-19.6c-4.4-3.5-13.1-4.6-16.9-1.1c13.9,5.9,27.3,15.8,29.8,29.5
			c1.7,9.3,2,19.3,1.1,28.7c-1.1,10.8-3.7,21.6-6.3,32.3c-5.6,23.2-2.7,45.7,4.2,67.9c0.2,0.7,1.2,3.7,1.2,3.7s2.6-4,3.8-5
			C389,990.1,392.1,991.4,393.3,992.2z M410.8,1068.9c0,0-6.8-5.3-12.1-11.3c-5-6.2-7.1-8.2-12.5-14.2
			c-9.5-10.5-23.2-16.5-37.5-18.1 M407.9,1102.1c1.1-6.8-46.8-68.3-65-73.8 M323.4,1019c5.5,5.9,20.2,9.8,25.6,6.8
			C343.2,1017.8,329.9,1014.2,323.4,1019z"/>
		<path class="st1" d="M371.5,74.4c-6.9-2.6-20,12.9-20,12.9c-9.5,12.8-19,25.7-28.4,38.7c-1,1.4-1.6,3.8-1.3,5.5
			c0.5,4.9-1.4,8.1-5.4,10.3c-3.2,1.7-6.6,3.4-10,4.6c-1.4,0.5-3.5,0.4-4.5-1.2c-0.6-1.1-0.4-2.9,0.4-4c11.9-17,24-34,36.1-50.9
			c4.5-6.4,8.8-13,13.7-19.1c2.3-2.8,5.5-5.3,8.8-6.7c8.1-3.5,25.3-10,25.6-9.9c6.4,1.1,7.5-2.3,12.1-6.7c1.4-1.3,4.3-0.7,4.7-0.5
			c2.6,0.8,8.4-5.9,8.4-5.9c3.2-4.1,4.4-4.3,7.5-1.7c2.6,2.1,3.1,2.8,1.5,5.7c-1.3,2.1-2.9,4.1-4.3,6.2c-0.7,1-1.5,3.2-1.1,3.7
			c2.8,3.9-1.6,6.3-3,9.4c-0.8,1.6,0.6,5.8,0.6,5.8s1.1,4.8,0.3,6.6c0,0-53.8,82.3-83,121.7c-20.7,28-41.7,55.7-62.1,84
			c-7.8,10.9-18.6,18.5-27.8,27.8c-8,8.2-15.8,16.6-23.7,25c-3.6,3.7-7.2,7.4-11,10.9c-1.1,1-3.1,1.1-4.7,1.6c0-1.6-0.8-3.6-0.1-4.9
			c8.8-20.6,17-41.6,27.1-61.7c7.6-15,17.4-29.1,27.1-43.1c25.6-37.2,51.6-74,77.7-111c8.9-12.7,18.2-25,27.3-37.6L371.5,74.4z
			 M411.8,64.5l-17.1-11.7 M368.7,78.1c10.6,1.3,23.4,8.4,30.6,19.9 M324,205.9c-5.2-8.3-20.8-19-29.1-23.6 M281,200.9
			c7.8,3.9,25.7,17.7,30,23.7 M229,279.3c2,6.2,19,19.1,25,18.7 M235.2,315.9c-6.1-0.6-15.7-6.8-17.8-12.1 M205.8,331.1
			c-1,3,6.4,8.8,8.8,6.6 M303.2,170.9c1.8,0.6,14.1,10.3,14.1,10.3s14.6,12.2,14.3,15.2 M276.1,208.2c6.5,2.5,26.2,18.2,29.7,23.3"
			/>
		<path class="st0" d="M594,593.3c27.9,4.8,54.4-1.9,70-9c24.4-11.2,37.6-30.4,41-56.8c4.4-33.5-10.7-77-51.8-96.6l-0.1-0.1
			c-3-1.3-9.1-3.7-13.9-4.2c-16.4-1.8-32.8-4.1-49.2-4.1c-26.8,0-52.4-4.1-76.5-16.4c0,0-3.2-1.8-4.8-2.1c-3.3-0.9-5.8,1.4-5.1,4.5
			c0.8,3.7,4.4,10.7,4.4,10.7c10.1,19.8,14.5,41,16.7,62.9c1.6,16.5,3,33.1,5.4,49.7c2.2,15.3,9.1,28.4,20.3,39.3
			C562.9,583,577.5,589.8,594,593.3L594,593.3z"/>
		<path class="st0" d="M595.1,612.9c-37.2-9.4-80.1-16.6-112.5-140.8l0,0c-5-25.8-4.9-51.3,3.2-76.4c1.4-4.4,3.3-8.7,5.6-12.8
			c2.5-4.5,5.1-4.8,9.6-2.3c0.9,0.5,1.7,1.1,2.5,1.6c15.6,13.4,33.8,20.4,53.4,24.4l0.3,0.1c10.7,2.3,70.5,11.1,77.9,19.5"/>
		<path class="st1" d="M471.3,599.4c-45.2,28.3-64.8,70.1-63.4,122.4c0.9,33,16.1,57.1,47,70.5c28.1,12.1,56.1,10.9,84.1-0.4
			c25.5-10.3,52-30.6,72.2-49.1"/>
		<path class="st1" d="M613.1,745.1c-22.8,21.3-53.9,47.7-83,59.7c-55.2,22.7-111.8,0.8-144.6-36.8c-34.3-39.5-42.2-85.2-32-135.2
			c9.2-44.8,31.4-82,65.9-112"/>
		<path class="st0" d="M1062.5,805.8"/>
		<path class="st0" d="M1080.9,784.7"/>
		<path class="st1" d="M1121,616.7c-2.5-5.7-4.7-11.4-7.5-16.9c-17.6-34.2-32.9-50.9-88.8-74c0,0-119-46.4-183.7-37.1"/>
		<path class="st0" d="M794.1,300.8l-48,59.6l0,0l-50.7-0.3l0,0c-40.8,0.1-134.9,2.1-134.9,2.1l0,0c-28.4,0.4-57.1,1.1-85.6,2.7
			c-5.2,0.1-7.7-4.5-6.3-10.6l0.7-0.3c35.4-16.2,70.9-32.5,106.3-48.6c1.9-0.9,4.1-1.6,6.1-1.9c55.7-6.3,211.4-5.6,211.4-5.6l0,0
			C795.1,297.9,794.9,299.7,794.1,300.8"/>
		<path class="st0" d="M568.7,408.9l-1.9-46.8"/>
		<path class="st1" d="M832.9,426.8c82.7,11.5,214,44.6,267,112.2c28.9,37,44.3,78.7,41.3,126.2c-2.4,40-18,74.8-41.8,106.2
			c-25.5,33.5-57.5,59.6-92.9,81.8c-16.2,10.2-37.5,21-54.2,30.4l-0.7,0.3c-0.6-0.1-0.7-0.7-0.6-1.2l3.1-1.6
			c31.5-15.9,61.9-37.9,88.9-60.7l0,0c12.9-13.5,26.7-25,38.3-39.4c23.2-28.7,38.9-61.2,44.8-98c2.5-15.4,7-38.3-5.1-66.3"/>
		<path class="st2" d="M756.4,304.8l-88,1.5c0,0-64.7,1.9-83.7,3.7c-2.4,0.3-4.7,1.1-6.9,2.1c-25.5,12.3-65.1,28.9-90.6,41.3l0,0
			c-1.3,0.8-0.9,2.7,0.5,3v0c0,0,179-5.1,245-5.8c10.5-0.7,15.8-10.8,43.1-41.7c1.2-1.4,0.6-3.6-1.2-4L756.4,304.8"/>
		<path class="st2" d="M677.8,515.9c-5.1-39.1-36.3-53-69.3-44.6c-18.9,4.8-27.8,18.1-32.6,35.6c-8.2,29.9,2.2,54.6,30.5,61.9
			c28.8,7.4,45.4,1,55.8-9.2C675.8,546.4,680.4,531.3,677.8,515.9z"/>
		<path class="st2" d="M822.9,478.3c-0.4,10.5-2.2,19.8-6.9,28.5c-8.9,16.6-33.2,19.7-45.6,3.5C759.5,496,756,477.5,759,460.6
			c1.5-7.9,3.8-14.9,7.7-21.8c10.5-19,36.5-17.8,47.2,1.1C821.2,452.4,823.1,463.9,822.9,478.3z"/>
		<path class="st3" d="M1113.2,634.9c-1.1,1.6-2,3.2-3.2,4.7c-38.5,51.4-76.8,102.7-115.4,154c-1.3,1.6-3.1,3.1-4.9,3.9
			c-32.3,13.5-66.7,29-99,42.4l0,0c-1.8,0.5-3.3-1.5-2.3-3l0.2-0.3c42.2-48.7,86.5-99.6,128.8-148.2c1-1.1,2.1-2.2,3.4-2.9
			c29.3-16.6,58.5-33.3,87.8-49.8c1.2-0.7,2.5-1.2,3.8-1.6C1112.6,634.3,1113,634.5,1113.2,634.9z M892.4,837
			c31.5-13,65.2-28.2,96.7-41.3c1.7-0.7,3.3-2.2,4.5-3.8c36.8-49.1,75.3-101.3,112.1-150.3l0,0c0.2-0.3-0.1-0.7-0.4-0.7l0,0
			c-26.1,14.8-56.2,30.7-82.3,45.7c-1.7,0.9-3.3,2.2-4.7,3.7c-41.7,47.9-85.3,98-126.8,145.9c0,0-0.7,0.7-0.5,1.1
			C891.3,837.5,892.4,837,892.4,837z"/>
		<path class="st3" d="M792.6,784.7l8.2-8.3l4.2,4.3l-8.3,8.1L792.6,784.7z"/>
		<path class="st2" d="M639.3,554.1c-14.1-1.4-20.8-13-19.4-27.3c1.4-14.7,10-28.3,25.1-28c13.8,2.2,21,13.9,18.8,29.8
			c-0.5,5.8-1.5,12-7.3,18.9C651.9,552.9,645,554.7,639.3,554.1z"/>
		<path class="st2" d="M799.4,508.3"/>
	</g>
	<line class="st1" x1="416" y1="53.9" x2="406.2" y2="47.2"/>
</g>
<path class="st0" d="M680.7,451.1c6.2,1.6,15.6,5.2,20.9-0.1c12.8-14.2,24.9-29.3,38.1-43l0,0l-3.7-47.7"/>
<path class="st2" d="M791.2,503.8c-11.5,1.6-19.1-6.4-20.8-18.1c-1.7-12,2.5-24.5,14.5-27.3c11.4-0.9,19.5,7.1,20.8,20.2
	c0.7,4.8,1.1,9.9-2.1,16.5C801,500.4,795.9,503.1,791.2,503.8z"/>
<path class="st1" d="M529.6,578c0,0-35.6,7.3-58.3,21.4"/>
<path class="st1" d="M419.4,520.9c29.7-26,67.7-32.6,67.7-32.6"/>
<path class="st0" d="M746.4,594.4c-7.7-13-17.9-35.2-24.4-48.7"/>
<path class="st0" d="M738.9,600.3c-0.1,3.2-2.9,6.7-6.4,2.8"/>
<path class="st0" d="M749.1,590.5c5.7,7.1,15.9,21.7,19.7,42.8c2.6,14.3,1.3,26.4-0.2,34.3"/>
<path class="st0" d="M718,755.9c9.2-2.8,10-4.1,14.5-7.8"/>
<path class="st3" d="M802.9,774l8.7-8.8l4.1,4.9l-8.5,8.4L802.9,774z"/>
<path class="st3" d="M806.7,801.6l19-19.9l7.8,10.1l-17.9,19.1L806.7,801.6z"/>
<path class="st3" d="M814.1,762.8l8.2-8.3l4.2,5l-8.3,8.1L814.1,762.8z"/>
<path class="st3" d="M809.9,781.2l8.2-8.3l4.2,5l-8.3,8.1L809.9,781.2z"/>
<path class="st3" d="M828.6,778.7l8.5-9l7.6,10.4l-7.8,8.6L828.6,778.7z"/>
<path class="st3" d="M824.6,752.6l8.7-8.8l7.9,9.7l-8,8.4L824.6,752.6z"/>
<path class="st3" d="M835.1,741.7l8.3-8.5l8,9.1l-8,8.6L835.1,741.7z"/>
<path class="st3" d="M899.9,679.2l7.3,6.3L854.2,740l-8.4-9.1l51-52.6"/>
<path class="st3" d="M913.8,678.6l-5.1,5.6l-3.4-3.6"/>
<path class="st3" d="M921.7,660.3l4.3,5.3l-8,8.4l-1-1.1"/>
<path class="st3" d="M922.9,651.3l5.4-5.4l7.9,9.7l-8,8.4l-5.5-6"/>
<path class="st3" d="M929.9,644.3l10.1-10.3l8.7,8.2l-10.5,11.3L929.9,644.3z"/>
<path class="st3" d="M838.9,768l8.5-9l7.9,10l-7.8,8.6L838.9,768z"/>
<path class="st3" d="M849.1,757l8.5-9l7.9,10l-7.8,8.6L849.1,757z"/>
<path class="st3" d="M859.3,746.5l8.5-9l7.9,10l-7.8,8.6L859.3,746.5z"/>
<path class="st3" d="M869.3,735.3l8.5-9l7.9,10l-7.8,8.6L869.3,735.3z"/>
<path class="st3" d="M879.9,724l8.5-9l7.6,10.4l-7.8,8.6L879.9,724z"/>
<path class="st3" d="M890.3,713.2l8.5-9l7.9,10l-7.8,8.6L890.3,713.2z"/>
<path class="st3" d="M900.5,702.3l8.5-9l7.9,10l-7.8,8.6L900.5,702.3z"/>
<path class="st3" d="M910.7,691.7l8.5-9l7.9,10l-7.8,8.6L910.7,691.7z"/>
<path class="st3" d="M920.7,680.5l8.5-9l7.9,10l-7.8,8.6L920.7,680.5z"/>
<path class="st3" d="M930.7,668.6l8.7-8.8l7.6,10.1l-8,8.4L930.7,668.6z"/>
<path class="st3" d="M941.5,657.8l10.3-12.1l9.4,8.8l-10.7,12.4L941.5,657.8z"/>
<path class="st3" d="M835.7,800l8.5-9l7.6,10.4l-7.8,8.6L835.7,800z"/>
<path class="st3" d="M846.1,789.3l8.5-9l7.9,10l-7.8,8.6L846.1,789.3z"/>
<path class="st3" d="M856.2,778.3l8.5-9l7.9,10l-7.8,8.6L856.2,778.3z"/>
<path class="st3" d="M866.4,767.8l8.5-9l7.9,10l-7.8,8.6L866.4,767.8z"/>
<path class="st3" d="M876.5,756.6l8.5-9l7.9,10l-7.8,8.6L876.5,756.6z"/>
<path class="st3" d="M887.1,745.3l8.5-9l7.6,10.4l-7.8,8.6L887.1,745.3z"/>
<path class="st3" d="M897.5,734.5l8.5-9l7.9,10l-7.8,8.6L897.5,734.5z"/>
<path class="st3" d="M907.6,723.6l8.5-9l7.9,10l-7.8,8.6L907.6,723.6z"/>
<path class="st3" d="M917.8,713l8.5-9l7.9,10l-7.8,8.6L917.8,713z"/>
<path class="st3" d="M927.9,701.8l8.5-9l7.9,10l-7.8,8.6L927.9,701.8z"/>
<path class="st3" d="M937.9,689.9l8.7-8.8l7.6,10.1l-8,8.4L937.9,689.9z"/>
<path class="st3" d="M948.5,679.3l17.5-19.4l9.8,8.2l-18.6,20.6L948.5,679.3z"/>
<path class="st3" d="M851.4,807.5l8.5-9l7.6,10.4l-7.8,8.6L851.4,807.5z"/>
<path class="st3" d="M861.8,796.7l8.5-9l7.9,10l-7.8,8.6L861.8,796.7z"/>
<path class="st3" d="M871.9,785.8l8.5-9l7.9,10l-7.8,8.6L871.9,785.8z"/>
<path class="st3" d="M882.1,775.2l8.5-9l7.9,10l-7.8,8.6L882.1,775.2z"/>
<path class="st3" d="M892.2,764l8.5-9l7.9,10l-7.8,8.6L892.2,764z"/>
<path class="st3" d="M902.8,752.7l8.5-9l7.6,10.4l-7.8,8.6L902.8,752.7z"/>
<path class="st3" d="M913.1,742l8.5-9l7.9,10l-7.8,8.6L913.1,742z"/>
<path class="st3" d="M923.3,731l8.5-9l7.9,10l-7.8,8.6L923.3,731z"/>
<path class="st3" d="M933.5,720.5l8.5-9l7.9,10l-7.8,8.6L933.5,720.5z"/>
<path class="st3" d="M943.5,709.2l8.5-9l7.9,10l-7.8,8.6L943.5,709.2z"/>
<path class="st3" d="M953.5,697.4l8.7-8.8l7.6,10.1l-8,8.4L953.5,697.4z"/>
<path class="st3" d="M964.2,686.8l14.2-16.3l9.5,8.5l-15,17.1L964.2,686.8z"/>
<path class="st3" d="M849.7,815.2l6.5,6l-11.5,12.3l-0.1,0.1l-21.4-20.3l8.5-9"/>
<path class="st3" d="M850,814.8l-3.2,3.4"/>
<path class="st3" d="M831.4,804l15.7,14.7"/>
<path class="st3" d="M931.9,744.8l8.3-9.1l8.1,9.9l-7.6,8.8L931.9,744.8z"/>
<path class="st3" d="M941.9,734l8.3-9.1l8.1,9.9l-7.6,8.8L941.9,734z"/>
<path class="st3" d="M951.7,722.6l8.3-9.1l8.1,9.9l-7.6,8.8L951.7,722.6z"/>
<path class="st3" d="M962,711.1l8.3-9.1l7.8,10.2l-7.6,8.8L962,711.1z"/>
<path class="st3" d="M972.2,700.1l8.3-9.1l8.1,9.9l-7.6,8.8L972.2,700.1z"/>
<path class="st3" d="M990.3,679.7l8.1,9.9l-7.6,8.8l-8.8-9.5L990.3,679.7"/>
<path class="st3" d="M870.4,810.6l8.4-9l8,10l-7.7,8.7L870.4,810.6z"/>
<path class="st3" d="M880.5,799.9l8.4-9l8,10l-7.7,8.7L880.5,799.9z"/>
<path class="st3" d="M890.5,788.6l8.4-9l8,10l-7.7,8.7L890.5,788.6z"/>
<path class="st3" d="M901,777.2l8.4-9l7.7,10.3l-7.7,8.7L901,777.2z"/>
<path class="st3" d="M911.2,766.3l8.4-9l8,10l-7.7,8.7L911.2,766.3z"/>
<path class="st3" d="M929.7,746.2l8,10l-7.7,8.7l-8.7-9.6L929.7,746.2"/>
<path class="st3" d="M850.9,831.5l8.4-9l8,10l-7.7,8.7L850.9,831.5z"/>
<path class="st3" d="M860.9,820.9l8.4-9l8,10l-7.7,8.7L860.9,820.9z"/>
<path class="st4" d="M1051.6,232.5c-17.8,2.4-33.3,2.6-54.2-5.1c-22.5-8.1-35.9-23.3-43.6-42.7c-9-22.9-8.2-45.2,6.1-66.5
	c12.7-18.9,32.5-29.8,57.1-33c27.5-3.7,53.1,0.9,74.5,17.3c15.9,12.2,25.1,28.2,27.5,46.2c4.2,30.5-11.2,57.8-40,76.1 M1094.2,284.9
	l-0.8,0.9c-1.3-0.5-2.4-0.9-3.7-1.4c-10.6-4.2-21.1-6.7-32.8-4.4c-10.3,2.1-19.8,5.3-24.6,14.5c-4.2,8.3-0.3,14.8,10,15.7
	c7.1,0.7,14.5,0.5,21.9,0.7c15.3,0.7,30.9,1.6,44.1,9.7c7.1,4.4,13.2,9.9,19.6,15c5.8,4.8,12.2,8.3,20.1,9.5
	c15.6,2.1,30.9,0.7,45.7-4.2c9.8-3.2,19-7.4,25.1-15c9.8-12.2,10-25.6,3.2-38.8c-5-9.5-11.4-18.5-17.4-27.7
	c-5-7.6-10.3-15.2-16.4-22.2c-7.1-8.1-22.3-6.5-29.5,0.7c5.8,7.8,12.8,14.8,18.6,22.6l0,0c-1.1-1.2-1.8-2.3-2.9-3.5
	c-7.4-9-14.5-18-22.2-26.8c-5-5.8-11.1-6.9-21.1-2.3c-4.8,2.3-7.6,5.9-4.2,9.9c6.3,7.8,13.4,16,20,24.1c0.8,1.2,2.1,2.3,2.9,3.5l0,0
	c-1.1-1.2-1.8-2.3-2.9-3.5c-8.5-10.2-16.6-20.3-25.4-30.2c-4.8-5.3-14-5.5-20.9-0.7c-4.5,3.2-6.8,10.9-2.6,16.2
	c7.4,8.8,14.2,16.6,21.4,25.6l3.4,4.2l0,0c-1.1-1.4-2.4-2.8-3.4-4.2c-15.1-18-29.9-36-45.5-53.8c-7.1-8.1-15.3-15.5-23.8-22.6
	c-6.1-5.1-13.2-3-14.8,4.4c-0.8,3.2,0,7.2,1.1,10.4c1.1,3.2,3.2,6,5.3,8.8c12.4,15.9,25.1,32.1,37.8,47.8
	C1084.1,273.5,1089.4,279.1,1094.2,284.9z"/>
<path class="st4" d="M1066.7,135.7l-0.8,2.1c-8.5,16.4-16.6,32.5-25.1,48.9c-2.6,5.3-6.3,5.5-10.3,0.9
	c-12.7-14.8-25.1-29.3-37.8-44.1c-3.2-3.7-2.4-5.8,2.9-6.5c10.8-1.6,21.9-2.5,32.8-3.9c9.5-1.2,19-2.1,28.8-3
	C1062.7,129.5,1066.7,132.7,1066.7,135.7z"/>
<path class="st4" d="M1341,1286.3c-9.3-11.2-20.8-21.9-30-33.1c-22.2-27-44.5-53.9-66.7-80.9c-2.5-3-5.1-5.9-7.4-9.1
	c-1.5-1.9-3-2.1-5.3-1.7c-19.6,4.4-39.5,6.8-59.5,3.8c-34.6-5.1-62.1-22.6-81.1-51.5c-20.7-31.3-28.3-65.9-19.8-102.7
	c9.9-42.5,36.5-71.4,76.6-87.5c50.5-20.1,106.6-6.5,142.1,34.4c23.2,26.8,32.9,58.5,30,94c-2.5,31.5-17.1,57.5-38.8,79.8
	c-2.3,3-4.9,3.8-2.1,7.2c18.8,23.2,43.6,51.8,62.1,75.5"/>
<path class="st4" d="M1187.7,944c32.7,1.5,60.8,12.3,83.6,35.5c14.6,14.8,21.7,32.7,23.2,53.2c4.2,60.4-43.1,102.7-92.5,107.9
	c-51.5,5.7-97.7-28.7-106.4-83.7c-4.6-28.9,4-54.5,21.5-77.1C1135.1,956.6,1159,945,1187.7,944z"/>
<path class="st4" d="M1188.5,971c26.8,0.8,50.2,9.9,66.5,32.3c18.6,25.6,16.9,61.5-3.2,87.5c-20.3,26.2-56.2,35.1-87.6,21.5
	c-31-13.3-48.1-43.5-44.8-77.1c1.7-16.1,8-29.8,17.9-41.8C1150.7,977.3,1168.3,970.8,1188.5,971z"/>
</svg>
