<?xml version="1.0" encoding="utf-8"?>
<!-- Generator: Adobe Illustrator 23.0.1, SVG Export Plug-In . SVG Version: 6.00 Build 0)  -->
<svg version="1.1" id="Layer_1" xmlns="http://www.w3.org/2000/svg" xmlns:xlink="http://www.w3.org/1999/xlink" x="0px" y="0px"
	 viewBox="0 0 850 650" style="enable-background:new 0 0 850 650;" xml:space="preserve">
<style type="text/css">
	.st0{fill:#3DA9FC;}
	.st1{fill:#D8EEFE;}
	.st2{fill:#094067;}
	.st3{fill:#5F6C7B;}
	.st4{fill:#ADBCC4;}
	.st5{fill:#B7A521;}
	.st6{fill:#131118;}
	.st7{fill:#FFEA2C;}
	.st8{fill:#40B6FF;}
	.st9{fill:#424B54;}
	.st10{fill:none;}
	.st11{fill:#90B4CE;}
	.st12{fill:#FFFFFE;}
	.st13{fill:#06283D;}
	.st14{fill:#FFFFFF;}
	.st15{fill:#020224;}
	.st16{fill:none;stroke:#000000;stroke-width:4;stroke-miterlimit:10;}
	.st17{fill:#2F86BC;}
</style>
<g>
	<path class="st0" d="M167,215.4c3.7,13.6,9.2,29.7,17.5,47c8.1,17.1,17,31.3,25,42.7c-15.8,2.5-41.7,9-67.5,27.6
		c-10,7.2-28.2,20.6-41.7,45.5c-4.8,8.9-16.7,31.7-14.8,62.2c0.5,8.2,1.7,24.1,11.7,41.5c2.1,3.8,11.1,18.8,28.9,30.5
		c29.1,19.1,60.8,15.3,71.6,14c54.2-6.5,85.9-48.8,92.3-57.8c1.5,1.9,3,3.7,4.5,5.6c-24.9,27.8-50.3,44.3-66.8,50.8
		c-13.9,5.5-28.4,8.2-28.4,8.2c-5.3,1-11,1.8-18.4,2.3c-14.3,1-32.9,1-49.9-2.7c-36.4-7.9-59-30.6-64.2-36
		C44.3,473,37.5,447.3,34,433c-9.6-38.8-1.7-70.4,2.5-86.5c8.8-33.3,24.2-55.9,30.7-64.6c20.8-28.2,44-42.7,49.3-46
		C136.2,223.9,154.6,218.2,167,215.4z"/>
	<path class="st1" d="M367.7,143.4c-25.1,8.9-31,0.9-119.1-7.4c-12.9-1.2-25.9-2.3-38.9-9.9c-14.3-8.4-20.6-12.3-20.6-12.3
		c-11.5-7-12.4-7.8-14.1-7.5c-10.3,1.5-16,33.4-15.9,60.2c0.1,41.8,14.3,73.3,23.2,92.4c12.6,27.1,20.5,43.5,39.4,58
		c24.4,18.7,53.4,23,66.6,25c14.2,2.1,25.8,2,31.5,1.9c14.6-0.2,20.7,0,55.5-5.6c35.8-5.7,35.8-6.9,41.3-9.7
		c7.9-3.9,6.5-5.1,37.1-31.6c12.4-10.7,18-15.3,17-19.3c-1.2-4.7-12.6-0.8-24.9-6.7c-21.6-10.4-27.1-42.6-28.9-53.1
		c-1.2-6.9-1.4-12.4-1.6-19.3c-0.6-16.2,0.9-29.6,2.3-38.9l11.7-20.9c9.4-8.5,18.8-17,28.2-25.6c7.2-6.6,14.3-13.2,21.4-19.7
		c-5.8-26.1-11.3-32.3-15.5-32.5c-4.9-0.2-7.8,8-16.9,20.3l0,0c-7.7,12.3-16.5,19.8-21.4,24C389,135.8,367.7,143.4,367.7,143.4z"/>
	<path class="st1" d="M419,474.3c-3.3,5.8-9.5,14.5-20.1,21.3c-8.4,5.4-16.2,7.4-20.6,8.5c-8.3,2.1-15.3,2.3-19.4,2.2
		c-2.7,0-11.6-0.3-22.7-3.9c-12.3-4-20.5-9.9-25.5-13.5c-10.7-7.8-17.2-15.8-19-18c-7.7-9.7-11.5-18.5-14.7-26.1
		c-2.7-6.4-5.3-13.9-8.1-25.6c-5.7-23.9-9.5-54.1-6.2-54.8c1.7-0.4,4.4,7.6,9.6,20c15,35.4,22.5,53.2,36.5,66
		c17.3,15.8,39,19,64.1,22.8C392,475.9,408,475.3,419,474.3z"/>
	<path class="st2" d="M246.7,89.2l1.9,46.8c15.2,1.3,35.9,5.7,62.7,14.8c35.3,11.9,38.6,28.6,66.7,29.8l41.6-45.5l-3.7-47.7
		L246.7,89.2z"/>
	<path class="st3" d="M353.4,506c-6.5,8.6-9.5,16.6-10.9,21.7c-3.9,13.8-2,25.4-0.8,33.5c1.6,10.1,4.4,17.3,5,18.9
		c0.7,1.9,4.6,11.5,13,21.7c5.7,7,11.5,13.8,18.7,13.3c3.1-0.2,7.1-1.9,8.8-5c0,0,2.2-4.1-1.1-14.3c0,0,2.2,5.1,5.3,6.2
		c2.8,1,6.8-0.9,8.4-3.8c1.1-2.1,1.3-5.1-1.9-11.3c-4.8-9.3-10.6-13.4-15.3-18.4c-9.4-9.9-12.6-21.3-14.3-27.3
		c-1.8-6.3-4.3-18.8-0.3-35.2C363,505.9,358.2,506,353.4,506z"/>
	<path class="st4" d="M425,315.3c0.2,2.3,0.4,4.5,0.6,6.8c0.8-0.5,1.7-1.1,2.5-1.8c0.9-0.7,1.7-1.4,2.4-2.1
		C428.7,317.2,426.9,316.3,425,315.3z"/>
	<path class="st1" d="M429.7,317c-1.4,2.2-4.3,5.8-7.9,8.5c-5.6,4.2-11,5-21,6.6c-0.5,0.1-0.5,0.1-4,0.6
		c-10.3,1.6-15.3,2.5-21.9,3.5c-5.6,0.9-14.5,2.4-25,4c8.7,6.5,18.2,13.4,28.5,19.8c24.4,15.3,48.4,26.5,69.3,34.6
		c1.8-8.8,4.4-29-2.5-49.7C440.8,331.7,434.6,323,429.7,317z"/>
	<path class="st4" d="M350.7,340.1c3.6-0.5,19.1-1.9,22.8-2.4c25.5-3.5,40.3-2.8,55.5-20.1c2.6,2.3,3.3,4.5,3.3,4.5
		c-3.9,2.8-5.3,7.4-5.3,7.4s0.9,4.5-0.1,5.5c-1.3,0.7-3.9-0.8-5.6-1.1c-5.1-0.7-24.8,8.2-38.5,9.9
		C373.4,345,365.7,344.7,350.7,340.1z"/>
	<path class="st5" d="M423.8,327.2c-3.6,1.8-12.3-6.8-26.3-25.8l27.5,13.9C426.1,322.2,425.7,326.2,423.8,327.2z"/>
	<path class="st0" d="M374.9,473.3c7.3,0.6,14.6,1.1,21.9,1.7c0.7,4.1,1.5,8.2,2.2,12.3c-2.5-0.1-6-0.5-9.8-2.1
		C381,482,376.6,475.9,374.9,473.3z"/>
	<path class="st0" d="M409.6,474.9c-4.3,0-8.5,0-12.8,0c-0.1,0.9,1.3,7.5,1.3,7.5C400.5,481.6,405.2,481,409.6,474.9z"/>
	<path class="st4" d="M433.8,133.7c3-9.9,38.6-29.9,44-45.3l1.3,5.9C465.2,110.5,433.8,133.7,433.8,133.7z"/>
	<path class="st6" d="M429.9,468.8c-0.5,0.3-4.3,3-4.6,7.7c-0.2,2.9,1,5.1,1.5,5.9c3.4,3.4,8.8,8.7,15.5,15.1
		c7.7,7.2,11,10,19.2,17.5c12.2,11.2,12,11.6,22.4,21.1c7.1,6.6,13.6,12.1,26.7,23.2c17.7,15.1,23.9,19.9,31.2,18.5
		c4.9-1,7.9-4.3,9.4-5.9c46.5-50.1,90.6-105.3,138-154.5c0,0,3.4-3.3,2.9-6.4l-53.9-46c0,0-18.2-16.4-32.8-28.4
		c-1.4-0.8-4.2-2-7.9-2.1c-3-0.1-5.4,0.7-6.8,1.2C537.1,380.2,483.5,424.5,429.9,468.8z M549.4,577c2.9,4,5.5,2,8,1
		c39.8-16.7,79.6-33.3,119.2-50.1c3-1.3,6-3.7,8-6.5c38.9-53.8,77.7-107.6,116.4-161.5c0.6-0.9,0.8-2.1,0.4-3.1l-0.5-1.3
		c-0.3-0.7-0.9-1.3-1.6-1.5c-0.2,0-0.3-0.1-0.5-0.1c-1.2-0.3-2.5-0.2-3.5,0.5c-30.9,17.7-61.8,35.5-92.6,53.6
		c-4.4,2.6-8.5,5.9-11.8,9.6c-45.7,51.2-91.2,102.5-136.7,153.9C552.7,573.2,551.1,575,549.4,577z"/>
	<path class="st3" d="M601.6,387.4l4.3,5.3l-8,8.4l-1-1.1"/>
	<path class="st3" d="M579.8,406.3c2.4,2.1,4.9,4.2,7.3,6.3l-53,54.5l-8.4-9.1c17-17.5,34-35.1,51-52.6
		C577.7,405.7,578.8,406,579.8,406.3z"/>
	<path class="st3" d="M591.9,404l1.8,1.7l-5.1,5.6l-4.7-4.6"/>
	<path class="st3" d="M602.8,378.4l5.4-5.4l7.9,9.7l-8,8.4l-5.5-6"/>
	<path class="st1" d="M256.6,333.3c0,3.6,0.2,10,0.8,15.7c0.5,4.9,1.9,17.1,6.6,32.3c3.7,12.2,8.9,29,22.2,46.7
		c3.9,5.2,12.9,17,28,27c20.1,13.4,39,16.2,60.7,18.7c7.3,0.9,40.3,4.4,79.4-4.7c0,0,21.8-5.1,37.6-19.2c6.3-5.6,9.5-10.7,9.4-16.2
		c0-2.1-0.5-4.7-2.7-8.5c-6.4-11-18.5-15.7-20.7-16.6c-2.7-1-27.5-13.2-77.3-37.4c-12-5.8-32.1-18.3-51.2-32.6
		c0,0-38.1,5.7-64.8,1.5C274.4,338.4,264.7,335.8,256.6,333.3z"/>
	<path class="st1" d="M429,317.6c3.7,4.7,7.7,10.7,11.3,17.9c2.2,4.3,3.8,8.9,5.2,12.6c7.1,1.6,15,3.3,23.3,6.3
		c5.8,2.1,11.1,4.3,15.9,6.5c8.8,4.1,10.4,5.1,23.3,11.3c10,4.8,10.4,4.8,21.7,10.2c8.7,4.1,15.2,7.4,19.2,9.4
		c26.2,13.1,30,16.1,36.8,14.6c6.1-1.3,11.7-5.6,14.6-10.8c2.2-4,2.3-8.4,2.5-17.2c0.2-9.2-1.2-15.8-1.6-17.8
		c-0.8-3.7-1.9-7.6-3.6-11.9c-6.6-16.6-21.6-30.4-30-37.9c-10.9-9.8-20.7-16.3-27.8-21c-6.9-4.6-12.9-8.1-16.3-10.1
		c-9.3-5.5-17.5-9.8-23.7-12.9c-1.9,1.5-4.5,3.2-7.8,4.9c-2.4,1.2-6.4,3.1-11.6,4.4c-2.5,0.6-5.7,1.3-9.6,1.5
		C456.8,290.9,442.9,304.2,429,317.6z"/>
	<path class="st4" d="M432.3,322.1c5-4.5,9.3-15.7,9.3-15.7s-5.5,5-12.6,11.2C429.7,319.6,432.3,322.1,432.3,322.1z"/>
	<polygon class="st7" points="430.4,317.5 407.9,270.8 429.5,292 	"/>
	<polygon class="st7" points="430.8,318.2 396,300.6 407.9,270.8 	"/>
	<path class="st4" d="M261.7,373.4c2.9,10.3,21.1,71.9,76.8,93.2c13.1,5,25.7,6.8,36.7,7c0,0,0.5,0.7,0.6,0.9
		c-11.7,1.3-33.9,2.2-56.2-9.2C270.9,440.6,261.7,373.4,261.7,373.4z"/>
	<path class="st3" d="M389.4,500.2c-1.4,6.4-1.8,11.7-1.9,15.6c-0.1,5.7-0.3,14.3,3.2,24.4c1.6,4.6,3.2,7.5,6.2,12.7
		c4.9,8.6,8.4,14.7,15.1,20.4c4,3.3,11.7,9.9,19.8,7.9c1.9-0.5,3.3-1.3,4.3-1.9c0.5-0.7,1.4-2.2,1.7-4.2c0.4-3.3-1.1-5.8-1.6-6.5
		c1.2,2.5,3.1,4.1,4.6,3.8c2.1-0.4,2.8-4.3,2.8-6.5c0-1.8-0.5-5.1-4.3-9.4c-4.3-4.8-8.2-5.8-13.6-8.9c-3.3-1.8-9.8-5.6-14.7-11.9
		c-2.6-3.3-5-10.7-9.9-25.4c-0.4-1.3-1.2-3.7-1.7-7c-0.5-3.2-0.6-6-0.5-7.9L389.4,500.2z"/>
	<path class="st8" d="M452.5,117c-8.7,6.2-32.7,25.1-41.6,58c-1.7,6.1-8.5,42.4,11.6,76.8c6,10.2,14.3,18.2,26.1,22.5
		c30.4,11.2,64.3-6.9,70-37.6c1-5.4,1.8-10.6,2.2-16.3c0.9-15-0.9-26.5-3.7-42.7c-1.9-11.1-4.3-21.3-5.8-28.1
		c-1.9-8.5-2.7-10.9-4.2-18.4c-1-4.8-2.6-12.7-4-23c-1.1-7.7-2.5-15.3-3.3-23c-0.7-6.6-1-11.1-2.8-11.5c-2.2-0.4-5.2,5.2-5.9,6.5
		C487.4,86.4,478.1,97.1,452.5,117z"/>
	<path class="st9" d="M398.9,495.6c-2.7,1.3-6.8,3.3-9.5,4.6c-0.8,3.1-1.3,7.5-1.3,7.5c2.3,2.3,9.6,1.9,11.8-1.8
		C399.9,505.9,398.5,496.3,398.9,495.6z"/>
	<path class="st0" d="M273.9,320.4c27.9,4.8,54.4-1.9,70-9c24.4-11.2,37.6-30.4,41-56.8c4.4-33.5-10.7-77-51.8-96.6l-0.1-0.1
		c-3-1.3-9.1-3.7-13.9-4.2c-16.4-1.8-32.8-4.1-49.2-4.1c-26.8,0-52.4-4.1-76.5-16.4c0,0-3.2-1.8-4.8-2.1c-3.3-0.9-5.8,1.4-5.1,4.5
		c0.8,3.7,4.4,10.7,4.4,10.7c10.1,19.8,14.5,41,16.7,62.9c1.6,16.5,3,33.1,5.4,49.7c2.2,15.3,9.1,28.4,20.3,39.3
		C242.8,310.1,257.4,316.9,273.9,320.4L273.9,320.4z"/>
	<path class="st9" d="M367.9,505.9l-14.5,0.1c-0.5,0.3-3.6,5.3-3.6,5.3c0.2,3.4,5.4,5.5,9.2,5.5c3.9-0.1,6.6-2.5,7.5-3.4
		c0.2-1.4,0.4-2.9,0.7-4.4C367.4,507.9,367.6,506.9,367.9,505.9z"/>
	<path class="st0" d="M512.5,155.1c0.8,3.2,1.7,6.6,2.4,9.9c3.6,17.8,5.4,34.7,6.1,50.4c0,0,23.5-3.5,63.4,4.4
		c7.6,1.5,17.9,3.1,36.1,7.6c44.2,11,66.3,16.5,89,27.5c20,9.8,51.3,25.1,73.4,59.4c29.3,45.4,22.9,94.1,21.1,106.2
		c-6.9,47.2-33.1,77.4-55.8,103.5c-40.9,47.1-83.1,66.3-82.8,66.7c0.4,0.5,74.5-29.5,121.1-102.6c12-18.9,33.7-53.8,34.5-103.5
		c0.2-11.4-0.1-61.2-33.1-107.1c-18.2-25.3-39.7-40.1-55.4-51c-21.8-15.1-41-23.5-54.2-29.3c-8.7-3.8-27.6-11.6-65.7-21.7
		C587.3,168.8,553.4,161.1,512.5,155.1z"/>
	<path class="st10" d="M275,340c-37.2-9.4-80.1-16.6-112.5-140.8l0,0c-5-25.8-4.9-51.3,3.2-76.4c1.4-4.4,3.3-8.7,5.6-12.8
		c2.5-4.5,5.1-4.8,9.6-2.3c0.9,0.5,1.7,1.1,2.5,1.6c15.6,13.4,33.8,20.4,53.4,24.4l0.3,0.1c10.7,2.3,70.5,11.1,77.9,19.5"/>
	<path class="st11" d="M474,27.9l-48,59.6l0,0l-50.7-0.3l0,0c-40.8,0.1-134.9,2.1-134.9,2.1l0,0c-28.4,0.4-57.1,1.1-85.6,2.7
		c-5.2,0.1-7.7-4.5-6.3-10.6l0.7-0.3c35.4-16.2,70.9-32.5,106.3-48.6c1.9-0.9,4.1-1.6,6.1-1.9C317.3,24.3,473,25,473,25l0,0
		C475,25,474.8,26.8,474,27.9"/>
	<path class="st10" d="M248.6,136l-1.9-46.8"/>
	<path class="st2" d="M436.3,31.9l-88,1.5c0,0-64.7,1.9-83.7,3.7c-2.4,0.3-4.7,1.1-6.9,2.1c-25.5,12.3-65.1,28.9-90.6,41.3l0,0
		c-1.3,0.8-0.9,2.7,0.5,3l0,0c0,0,179-5.1,245-5.8c10.5-0.7,15.8-10.8,43.1-41.7c1.2-1.4,0.6-3.6-1.2-4L436.3,31.9"/>
	<path class="st12" d="M357.7,243c-5.1-39.1-36.3-53-69.3-44.6c-18.9,4.8-27.8,18.1-32.6,35.6c-8.2,29.9,2.2,54.6,30.5,61.9
		c28.8,7.4,45.4,1,55.8-9.2C355.7,273.5,360.3,258.4,357.7,243z"/>
	<path class="st13" d="M246.7,89.2c30.9-0.8,62.4-1.4,94.3-1.7c25.3-0.2,50.3-0.3,74.9-0.1c0.2,2.7,0.4,5.5,0.6,8.2
		c-56.6-0.9-113.1-1.8-169.7-2.8C246.8,91.6,246.7,90.4,246.7,89.2z"/>
	<path class="st14" d="M502.8,205.4c-0.4,10.5-2.2,19.8-6.9,28.5c-8.9,16.6-33.2,19.7-45.6,3.5c-10.9-14.3-14.4-32.8-11.4-49.7
		c1.5-7.9,3.8-14.9,7.7-21.8c10.5-19,36.5-17.8,47.2,1.1C501.1,179.5,503,191,502.8,205.4z"/>
	<path class="st3" d="M793.1,362c-1.1,1.6-2,3.2-3.2,4.7c-38.5,51.4-76.8,102.7-115.4,154c-1.3,1.6-3.1,3.1-4.9,3.9
		c-32.3,13.5-66.7,29-99,42.4l0,0c-1.8,0.5-3.3-1.5-2.3-3l0.2-0.3c42.2-48.7,86.5-99.6,128.8-148.2c1-1.1,2.1-2.2,3.4-2.9
		c29.3-16.6,58.5-33.3,87.8-49.8c1.2-0.7,2.5-1.2,3.8-1.6C792.5,361.4,792.9,361.6,793.1,362z M572.3,564.1
		c31.5-13,65.2-28.2,96.7-41.3c1.7-0.7,3.3-2.2,4.5-3.8c36.8-49.1,75.3-101.3,112.1-150.3l0,0c0.2-0.3-0.1-0.7-0.4-0.7l0,0
		c-26.1,14.8-56.2,30.7-82.3,45.7c-1.7,0.9-3.3,2.2-4.7,3.7c-41.7,47.9-85.3,98-126.8,145.9c0,0-0.7,0.7-0.5,1.1
		C571.2,564.6,572.3,564.1,572.3,564.1z"/>
	<path class="st3" d="M472.5,511.8l8.2-8.3l4.2,4.3l-8.3,8.1L472.5,511.8z"/>
	<path class="st15" d="M319.2,281.2c-14.1-1.4-20.8-13-19.4-27.3c1.4-14.7,10-28.3,25.1-28c13.8,2.2,21,13.9,18.8,29.8
		c-0.5,5.8-1.5,12-7.3,18.9C331.8,280,324.9,281.8,319.2,281.2z"/>
	<path class="st16" d="M479.3,235.4"/>
	<path class="st10" d="M360.6,178.2c6.2,1.6,15.6,5.2,20.9-0.1c12.8-14.2,24.9-29.3,38.1-43l0,0l-3.7-47.7"/>
	<path class="st15" d="M479.5,227.4c-5.2,3.9-12.7,4.8-18.6,2.1c-10.2-4.7-12-18.2-10-27c1.4-6,6.3-16.4,15-17.1
		c9.8-0.8,16.2,11.2,16.9,12.6C487.2,206.3,488.6,220.5,479.5,227.4z"/>
	<path class="st3" d="M482.8,501.1l8.7-8.8l4.1,4.9l-8.5,8.4L482.8,501.1z"/>
	<path class="st3" d="M486.6,528.7l19-19.9l7.8,10.1L495.5,538L486.6,528.7z"/>
	<path class="st3" d="M494,489.9l8.2-8.3l4.2,5l-8.3,8.1L494,489.9z"/>
	<path class="st3" d="M489.8,508.3l8.2-8.3l4.2,5l-8.3,8.1L489.8,508.3z"/>
	<path class="st3" d="M508.5,505.8l8.5-9l7.6,10.4l-7.8,8.6L508.5,505.8z"/>
	<path class="st3" d="M504.5,479.7l8.7-8.8l7.9,9.7l-8,8.4L504.5,479.7z"/>
	<path class="st3" d="M515,468.8l8.3-8.5l8,9.1l-8,8.6L515,468.8z"/>
	<path class="st3" d="M609.8,371.4l10.1-10.3l8.7,8.2l-10.5,11.3L609.8,371.4z"/>
	<path class="st3" d="M518.8,495.1l8.5-9l7.9,10l-7.8,8.6L518.8,495.1z"/>
	<path class="st3" d="M529,484.1l8.5-9l7.9,10l-7.8,8.6L529,484.1z"/>
	<path class="st3" d="M539.2,473.6l8.5-9l7.9,10l-7.8,8.6L539.2,473.6z"/>
	<path class="st3" d="M549.2,462.4l8.5-9l7.9,10l-7.8,8.6L549.2,462.4z"/>
	<path class="st3" d="M559.8,451.1l8.5-9l7.6,10.4l-7.8,8.6L559.8,451.1z"/>
	<path class="st3" d="M570.2,440.3l8.5-9l7.9,10l-7.8,8.6L570.2,440.3z"/>
	<path class="st3" d="M580.4,429.4l8.5-9l7.9,10L589,439L580.4,429.4z"/>
	<path class="st3" d="M590.6,418.8l8.5-9l7.9,10l-7.8,8.6L590.6,418.8z"/>
	<path class="st3" d="M600.6,407.6l8.5-9l7.9,10l-7.8,8.6L600.6,407.6z"/>
	<path class="st3" d="M610.6,395.7l8.7-8.8l7.6,10.1l-8,8.4L610.6,395.7z"/>
	<path class="st3" d="M621.4,384.9l10.3-12.1l9.4,8.8L630.4,394L621.4,384.9z"/>
	<path class="st3" d="M515.6,527.1l8.5-9l7.6,10.4l-7.8,8.6L515.6,527.1z"/>
	<path class="st3" d="M526,516.4l8.5-9l7.9,10l-7.8,8.6L526,516.4z"/>
	<path class="st3" d="M536.1,505.4l8.5-9l7.9,10l-7.8,8.6L536.1,505.4z"/>
	<path class="st3" d="M546.3,494.9l8.5-9l7.9,10l-7.8,8.6L546.3,494.9z"/>
	<path class="st3" d="M556.4,483.7l8.5-9l7.9,10l-7.8,8.6L556.4,483.7z"/>
	<path class="st3" d="M567,472.4l8.5-9l7.6,10.4l-7.8,8.6L567,472.4z"/>
	<path class="st3" d="M577.4,461.6l8.5-9l7.9,10l-7.8,8.6L577.4,461.6z"/>
	<path class="st3" d="M587.5,450.7l8.5-9l7.9,10l-7.8,8.6L587.5,450.7z"/>
	<path class="st3" d="M597.7,440.1l8.5-9l7.9,10l-7.8,8.6L597.7,440.1z"/>
	<path class="st3" d="M607.8,428.9l8.5-9l7.9,10l-7.8,8.6L607.8,428.9z"/>
	<path class="st3" d="M617.8,417l8.7-8.8l7.6,10.1l-8,8.4L617.8,417z"/>
	<path class="st3" d="M628.4,406.4l17.5-19.4l9.8,8.2l-18.6,20.6L628.4,406.4z"/>
	<path class="st3" d="M531.3,534.6l8.5-9l7.6,10.4l-7.8,8.6L531.3,534.6z"/>
	<path class="st3" d="M541.7,523.8l8.5-9l7.9,10l-7.8,8.6L541.7,523.8z"/>
	<path class="st3" d="M551.8,512.9l8.5-9l7.9,10l-7.8,8.6L551.8,512.9z"/>
	<path class="st3" d="M562,502.3l8.5-9l7.9,10l-7.8,8.6L562,502.3z"/>
	<path class="st3" d="M572.1,491.1l8.5-9l7.9,10l-7.8,8.6L572.1,491.1z"/>
	<path class="st3" d="M582.7,479.8l8.5-9l7.6,10.4l-7.8,8.6L582.7,479.8z"/>
	<path class="st3" d="M593,469.1l8.5-9l7.9,10l-7.8,8.6L593,469.1z"/>
	<path class="st3" d="M603.2,458.1l8.5-9l7.9,10l-7.8,8.6L603.2,458.1z"/>
	<path class="st3" d="M613.4,447.6l8.5-9l7.9,10l-7.8,8.6L613.4,447.6z"/>
	<path class="st3" d="M623.4,436.3l8.5-9l7.9,10l-7.8,8.6L623.4,436.3z"/>
	<path class="st3" d="M633.4,424.5l8.7-8.8l7.6,10.1l-8,8.4L633.4,424.5z"/>
	<path class="st3" d="M644.1,413.9l14.2-16.3l9.5,8.5l-15,17.1L644.1,413.9z"/>
	<path class="st3" d="M611.8,471.9l8.3-9.1l8.1,9.9l-7.6,8.8L611.8,471.9z"/>
	<path class="st3" d="M621.8,461.1l8.3-9.1l8.1,9.9l-7.6,8.8L621.8,461.1z"/>
	<path class="st3" d="M631.6,449.7l8.3-9.1l8.1,9.9l-7.6,8.8L631.6,449.7z"/>
	<path class="st3" d="M641.9,438.2l8.3-9.1l7.8,10.2l-7.6,8.8L641.9,438.2z"/>
	<path class="st3" d="M652.1,427.2l8.3-9.1l8.1,9.9l-7.6,8.8L652.1,427.2z"/>
	<path class="st3" d="M670.2,406.8l8.1,9.9l-7.6,8.8l-8.8-9.5L670.2,406.8"/>
	<path class="st3" d="M550.3,537.7l8.4-9l8,10l-7.7,8.7L550.3,537.7z"/>
	<path class="st3" d="M560.4,527l8.4-9l8,10l-7.7,8.7L560.4,527z"/>
	<path class="st3" d="M570.4,515.7l8.4-9l8,10l-7.7,8.7L570.4,515.7z"/>
	<path class="st3" d="M580.9,504.3l8.4-9l7.7,10.3l-7.7,8.7L580.9,504.3z"/>
	<path class="st3" d="M591.1,493.4l8.4-9l8,10l-7.7,8.7L591.1,493.4z"/>
	<path class="st3" d="M609.6,473.3l8,10l-7.7,8.7l-8.7-9.6L609.6,473.3"/>
	<path class="st3" d="M530.8,558.6l8.4-9l8,10l-7.7,8.7L530.8,558.6z"/>
	<path class="st3" d="M540.8,548l8.4-9l8,10l-7.7,8.7L540.8,548z"/>
	<polygon class="st17" points="375.8,474.6 379.9,474.2 375.2,473.7 	"/>
	<path class="st3" d="M524.4,542.9l4.2-3.9l8,8.5l-12,13.1l-0.1,0.1l-21.4-20.3c2.8-3,5.7-6,8.5-9L524.4,542.9z"/>
	<path class="st3" d="M500.9,433.3c6.5,6.4,11.3,11.2,13.3,13.4c0.4,0.4,1.4,1.5,2.7,1.6c1,0,2-0.6,3.1-1.7l46.7-45.8l-25.5-12.9
		L498.8,426C499.5,428.5,500.2,430.9,500.9,433.3z"/>
</g>
<path class="st17" d="M209,305.2c0.6,0.8-1.8,0.5-2.5,0.4c-16-6.3-45.9-88.6-45.9-88.6c1.1-0.6,3-1.3,5.2-1.4
	C173.9,239.7,186.5,275,209,305.2z"/>
<path class="st17" d="M512.5,155.1l3.6,0.5c3.9,18.6,5.9,36.9,8.2,59.4l-3.3,0.4C521,198.1,513.4,158.4,512.5,155.1z"/>
<path class="st4" d="M435.2,318.7c0,0,7.4,13.1,11,29.6l0,0c-0.3-0.4-7.8-21.9-13.2-26.9L435.2,318.7z"/>
<path class="st17" d="M290,468.6l-2.3,3.1c2.7,0.2,4.9,2.4,4.5,5l2.3-2.6L290,468.6z"/>
</svg>
