<?xml version="1.0" encoding="utf-8"?>
<!-- Generator: Adobe Illustrator 23.0.1, SVG Export Plug-In . SVG Version: 6.00 Build 0)  -->
<svg version="1.1" id="Layer_1" xmlns="http://www.w3.org/2000/svg" xmlns:xlink="http://www.w3.org/1999/xlink" x="0px" y="0px"
	 viewBox="0 0 1429 803" style="enable-background:new 0 0 1429 803;" xml:space="preserve">
<style type="text/css">
	.st0{fill:#FFFFFE;}
	.st1{fill:#3DA9FC;stroke:#256993;stroke-width:3;stroke-miterlimit:10;}
	.st2{fill:#F5F6F8;stroke:#CCCCCC;stroke-width:3;stroke-miterlimit:10;}
	.st3{fill:#094067;}
	.st4{fill:#050527;}
	.st5{fill:#F2F3F5;stroke:#CCCCCC;stroke-width:3;stroke-miterlimit:10;}
	.st6{fill:#6CCBDE;}
	.st7{fill:#F5F6F8;}
	.st8{fill:#EEEEEF;}
	.st9{fill:#020224;}
	.st10{fill:#5F6C7B;}
</style>
<path class="st0" d="M687.2,270.2c-18,8.3-27.3,37.8-16.5,59.3c0.4,0.9,11.5,22.2,32.9,23.2c21.4,0.9,39.9-19.2,41.6-39.8
	c1.6-19.5-12.4-33-13.2-33.8c-8-7.5-17-9.7-20.2-10.4C709,268.2,697.4,265.6,687.2,270.2z"/>
<path class="st0" d="M825.5,352.2c0.9-18.7,8.2-32.6,20.2-39.8c4-2.4,13.6-7.5,26-6.1c3.3,0.4,15.3,1.1,25.4,13.5
	c5.4,6.6,7.7,23.3,4.3,33.2L825.5,352.2z"/>
<g>
	<g>
		<path class="st1" d="M558.9,214.3c-2.2,2.3-5.1,5.5-8.6,9.2c-9.3,10-12.6,14-19.1,21c-9.6,10.5-14.4,15.8-20.6,21.4
			C505,271,497,278.3,487.1,284c-7.1,4.1-19.5,9.5-42.1,12.1c-30.8,3.6-35.6-5.1-80.8-7.5c-37.4-2-52.2,3.1-60.1,6.4
			c-15.5,6.5-25.7,15.2-29.4,19.4c-4.8,5.5-52.1,60.6-34.6,128.3c8.4,32.7,28.2,53.8,38.9,63.7c21.1,15.7,39.7,23.3,51.9,27.2
			c13.1,4.2,27.3,6.8,33.4,7.9c11.3,2.1,20.9,3.3,28,4c0,26.1,0,52.1,0,78.3c-6.3,0-15-0.4-25.3-2c-10.7-1.7-18.6-3.9-28-6.7
			c-3.6-1.1-19.5-5.8-33.1-11.4c-30.8-12.7-57.4-33.2-68.5-42.2c-45.4-36.7-80.6-122.2-53-194.7c14.7-38.7,43.5-63,48.6-67.2
			c24.9-20.6,49.1-28.2,54.1-29.7c40.8-12.2,78.6-3.7,91.7-0.6c17.2,4.1,25.4,8.6,46.4,10.6c14.6,1.4,28,2.7,44.1-2.4
			c17.6-5.6,32.5-16.7,42.8-24.8c5.1-4,10.3-8.2,15.5-12.4c8.1-6.7,12-10.4,20.9-17.7C552.9,219.1,556.5,216.2,558.9,214.3z"/>
		<path class="st2" d="M763.9,352.1c6.1-12.9,10.5-26.4,9.4-41.1c-1.6-22.6-12.7-39.4-30.8-51.7c-9.8-6.7-20.8-11.5-31.1-17.5
			c-11.6-6.8-20.4-16.1-25.6-28.7c-1-2.5-1.6-4.2-1.9-4.9c-1-3.3-1.6-6.2-1.9-8.3c1.3-1.6,3.3-3.9,5.9-6.5c6.7-6.7,12-12,16.7-10.9
			c2.2,0.5,2.4,2,8.4,10.4c1.9,2.7,5.7,8,10.4,13.3c3.1,3.6,5.6,6,10.6,10.8c4.3,4.2,8.1,7.6,10.9,10.1l0,0l4,4.2
			c7.7,6.1,15.7,11.9,23.3,18.2c9.6,8,19.2,16.2,24,28.4c1.3,3.4,4.7,4.2,7.4,1.7c8.7-8.1,18.7-14,30-17.5
			c15.7-4.9,31.6-9.2,47.5-13.8l0,0l9.8-2.8l8.7-2.5c1.3-0.4,2.6-0.9,3.7-1.6c15.2-8.8,14.8-8.5,15.8-9.1
			c5.2-3.5,11.9-8.3,19.5-14.3c5.2-3.7,9.3-1.5,12,3.2c5.1,9.2,8,18.2,8.4,19.9c1.1,4.7,2.4,11.1,3.3,18.6c-1,0.3-2.3,0.8-3.8,1.7
			c-2.1,1.3-3.4,2.6-4,3.5c-1.7,3-4,5.8-6.6,8.1c-14.6,12.7-31.7,15.9-50.4,13.5c-10-1.3-20.1-2.3-30.2-2.1
			c-13.7,0.2-26.9,3.1-39,9.9c-22.8,12.7-34.4,32.2-35.9,58"/>
		<path class="st2" d="M965.6,321.8c0,0.7,0.2,2.1,1,3.6s1.9,2.4,2.5,2.8c-1.8,2.3-3.7,4.4-5.2,6.9c-3.4,5.5-5.6,11.5-4.8,18.1
			c-7.7,0-15.4,0-23.2-0.1c2.6-11.4,5.3-22.7,11.4-32.8c4.5-7.4,8.8-15,12.9-22.7c1.5-2.7,2.4-5.7,3.6-8.5l0.6,5.5
			c0.3,3.6,0.6,7.4,0.8,11.2c0.2,3.3,0.3,6.4,0.3,9.5C965.7,317.4,965.6,319.6,965.6,321.8z"/>
		<path class="st1" d="M678.1,193c1.5-0.9,3.5,0.1,3.6,1.9c0.4,5,1.6,11.3,4.5,18.1c6.3,14.6,16.6,23.8,25.3,28.8
			c10.3,6,21.3,10.9,31.1,17.6c18.1,12.3,29.2,29.1,30.8,51.8c1,14.2-2.9,27-8.6,39.5c-0.4,0.9-1.2,1.4-2.2,1.4
			c-14,0.1-28,0.2-41.9,0.3c-1.8,0-3.7,0.1-5.5,0.1c1.3-0.7,2.6-1.4,3.8-2c15.7-9.3,28.7-26.6,26.1-45.6
			c-2.7-19.5-15.8-32.6-35.1-36.5c-19.6-4-33.5,3.9-40.7,24.3c-1.3,3.7-2.1,7.5-2.5,11.4c-1.6,14.5,2.1,27.1,13.1,37.9
			c2.8,2.7,9,7.9,13.1,10.4l-15.9-0.1c-8.8,0-5.4,0-14.2-0.1c-2.4,0-4.9-0.6-7.4-1c-0.5-0.1-1-0.2-1.5-0.4c-0.7-0.2-1.6-0.8-1.6-0.8
			c-1.5-0.9-3.5-2.4-5.6-4.4c-2.3-2.3-3.6-4.3-4.6-5.8c0-0.1-0.1-0.1-0.1-0.2c-0.3-0.6-2.4-4.4-4.2-8.4c-6.3-13.8-1.9-26.5,4.6-38.5
			c19.8-36.1,20.7-58.2,20-65.5c-0.3-2.7-1.6-13.3,3.5-22.2c2.2-3.8,5.3-6.9,5.5-7.1C673.8,195.7,676.1,194.1,678.1,193z"/>
		<path class="st1" d="M964,289c-1.2,2.8-2.1,5.8-3.6,8.5c-4.2,7.6-8.4,15.2-12.9,22.7c-6.1,10.2-8.8,21.5-11.4,32.8h-34.7
			c0.6-3.8,1.4-7,1.7-10.2c1.8-24-16.4-36.9-36.7-36.8c-17.5,0.1-33.6,13-38.3,30.3c-1.3,4.9-2.1,9.8-2.6,15.9l-33.2-0.1
			c1.6-25.8,13.2-45.3,35.9-58c12.2-6.8,25.4-9.7,39-9.9c10.1-0.2,20.2,0.8,30.2,2.1c18.8,2.4,35.9-0.8,50.4-13.5
			c2.6-2.3,4.4-5.3,6.6-8.1c2-2.5,3.1-4.1,5.3-4.8c1.8-0.6,3.5-0.3,4.8,0.1c0.8,0.2,1.4,0.9,1.5,1.7c0.5,2.4,0.9,5.2,1,8.2
			C967.2,278,965.5,284.6,964,289z"/>
		<path class="st3" d="M758.6,154.9c12.2,0.1,24.4-0.1,36.7,0c20.1,0,25.5-1.3,36.6,0.7c3.6,0.6,9.9,2.1,22.3,4.9
			c7.2,1.6,13.1,3,17.1,4c2.4,0.6,6,1.5,10.4,2.7c4.1,1.1,5.8,1.7,11.4,3.3c4.7,1.3,9.5,2.7,14.2,4c5.1,1.4,10.3,2.8,15.4,4.2
			c3.6,0.9,7.3,1.8,11.2,2.6c4,0.8,7.8,1.5,11.5,2.1c-1,0.7-2,1.9-3,2c-4.6,0.5-9.2,0.8-13.8,1.1c-17.5,1.2-34.9,2.3-52.4,3.5
			c-9.5,0.7-19.1,1.8-28.6,2.2c-7.7,0.3-15.7,1-23.2-0.5c-11.2-2.3-22-6.6-33-9.9c-24.6-7.3-49.2-14.3-73.7-21.7
			c-2.1-0.6-3.8-2.4-5.7-3.7c0.4-0.4,22.6-0.8,24.5-0.8C742.6,155.2,758.6,154.9,758.6,154.9"/>
		<path class="st4" d="M877,352.6c-14,0-27.5,0-41,0c-2.1-9,2.8-19.3,11.4-24.9c7-4.6,15.6-4.3,22.6,0.9
			C877.1,333.7,879.8,343,877,352.6z"/>
		<path id="XMLID_1_" class="st5" d="M1055.1,393.6c-3.6,3.7-25.7,25.7-53.7,22.1c-4.3-0.6-13.5-1.9-22-8.8
			c-14.3-11.6-15.4-29.6-15.5-33.1c-1.6-6.6-3.3-13.1-4.9-19.7c-0.1-3.5,0.2-11.2,4.9-19.1c2.7-4.5,6-7.5,8.4-9.3
			c4.1-3.1,9.7-6.6,16.7-9.5c9.9-4.1,18.7-5.4,24.9-5.8c5.8-0.6,13.8-1,23.2-0.1c4,0.4,15.5,1.6,30.1,6.6
			c14.2,4.9,21.2,7.3,23.6,13.2c2.6,6.5-0.9,13.8-6.3,24.9c-3.9,7.9-8.1,13.9-11.2,17.8C1067.9,379.8,1061.6,386.8,1055.1,393.6z"/>
		<path class="st3" d="M920.4,232.6c-0.4-4.9-1.3-10,3.3-13.8c0.5-0.5,0.4-1.9,0.4-2.9c-0.2-6.8-0.5-13.5-0.8-20.7
			c1.1-0.1,2.5-0.2,3.9-0.4c0.4,6.8,0.5,13.6,1.2,20.3c0.2,1.7,2.2,3.1,3.4,4.7c1,5,1.9,9.9,2.9,14.7
			C926.4,238.4,921.6,237.6,920.4,232.6z"/>
		<path class="st6" d="M269.3,310.2"/>
		<path class="st7" d="M605.2,322.1c-1.7-1-3.3-2-5-3C601.8,320.1,603.5,321.1,605.2,322.1z"/>
		<path class="st7" d="M621.2,331.1c-0.7-0.7-1.3-1.3-2-2C619.8,329.8,620.5,330.4,621.2,331.1z"/>
		<path class="st2" d="M459.1,396.3c1.1-11.2,3.9-22.5,9.9-31.3c4.5-7.4,13-19.2,27.2-29.6c13.1-9.6,25.8-14.1,34-16.3
			c4.3-1.3,9.7-2.6,16-3.5c2.2-0.3,8.1-1.1,16.7-1.1c7.8,0,19.5,1,34.3,4c4.8,1.3,11.2,3.1,18,7c5.9,3.4,10.5,7.2,13.8,10.4
			c2.1,2.1,4.9,4.3,8,6.8c4.1,3.2,6.1,3.5,6.1,3.5c-0.3,2-0.7,4-1,6H638c0,0-10.7-0.4-17.6,0.2c-13.7,1.4-23.9,6.7-29.6,10.3
			c-11.1,7.5-27.1,20.1-41.8,39.9c-15.3,20.5-22.8,40.4-26.7,53.4c-3.1,10.9-5.9,22.6-8.4,35.2c-1.5,7.5-2.7,14.7-3.7,21.7
			c-0.6,2.4-1.6,3.8-3,4.3s-2.8-0.4-4.4-1.3c0,0-4-2.8-7.7-7.9c-1.3-1.8-1.9-2.6-2.9-4.3c-9.8-15.9-16-30.5-16-30.5
			c-5.5-13.2-9.9-23.8-13.4-39.3C459.8,419.7,457.8,409.9,459.1,396.3z"/>
		<path class="st8" d="M893.2,169.6c-0.7-0.2-1.3-0.5-2-0.7C891.9,169.1,892.5,169.4,893.2,169.6z"/>
		<path class="st8" d="M950.2,193.1c0.7,0,1.3,0,2,0C951.5,193.1,950.8,193.1,950.2,193.1z"/>
		<path class="st8" d="M701.2,157.1c-0.7,0-1.3,0-2,0C699.8,157.1,700.5,157.1,701.2,157.1z"/>
		<path class="st3" d="M745.8,227.1c1.6-12.8,3.2-25.5,4.9-38.2l1.1-9c22.6,6.8,46.5,14.2,69.4,20.2c7.4,2,15.6,1.2,23.5,0.9
			c13.8-0.7,27.6-2.1,41.5-3l6.6-0.3c-2.2,14.3-4.7,30.1-6.9,44.5c-0.1,1.2-0.1,2.5-0.2,3.7l0,0c-18.7,6.2-36.3,11.2-52.1,16.1
			c-11,3.4-20.7,9-29.2,16.8c-3.1,2.9-6.9,2-8.5-2c-4.9-11.7-14.2-19.7-23.6-27.5C764.7,243.1,753.5,233.2,745.8,227.1L745.8,227.1z
			"/>
		<path class="st9" d="M729.5,310.5c0,9.8-3.3,19.4-12,26.1c-13.8,10.6-32.4,3-35.2-14.2c-1.4-8.7-0.1-17.1,4.7-24.8
			c7.9-12.6,15.4-14.1,26.3-11.6C724.7,288.6,729.7,296.7,729.5,310.5z"/>
	</g>
</g>
<path class="st10" d="M711.3,155.9c0.4,0,1-0.1,1.4,0.2c1.7,1.2,3.3,2.8,5.2,3.3c24.5,7.3,49.2,14.4,73.7,21.7
	c11,3.3,21.8,7.5,33,9.9c7.4,1.6,15.4,0.8,23.2,0.5c9.6-0.4,19.1-1.5,28.6-2.2c17.5-1.2,34.9-2.4,52.4-3.5c4.6-0.3,9.2-0.6,13.8-1.1
	c0.8-0.1,1.6-0.8,2.3-1.4c0.4-0.4,1-0.5,1.6-0.4c5,1.1,10.1,2.1,15,3.5c0.9,0.3,1.7,1.1,2.4,2c0.6,0.8,0.5,2-0.4,2.6
	c-1,0.7-2,1.4-3.1,1.6c-2.6,0.5-5.3,0.1-7.9,0.1c-0.6,0-1.3,0-1.9,0c-0.1,0-0.1,0-0.2,0c-7.1,0.7-25.4,2.4-25.4,2.4l-32.3,2.6
	c-0.7,0-2.2,0.1-4.2,0.2c-21.1,1.3-42.3,4-56.9,3.5c-2.3-0.1-4.7-0.3-7.5-0.7c-4.2-0.7-7-1.5-12.2-3.1c-3.9-1.1-7.8-2.2-11.7-3.3
	c-8.4-2.5-16-4.7-22.6-6.6c-8.8-2.7-17.6-5.4-26.4-8.1c-11.4-3.3-22.8-6.6-34.2-10c-6.3-1.9-12.7-3.8-18.9-6
	c-1.2-0.4-2.3-1.3-3.3-2.3c-1-0.9-0.7-2.5,0.5-3l3.3-1.4c0.3-0.1,0.6-0.2,0.9-0.2L711.3,155.9z"/>
</svg>
